<svg xmlns="http://www.w3.org/2000/svg" viewBox="0 0 29.81 25.84"><g id="Layer_2" data-name="Layer 2"><g id="Layer_4" data-name="Layer 4"><path d="M29.46,25.49,10.82,6.85A4.51,4.51,0,0,1,9.5,3.66h0A3.16,3.16,0,0,0,6.34.5h0A3.16,3.16,0,0,0,3.18,3.66v6a9.26,9.26,0,0,0,9.26,9.26h1.44a1.2,1.2,0,0,1,1.2,1.2v5.44" fill="none" stroke="#000"/><path d="M22.17,17.7a9.59,9.59,0,0,1-3,.47,9.46,9.46,0,0,1-9-12.28" fill="none" stroke="#000"/><line x1="12.26" y1="18.92" x2="12.26" y2="25.52" fill="none" stroke="#000"/><line y1="4.05" x2="3.03" y2="4.05" fill="none" stroke="#000"/></g></g></svg>