<svg xmlns="http://www.w3.org/2000/svg" viewBox="0 0 27.18 27.18"><g id="Layer_2" data-name="Layer 2"><g id="Layer_4" data-name="Layer 4"><path d="M19.92,13.48a5.42,5.42,0,0,0,2.62,1.07,9.67,9.67,0,0,0,2.82-.31.83.83,0,0,1,.79.25,2.51,2.51,0,0,1,.53,1.73A2.2,2.2,0,0,1,25.85,18a.85.85,0,0,1-1.08,0,6.43,6.43,0,0,0-2.47-1.23,7.16,7.16,0,0,0-3-.25" fill="none" stroke="#000"/><path d="M18.32,6.46a8.88,8.88,0,0,1,2.21,2.07,3.58,3.58,0,0,0,.65-.37A7.92,7.92,0,0,0,22.8,6.49a.67.67,0,0,1,.63-.25,2,2,0,0,1,1.25.81,1.82,1.82,0,0,1,.4,1.58.69.69,0,0,1-.69.56,5,5,0,0,0-2.21.5c-.26.13-.53.3-.74.42a9,9,0,0,1,.74,3.45,8.44,8.44,0,0,1,0,.87" fill="none" stroke="#000"/><path d="M13.48,7.26a5.36,5.36,0,0,0,1.07-2.62,9.67,9.67,0,0,0-.31-2.82A.82.82,0,0,1,14.49,1,2.5,2.5,0,0,1,16.22.5,2.18,2.18,0,0,1,18,1.34a.85.85,0,0,1,0,1.08,6.35,6.35,0,0,0-1.23,2.47,7.12,7.12,0,0,0-.25,3" fill="none" stroke="#000"/><path d="M6.46,8.86A9.06,9.06,0,0,1,8.53,6.65,3.51,3.51,0,0,0,8.16,6,7.92,7.92,0,0,0,6.49,4.39a.69.69,0,0,1-.25-.64,2.06,2.06,0,0,1,.81-1.24A1.8,1.8,0,0,1,8.63,2.1a.71.71,0,0,1,.56.69A5.07,5.07,0,0,0,9.69,5c.13.26.3.53.42.73A9,9,0,0,1,13.56,5a8.46,8.46,0,0,1,.87,0" fill="none" stroke="#000"/><path d="M7.26,13.71a5.32,5.32,0,0,0-2.62-1.08A9.62,9.62,0,0,0,1.82,13,.85.85,0,0,1,1,12.69,2.47,2.47,0,0,1,.5,11a2.18,2.18,0,0,1,.84-1.8.86.86,0,0,1,1.08,0,6.34,6.34,0,0,0,2.47,1.24,7,7,0,0,0,3,.24" fill="none" stroke="#000"/><path d="M8.86,20.73a9.1,9.1,0,0,1-2.21-2.08A5.26,5.26,0,0,0,6,19,7.93,7.93,0,0,0,4.39,20.7a.74.74,0,0,1-.64.25,2.09,2.09,0,0,1-1.24-.82,1.79,1.79,0,0,1-.41-1.57A.71.71,0,0,1,2.79,18,5.27,5.27,0,0,0,5,17.49a7.89,7.89,0,0,0,.73-.42A9,9,0,0,1,5,13.62a8.11,8.11,0,0,1,0-.86" fill="none" stroke="#000"/><path d="M13.71,19.92a5.38,5.38,0,0,0-1.08,2.62A9.62,9.62,0,0,0,13,25.36a.86.86,0,0,1-.26.79,2.48,2.48,0,0,1-1.72.53,2.21,2.21,0,0,1-1.8-.83.86.86,0,0,1,0-1.08,6.42,6.42,0,0,0,1.24-2.47,7,7,0,0,0,.24-3" fill="none" stroke="#000"/><path d="M20.73,18.32a8.92,8.92,0,0,1-2.08,2.21,5.37,5.37,0,0,0,.37.65A7.93,7.93,0,0,0,20.7,22.8a.72.72,0,0,1,.25.63,2.07,2.07,0,0,1-.82,1.25,1.81,1.81,0,0,1-1.57.4.69.69,0,0,1-.56-.69,5.23,5.23,0,0,0-.51-2.21c-.12-.26-.3-.53-.42-.74a9,9,0,0,1-3.45.74,8.12,8.12,0,0,1-.86,0" fill="none" stroke="#000"/><path d="M15,13.55a1.44,1.44,0,1,1-1.44-1.44" fill="none" stroke="#000"/><path d="M19,11.06a1.43,1.43,0,1,1-1.43-1.43" fill="none" stroke="#000"/><path d="M12.78,9.2a1.44,1.44,0,1,1-1.43-1.44" fill="none" stroke="#000"/><path d="M17.52,17.86a1.44,1.44,0,1,1-1.43-1.43" fill="none" stroke="#000"/><path d="M11,16.3a1.44,1.44,0,1,1-1.43-1.44" fill="none" stroke="#000"/></g></g></svg>