<svg xmlns="http://www.w3.org/2000/svg" viewBox="0 0 32.9 24.66"><g id="Layer_2" data-name="Layer 2"><g id="Layer_4" data-name="Layer 4"><path d="M12.25,2.77H26.37a3.73,3.73,0,0,1,3.74,3.74V24.16h-2.5V15.53A1.49,1.49,0,0,0,26.12,14H16a1.49,1.49,0,0,0-1.49,1.49v8.63H12V15.29l-.13-.06a9,9,0,0,1-4-4.12" fill="none" stroke="#000"/><path d="M5.26,8.08,4.69,5.23a2.71,2.71,0,0,1-.46-1.5A3.13,3.13,0,0,1,7.5.76a3.14,3.14,0,0,1,3.28,3,2.79,2.79,0,0,1-.46,1.5L9.76,8.11" fill="none" stroke="#000"/><rect x="4.97" y="7.98" width="5.06" height="3.07" rx="0.88" transform="translate(15.01 19.03) rotate(-180)" fill="none" stroke="#000"/><path d="M.74.92A.5.5,0,0,0,.5,1.2c-.07.48,1.16,1.48,2.32,1.72A2,2,0,0,0,4.27,2.7a.89.89,0,0,0,.38-.58c.1-.65-.6-1.36-1.52-1.56A3.66,3.66,0,0,0,2.45.5,3.27,3.27,0,0,0,.74.92Z" fill="none" stroke="#000"/><path d="M12.69.5A3.66,3.66,0,0,0,12,.56c-.93.2-1.63.91-1.53,1.56a.94.94,0,0,0,.39.58,1.94,1.94,0,0,0,1.45.22c1.16-.24,2.39-1.24,2.31-1.72A.45.45,0,0,0,14.4.92,3.27,3.27,0,0,0,12.69.5Z" fill="none" stroke="#000"/><path d="M21.69,14.07a3.19,3.19,0,0,0,5.9,1.68" fill="none" stroke="#000"/><path d="M30.11,6.51h1.3a1,1,0,0,1,1,1V14" fill="none" stroke="#000" stroke-miterlimit="10"/></g></g></svg>