<svg xmlns="http://www.w3.org/2000/svg" viewBox="0 0 26.15 26.44"><g id="Layer_2" data-name="Layer 2"><g id="Layer_4" data-name="Layer 4"><path d="M2.9,12.55V3.37h0A8.62,8.62,0,0,1,11.67,12v.18a.4.4,0,0,0,.4.41h3.45" fill="none" stroke="#000"/><path d="M20.45,12.59a8.78,8.78,0,1,1-17.55,0" fill="none" stroke="#000"/><path d="M17.21,12.59A7.16,7.16,0,1,1,2.9,12.5" fill="none" stroke="#000"/><path d="M17.21,12.59a8.9,8.9,0,0,1,8.94-8.87" fill="none" stroke="#000"/><path d="M20.45,12.59A5.54,5.54,0,0,1,26,7.08" fill="none" stroke="#000"/><polyline points="9.98 21.13 9.98 25.94 8.16 25.94" fill="none" stroke="#000"/><polyline points="13.17 21.13 13.17 25.94 11.36 25.94" fill="none" stroke="#000"/><path d="M2.39,4.45A1.89,1.89,0,0,0,.5,6.34h2" fill="none" stroke="#000"/><path d="M2.88,10.36a2,2,0,0,1,0-4.06"/><path d="M5.85,1.48A.45.45,0,0,0,5.72.77,2,2,0,0,0,3.14,3.69a.46.46,0,0,0,.72,0Z"/><path d="M3.71.47A.46.46,0,0,0,3.15,0a2,2,0,0,0-.07,3.9.45.45,0,0,0,.57-.43Z"/><path d="M1.37,1a.46.46,0,0,0-.72.06A2.06,2.06,0,0,0,.92,3.5a2,2,0,0,0,2.4.41.45.45,0,0,0,.11-.71Z"/></g></g></svg>