<svg xmlns="http://www.w3.org/2000/svg" viewBox="0 0 30.4 24.67"><g id="Layer_2" data-name="Layer 2"><g id="Layer_4" data-name="Layer 4"><path d="M19,5.86a2.85,2.85,0,0,1-1.37.22,2.8,2.8,0,1,1,3-2.53" fill="none" stroke="#000"/><path d="M15.79,20a5.51,5.51,0,0,0,1.9-4.16" fill="none" stroke="#000"/><path d="M7.9,10.29a6.48,6.48,0,0,0-1.06.9,6.28,6.28,0,0,0,4.57,10.59" fill="none" stroke="#000"/><line x1="15.89" y1="5.71" x2="7.9" y2="10.29" fill="none" stroke="#000"/><path d="M17.62,12.3c.31,2.3,1.83,3.78,3.46,3.78h2.3l.26.28a.87.87,0,0,0,1.22.14.88.88,0,0,0-.06-1.23l-.46-.45a1.6,1.6,0,0,0-1.14-.46h-.53c-1.28,0-2.32-1.5-2.32-3.35A4.19,4.19,0,0,1,21.5,8.09h.57c3,0,7.83-2.45,7.83-5.48h0a.55.55,0,0,0-.56-.55H20.39" fill="none" stroke="#000"/><path d="M21,13.2h3.23l.27.28a.87.87,0,0,0,1.22.14.86.86,0,0,0-.07-1.22L25.22,12a1.61,1.61,0,0,0-1.14-.47h-.53c-1.28,0-2.93-.16-2.93-2" fill="none" stroke="#000"/><path d="M6.93,20H2.59A2.1,2.1,0,0,0,.5,22.07h0a2.1,2.1,0,0,0,2.09,2.1H13.9" fill="none" stroke="#000"/><path d="M11.41,21.78h7.14a1.71,1.71,0,0,0-1.72-1.71H14.09" fill="none" stroke="#000"/></g></g></svg>