<?xml version="1.0" encoding="UTF-8"?>
<svg width="48" height="48" viewBox="0 0 48 48" fill="none" xmlns="http://www.w3.org/2000/svg">
  <mask id="mask0_1_102" style="mask-type:alpha" maskUnits="userSpaceOnUse" x="0" y="0" width="48"
    height="48">
    <path fill-rule="evenodd" clip-rule="evenodd" d="M0 0.0313492H47.5359V47.5672H0V0.0313492Z"
      fill="white" />
  </mask>
  <g mask="url(#mask0_1_102)">
    <path fill-rule="evenodd" clip-rule="evenodd"
      d="M47.5359 23.7993C47.5359 10.6723 36.8949 0.0313492 23.7679 0.0313492C10.6409 0.0313492 -9.91821e-05 10.6723 -9.91821e-05 23.7993C-9.91821e-05 36.9263 10.6409 47.5673 23.7679 47.5673C36.8949 47.5673 47.5359 36.9263 47.5359 23.7993"
      fill="white" />
  </g>
  <mask id="mask1_1_102" style="mask-type:alpha" maskUnits="userSpaceOnUse" x="0" y="0" width="48"
    height="48">
    <path fill-rule="evenodd" clip-rule="evenodd" d="M0 47.536H47.536V0H0V47.536Z" fill="white" />
  </mask>
  <g mask="url(#mask1_1_102)">
  </g>
  <g clip-path="url(#clip0_1_102)">
    <path
      d="M40.1308 23.9735H39.2438C39.2438 23.0265 39.161 22.0737 38.9954 21.1475C38.0257 15.6726 34.1969 11 29.0022 8.9528L29.3274 8.12979C34.8089 10.2891 38.8476 15.2183 39.8676 20.9941C40.0391 21.9705 40.1278 22.9735 40.1278 23.9735H40.1308Z"
      fill="#0E0E1D" />
    <path
      d="M23.0654 41C13.6546 41 6 33.3628 6 23.9735C6 19.1386 8.06961 14.5162 11.6825 11.2891L12.2739 11.9469C8.85014 15.0059 6.88697 19.3894 6.88697 23.9735C6.88697 32.8732 14.1454 40.115 23.0654 40.115C26.5098 40.115 29.8005 39.0501 32.5767 37.0324L33.1 37.7493C30.17 39.8761 26.702 41.0029 23.0654 41.0029V41Z"
      fill="#0E0E1D" />
    <path
      d="M17.7347 25.9912C18.494 25.9912 19.1095 25.377 19.1095 24.6195C19.1095 23.8619 18.494 23.2478 17.7347 23.2478C16.9754 23.2478 16.3599 23.8619 16.3599 24.6195C16.3599 25.377 16.9754 25.9912 17.7347 25.9912Z"
      fill="#0E0E1D" />
    <path
      d="M20.5523 17.0649C21.3116 17.0649 21.9271 16.4508 21.9271 15.6932C21.9271 14.9357 21.3116 14.3215 20.5523 14.3215C19.793 14.3215 19.1775 14.9357 19.1775 15.6932C19.1775 16.4508 19.793 17.0649 20.5523 17.0649Z"
      fill="#0E0E1D" />
    <path
      d="M33.3188 27.118C34.0781 27.118 34.6936 26.5039 34.6936 25.7463C34.6936 24.9888 34.0781 24.3746 33.3188 24.3746C32.5595 24.3746 31.944 24.9888 31.944 25.7463C31.944 26.5039 32.5595 27.118 33.3188 27.118Z"
      fill="#0E0E1D" />
    <path
      d="M11.8866 20.9174C12.6458 20.9174 13.2614 20.3033 13.2614 19.5457C13.2614 18.7882 12.6458 18.174 11.8866 18.174C11.1273 18.174 10.5117 18.7882 10.5117 19.5457C10.5117 20.3033 11.1273 20.9174 11.8866 20.9174Z"
      fill="#0E0E1D" />
    <path
      d="M11.7979 12.944C12.5571 12.944 13.1727 12.3298 13.1727 11.5723C13.1727 10.8147 12.5571 10.2006 11.7979 10.2006C11.0386 10.2006 10.423 10.8147 10.423 11.5723C10.423 12.3298 11.0386 12.944 11.7979 12.944Z"
      fill="#0E0E1D" />
    <path
      d="M39.6252 25.0442C40.3845 25.0442 41 24.4301 41 23.6726C41 22.915 40.3845 22.3009 39.6252 22.3009C38.8659 22.3009 38.2504 22.915 38.2504 23.6726C38.2504 24.4301 38.8659 25.0442 39.6252 25.0442Z"
      fill="#0E0E1D" />
    <path
      d="M28.9697 9.74336C29.729 9.74336 30.3445 9.12924 30.3445 8.37168C30.3445 7.61412 29.729 7 28.9697 7C28.2104 7 27.5949 7.61412 27.5949 8.37168C27.5949 9.12924 28.2104 9.74336 28.9697 9.74336Z"
      fill="#0E0E1D" />
    <path
      d="M33.372 38.2006C34.1313 38.2006 34.7468 37.5865 34.7468 36.8289C34.7468 36.0714 34.1313 35.4572 33.372 35.4572C32.6127 35.4572 31.9972 36.0714 31.9972 36.8289C31.9972 37.5865 32.6127 38.2006 33.372 38.2006Z"
      fill="#0E0E1D" />
    <path
      d="M20.7001 35.2448C21.4594 35.2448 22.0749 34.6307 22.0749 33.8732C22.0749 33.1156 21.4594 32.5015 20.7001 32.5015C19.9408 32.5015 19.3253 33.1156 19.3253 33.8732C19.3253 34.6307 19.9408 35.2448 20.7001 35.2448Z"
      fill="#0E0E1D" />
    <path
      d="M17.5632 33.7522C17.51 33.7522 17.4538 33.7434 17.4006 33.7198C16.5166 33.3717 15.7124 32.9115 15.0146 32.351C14.8224 32.1976 14.7929 31.9204 14.9466 31.7286C15.1004 31.5369 15.3783 31.5074 15.5705 31.6608C16.2002 32.1652 16.9275 32.5782 17.7288 32.8968C17.9564 32.9853 18.0688 33.2448 17.9771 33.472C17.9091 33.646 17.7406 33.7522 17.5632 33.7522ZM13.5334 30.5133C13.3885 30.5133 13.2466 30.4425 13.1608 30.3127C12.6819 29.5811 12.2857 28.7493 11.9871 27.8407C11.9102 27.6077 12.0373 27.3599 12.2709 27.2832C12.5045 27.2065 12.7528 27.3333 12.8297 27.5664C13.1017 28.4012 13.4624 29.1622 13.9 29.8289C14.033 30.0324 13.9769 30.3068 13.7729 30.4425C13.6989 30.4926 13.6132 30.5162 13.5304 30.5162L13.5334 30.5133ZM11.8511 25.5841C11.6293 25.5841 11.4401 25.4189 11.4105 25.1947C11.3248 24.4897 11.2805 23.7463 11.2805 22.9853C11.2805 22.823 11.2805 22.6637 11.2864 22.5074C11.2923 22.2625 11.4963 22.0767 11.7387 22.0767C11.9841 22.0826 12.1763 22.2861 12.1704 22.531C12.1674 22.6814 12.1645 22.8348 12.1645 22.9882C12.1645 23.7139 12.2059 24.4189 12.2886 25.0885C12.3182 25.3304 12.1467 25.5516 11.9013 25.5811C11.8836 25.5811 11.8659 25.5841 11.8481 25.5841H11.8511Z"
      fill="#0E0E1D" />
    <path
      d="M30.8441 35.0383C30.7821 35.0383 30.717 35.0265 30.6579 34.9971C30.0104 34.6962 29.289 34.4602 28.5114 34.2979C28.2719 34.2478 28.1182 34.0147 28.1684 33.7729C28.2187 33.5339 28.4523 33.3805 28.6918 33.4307C29.5344 33.6077 30.3238 33.8643 31.0334 34.1947C31.2551 34.2979 31.3497 34.5605 31.2462 34.7817C31.1723 34.941 31.0097 35.0354 30.8441 35.0354V35.0383ZM23.8903 34.0973C23.6626 34.0973 23.4704 33.9233 23.4497 33.6932C23.429 33.4484 23.6094 33.236 23.8518 33.2124C24.6826 33.1386 25.475 33.1121 26.2703 33.1445C26.5157 33.1534 26.7049 33.3599 26.6961 33.6047C26.6872 33.8496 26.4832 34.0442 26.2348 34.0295C25.478 34 24.724 34.0236 23.9287 34.0944C23.9139 34.0944 23.9021 34.0944 23.8873 34.0944L23.8903 34.0973Z"
      fill="#0E0E1D" />
    <path
      d="M22.4593 32.6844C22.3676 32.6844 22.276 32.6549 22.1961 32.5988C21.9981 32.4543 21.9596 32.177 22.1045 31.9793C22.5775 31.3451 22.9915 30.6932 23.3344 30.0442C23.4497 29.8289 23.7158 29.7463 23.9346 29.8614C24.1534 29.9764 24.2332 30.2448 24.1179 30.4602C23.7543 31.1475 23.3137 31.8378 22.817 32.5074C22.7313 32.6254 22.5953 32.6873 22.4593 32.6873V32.6844ZM24.6412 28.5221C24.5969 28.5221 24.5525 28.5162 24.5082 28.5015C24.2746 28.4277 24.1445 28.1799 24.2185 27.9469C24.4491 27.2153 24.5998 26.469 24.6708 25.7286C24.6945 25.4838 24.9103 25.3068 25.1557 25.3304C25.3981 25.354 25.5785 25.5693 25.5548 25.8142C25.478 26.6165 25.3124 27.4218 25.064 28.2124C25.0049 28.4012 24.8305 28.5221 24.6412 28.5221ZM25.0818 23.8584C24.86 23.8584 24.6679 23.6932 24.6412 23.469C24.5525 22.7286 24.3811 21.9853 24.1386 21.2596C24.0618 21.0265 24.1859 20.7758 24.4165 20.6991C24.6501 20.6195 24.9014 20.7463 24.9783 20.9764C25.2414 21.7611 25.4247 22.5634 25.5223 23.3628C25.5519 23.6047 25.3774 23.826 25.135 23.8555C25.1173 23.8555 25.0995 23.8584 25.0818 23.8584ZM24.0233 19.9469C23.8104 20.0118 23.5798 19.9086 23.4882 19.7021C23.1866 19.0206 22.8111 18.3569 22.3647 17.7316C22.2228 17.531 22.2701 17.2566 22.4682 17.115C22.6692 16.9735 22.9442 17.0206 23.0861 17.2183C23.565 17.8909 23.9731 18.6077 24.2983 19.3451C24.3958 19.5693 24.2953 19.8289 24.0706 19.9292C24.0529 19.9351 24.0381 19.944 24.0204 19.9469H24.0233Z"
      fill="#0E0E1D" />
    <path
      d="M17.4538 25.1003C17.2646 25.1003 17.0872 24.9764 17.031 24.7876C16.96 24.5546 17.0901 24.3068 17.3267 24.236C17.643 24.1386 17.9505 24.0383 18.2521 23.9351C18.4827 23.8555 18.7369 23.9794 18.8168 24.2094C18.8966 24.4395 18.7724 24.6932 18.5418 24.7729C18.2343 24.8791 17.915 24.9823 17.5898 25.0826C17.5454 25.0944 17.5041 25.1032 17.4597 25.1032L17.4538 25.1003ZM20.5907 23.9292C20.4222 23.9292 20.2596 23.8319 20.1857 23.6696C20.0852 23.4484 20.1857 23.1858 20.4074 23.0826C21.1318 22.7552 21.8207 22.3953 22.4563 22.0148C22.6662 21.8879 22.9383 21.9558 23.0654 22.1652C23.1925 22.3746 23.1245 22.646 22.9146 22.7729C22.2523 23.1711 21.5309 23.5457 20.777 23.8879C20.7179 23.9145 20.6558 23.9263 20.5937 23.9263L20.5907 23.9292ZM24.6176 21.4867C24.4905 21.4867 24.3604 21.4307 24.2746 21.3245C24.1209 21.1357 24.1475 20.8555 24.3367 20.7021C24.9428 20.2065 25.4957 19.6755 25.9776 19.118C26.1373 18.9322 26.4181 18.9115 26.6044 19.0737C26.7907 19.233 26.8114 19.5133 26.6488 19.6991C26.1314 20.295 25.543 20.8643 24.8985 21.3894C24.8157 21.4572 24.7181 21.4897 24.6176 21.4897V21.4867ZM27.8048 18C27.7309 18 27.657 17.9823 27.586 17.944C27.3731 17.823 27.2992 17.5546 27.4175 17.3422C27.793 16.6814 28.0945 15.9853 28.3222 15.2684C28.3961 15.0354 28.6445 14.9056 28.878 14.9794C29.1116 15.0531 29.2417 15.3009 29.1678 15.5339C28.9253 16.3097 28.5942 17.0649 28.1891 17.7788C28.1064 17.9233 27.9585 18.003 27.8018 18.003L27.8048 18ZM29.1766 13.767C29.1766 13.767 29.15 13.767 29.1382 13.764C28.8958 13.7286 28.7272 13.5074 28.7598 13.2625C28.8012 12.9617 28.8307 12.6608 28.8455 12.3658C28.8869 11.5546 28.81 11.0442 28.81 11.0383C28.7716 10.7965 28.9372 10.5723 29.1796 10.5339C29.4191 10.4956 29.6467 10.6608 29.6852 10.9027C29.6881 10.9263 29.7768 11.5015 29.7325 12.413C29.7147 12.7345 29.6852 13.0619 29.6379 13.3894C29.6053 13.6165 29.4043 13.7817 29.1766 13.7699V13.767Z"
      fill="#0E0E1D" />
    <path
      d="M32.5146 23.236C32.3431 23.236 32.1776 23.1357 32.1066 22.9646C31.808 22.2625 31.4384 21.5959 31.0068 20.9912C30.8648 20.7935 30.9121 20.5162 31.1102 20.3746C31.3113 20.233 31.5862 20.2802 31.7282 20.4779C32.1983 21.1357 32.6004 21.8584 32.9226 22.6195C33.0172 22.8437 32.9138 23.1032 32.6861 23.2006C32.6299 23.2242 32.5708 23.236 32.5146 23.236ZM29.7886 19.4277C29.6852 19.4277 29.5787 19.3923 29.493 19.3156C28.9401 18.826 28.3192 18.3864 27.6481 18.0029C27.4352 17.882 27.3613 17.6136 27.4825 17.4012C27.6037 17.1888 27.8757 17.115 28.0886 17.236C28.813 17.646 29.4841 18.1239 30.0843 18.6549C30.2676 18.8171 30.2854 19.0973 30.1227 19.2802C30.034 19.3776 29.9128 19.4277 29.7916 19.4277H29.7886ZM25.7204 17.0914C25.6701 17.0914 25.6228 17.0826 25.5726 17.0649C24.8837 16.823 24.1357 16.6195 23.3551 16.4631C23.1156 16.4159 22.9589 16.1829 23.0063 15.941C23.0536 15.7021 23.2871 15.5487 23.5296 15.5929C24.3515 15.7581 25.1379 15.9705 25.8682 16.2271C26.0988 16.3097 26.2201 16.5605 26.1402 16.7906C26.0752 16.9735 25.9037 17.0855 25.7233 17.0855L25.7204 17.0914Z"
      fill="#0E0E1D" />
  </g>
  <defs>
    <clipPath id="clip0_1_102">
      <rect width="35" height="34" fill="white" transform="translate(6 7)" />
    </clipPath>
  </defs>
</svg>
