<?xml version="1.0" encoding="UTF-8"?>
<svg width="48" height="48" viewBox="0 0 48 48" fill="none" xmlns="http://www.w3.org/2000/svg">
  <mask id="mask0_1_69" style="mask-type:alpha" maskUnits="userSpaceOnUse" x="0" y="0" width="48"
    height="48">
    <path fill-rule="evenodd" clip-rule="evenodd" d="M0 0.0313492H47.5359V47.5672H0V0.0313492Z"
      fill="white" />
  </mask>
  <g mask="url(#mask0_1_69)">
    <path fill-rule="evenodd" clip-rule="evenodd"
      d="M47.5359 23.7993C47.5359 10.6723 36.8949 0.0313492 23.7679 0.0313492C10.6409 0.0313492 -0.000106812 10.6723 -0.000106812 23.7993C-0.000106812 36.9263 10.6409 47.5673 23.7679 47.5673C36.8949 47.5673 47.5359 36.9263 47.5359 23.7993"
      fill="white" />
  </g>
  <mask id="mask1_1_69" style="mask-type:alpha" maskUnits="userSpaceOnUse" x="0" y="0" width="48"
    height="48">
    <path fill-rule="evenodd" clip-rule="evenodd" d="M0 47.536H47.536V0H0V47.536Z" fill="white" />
  </mask>
  <g mask="url(#mask1_1_69)">
  </g>
  <g clip-path="url(#clip0_1_69)">
    <path
      d="M35.1081 24.2605C35.7076 24.9781 35.9616 25.7017 35.8671 26.4135C35.7401 27.3467 35.052 28.0053 34.4938 28.3952C34.3343 28.5074 34.1423 28.5694 33.9504 28.5724C33.6491 28.5724 33.3715 28.4276 33.1943 28.1855C32.6745 27.4855 31.5907 27.1518 30.7755 26.9982C30.0785 26.8683 29.3697 26.8092 28.6609 26.8181C28.5487 26.8269 28.4365 26.7856 28.3538 26.7058C28.2711 26.6291 28.2239 26.5227 28.2209 26.4076C28.212 26.1742 28.3981 25.9764 28.6314 25.9705H28.7909C29.5086 25.9705 30.2262 26.0325 30.9321 26.1654C32.3379 26.4312 33.3302 26.9451 33.8795 27.6864C33.8943 27.707 33.9149 27.7188 33.9386 27.7218C33.9445 27.7218 33.9474 27.7218 33.9533 27.7218C33.971 27.7218 33.9917 27.7129 34.0065 27.7011C34.3491 27.4619 34.9368 26.9628 35.0254 26.3042C35.0874 25.8376 34.8954 25.3325 34.4554 24.8069C34.4318 24.7803 34.3963 24.7685 34.3609 24.7773C33.3538 25.0372 32.3083 25.111 31.2717 24.9988C30.492 24.9191 29.7507 24.6267 29.1217 24.1512C29.0301 24.0833 28.971 23.9829 28.9563 23.8677C28.9415 23.7525 28.974 23.6373 29.0449 23.5487C29.1158 23.4572 29.2191 23.4011 29.3314 23.3863C29.4436 23.3715 29.5588 23.407 29.6474 23.4808C29.8009 23.596 29.9663 23.6934 30.1376 23.782H30.1288C30.1288 23.782 30.427 23.9533 30.938 24.0744L31.3219 24.1453C31.3219 24.1453 31.3219 24.1453 31.3278 24.1453L31.7885 24.1542V24.1867C31.7885 24.1867 31.8003 24.1867 31.8092 24.1867C32.326 24.2132 32.7277 24.1778 32.8754 24.1601C33.3095 24.1217 33.7407 24.0508 34.163 23.9445C34.3343 23.9002 34.5145 23.9061 34.6858 23.9622C34.857 24.0183 35.0047 24.1187 35.1199 24.2546L35.1081 24.2605Z"
      fill="#0E0E1D" />
    <path
      d="M32.4855 16.4843C33.8234 16.7738 34.4849 17.7631 34.2575 19.1305C34.2191 19.3432 34.1128 19.5351 33.9504 19.674C33.7909 19.8157 33.5871 19.8955 33.3745 19.9073C32.58 19.9988 31.8358 20.3355 31.2422 20.873C31.6025 21.8004 31.7856 22.7868 31.7885 23.782V23.8175C31.7885 23.9297 31.7885 24.0449 31.7797 24.1601L31.319 24.1512C31.319 24.1512 31.319 24.1512 31.3131 24.1512L30.9291 24.0803C30.9291 23.9947 30.938 23.9061 30.938 23.8204C30.938 23.8116 30.938 23.7968 30.938 23.7879C30.938 22.8015 30.7342 21.8328 30.3444 20.9291C30.3178 20.873 30.3089 20.8169 30.3089 20.7608C30.3089 20.6426 30.3562 20.5275 30.4448 20.4448C30.9675 19.9604 32.0337 19.1364 33.3272 19.0626C33.3715 19.0626 33.4099 19.0331 33.4188 18.9888C33.6521 17.6066 32.6391 17.391 32.3113 17.3172H32.2995C32.2729 17.3172 32.2404 17.329 32.2256 17.3556C31.7177 18.0526 30.6899 19.2221 29.541 19.2428C29.4111 19.2487 29.29 19.1926 29.2073 19.0951C28.7348 18.5369 28.1855 18.0555 27.5712 17.6627C27.3733 17.5328 27.3142 17.2729 27.4412 17.0721C27.5712 16.8742 27.8311 16.8181 28.0289 16.9421C28.6521 17.3408 29.2162 17.8193 29.7064 18.3686C29.9752 18.3095 30.2764 18.1441 30.5895 17.8872C30.9055 17.6273 31.2274 17.2758 31.5405 16.8476C31.6468 16.7029 31.7915 16.5907 31.9628 16.5257C32.0721 16.4814 32.1843 16.4637 32.2965 16.4637C32.3615 16.4637 32.4265 16.4725 32.4914 16.4843H32.4855Z"
      fill="#0E0E1D" />
    <path
      d="M29.5529 28.4572C29.736 28.6019 29.7685 28.8736 29.6208 29.0567C29.1601 29.6326 28.6255 30.1435 28.0289 30.5747C28.0555 30.8494 28.1914 31.1683 28.4158 31.505C28.6403 31.8417 28.9563 32.202 29.352 32.5564C29.4849 32.6775 29.5794 32.837 29.6267 33.0112C29.6474 33.091 29.6592 33.1737 29.6592 33.2563C29.6592 33.3509 29.6444 33.4483 29.6149 33.5399C29.1896 34.8393 28.1353 35.3946 26.7974 35.0254C26.5936 34.9663 26.4135 34.8423 26.2894 34.6651C26.1624 34.4908 26.1063 34.2782 26.1181 34.0656C26.1093 33.2652 25.8523 32.4914 25.3828 31.8447C24.42 32.1075 23.4217 32.1872 22.4324 32.0839C22.4206 32.0839 22.4087 32.0839 22.3969 32.0839C22.2847 32.0721 22.1725 32.0573 22.0573 32.0396L22.1164 31.5848V31.5789L22.2286 31.2038C22.3142 31.2126 22.3999 31.2304 22.4855 31.2363C22.4944 31.2363 22.5092 31.2363 22.521 31.2363C23.4985 31.3367 24.4879 31.2363 25.4241 30.9439C25.4684 30.9321 25.5097 30.9232 25.554 30.9232C25.684 30.9232 25.8139 30.9823 25.8937 31.0945C26.3219 31.6615 27.0307 32.8074 26.9687 34.1069C26.9628 34.1512 26.9894 34.1926 27.0307 34.2044C28.3804 34.5765 28.7023 33.596 28.8086 33.2741C28.8086 33.2652 28.8086 33.2593 28.8086 33.2534C28.8086 33.2268 28.7998 33.2032 28.7791 33.1855C28.1412 32.6066 27.0839 31.4637 27.1813 30.3178C27.1902 30.1908 27.2581 30.0756 27.3644 30.0018C27.9669 29.5942 28.5074 29.0951 28.9592 28.5251C29.104 28.342 29.3727 28.3095 29.5558 28.4572H29.5529Z"
      fill="#0E0E1D" />
    <path
      d="M28.4335 12.7631C28.5399 12.9256 28.596 13.1175 28.5901 13.3154C28.5783 13.6137 28.4276 13.8884 28.1796 14.0567C27.4619 14.5499 27.0898 15.622 26.9067 16.4341C26.756 17.1282 26.6704 17.834 26.6556 18.5399C26.6556 18.6521 26.6113 18.7614 26.5316 18.8411C26.4548 18.9209 26.3455 18.9681 26.2303 18.9652C25.997 18.9652 25.8051 18.7732 25.8051 18.5399C25.8198 17.769 25.9143 17.0012 26.0797 16.2451C26.3957 14.8512 26.9421 13.8795 27.7011 13.3538C27.7218 13.342 27.7366 13.3213 27.7395 13.2947C27.7395 13.2888 27.7395 13.2829 27.7395 13.277C27.7395 13.2593 27.7336 13.2416 27.7218 13.2268C27.4944 12.8754 27.0159 12.2729 26.3603 12.1577C25.8996 12.0809 25.3886 12.2522 24.8452 12.6775C24.8187 12.7011 24.8039 12.7366 24.8127 12.772C24.9486 13.3833 25.0136 14.0065 25.0136 14.6297C25.0136 15.0461 24.987 15.4595 24.925 15.8701C24.8157 16.6468 24.4967 17.3792 24.0065 17.9905C23.9327 18.0821 23.8293 18.1353 23.7171 18.1471C23.6019 18.1559 23.4897 18.1205 23.4011 18.0496C23.3125 17.9787 23.2593 17.8695 23.2504 17.7572C23.2416 17.645 23.28 17.5298 23.3538 17.4442C23.4749 17.2965 23.5783 17.1341 23.6728 16.9687V16.9746C23.6728 16.9746 23.8559 16.6852 23.9917 16.1772C23.9061 16.1713 23.8175 16.1654 23.7348 16.1595H23.6993C23.6196 16.1595 23.5399 16.1536 23.4601 16.1536L24.0774 15.7962V15.7874L24.1039 15.3296C24.1039 15.3296 24.1276 15.3296 24.1364 15.3296C24.1364 15.3207 24.1364 15.3148 24.1364 15.306C24.1807 14.7921 24.1601 14.3875 24.1453 14.2428C24.1217 13.8057 24.0685 13.3745 23.974 12.9462C23.9356 12.772 23.9474 12.5918 24.0094 12.4235C24.0715 12.2552 24.1748 12.1105 24.3166 12.0012C25.0549 11.4282 25.7873 11.2008 26.4932 11.319C27.4205 11.4784 28.0555 12.1902 28.4247 12.7602L28.4335 12.7631Z"
      fill="#0E0E1D" />
    <path
      d="M28.2386 20.8582C28.4719 20.8582 28.6639 21.0473 28.6639 21.2835C28.6639 21.7501 28.4778 22.1961 28.1471 22.5269C27.8163 22.8576 27.3703 23.0408 26.9037 23.0408C26.4371 23.0408 25.9882 22.8576 25.6604 22.5269C25.3296 22.1961 25.1435 21.7501 25.1435 21.2835C25.1435 20.8169 25.3296 20.368 25.6604 20.0372C25.9911 19.7064 26.4371 19.5233 26.9037 19.5233C27.137 19.5233 27.329 19.7153 27.329 19.9486C27.329 20.1819 27.137 20.3739 26.9037 20.3739C26.6704 20.3739 26.4312 20.4684 26.2599 20.6397C26.0915 20.811 25.9941 21.0413 25.9941 21.2835C25.9941 21.5257 26.0886 21.7561 26.2599 21.9244C26.4312 22.0927 26.6615 22.1902 26.9037 22.1902C27.1459 22.1902 27.3762 22.0957 27.5475 21.9244C27.7188 21.7531 27.8133 21.5227 27.8133 21.2835C27.8133 21.0443 28.0053 20.8582 28.2386 20.8582Z"
      fill="#0E0E1D" />
    <path
      d="M26.9067 27.137C27.14 27.137 27.3319 27.326 27.3319 27.5623C27.3319 28.0289 27.1459 28.4749 26.8151 28.8057C26.4843 29.1335 26.0384 29.3196 25.5718 29.3196C24.9456 29.3196 24.3638 28.9858 24.0508 28.4395C23.7348 27.899 23.7348 27.2286 24.0508 26.6822C24.3668 26.1359 24.9456 25.8021 25.5718 25.8021C25.8051 25.8021 25.997 25.9911 25.997 26.2274C25.997 26.4637 25.8051 26.6497 25.5718 26.6497C25.3384 26.6497 25.0992 26.7442 24.9279 26.9155C24.7566 27.0868 24.6621 27.3172 24.6621 27.5594C24.6621 27.8015 24.7566 28.0319 24.9279 28.2002C25.0992 28.3686 25.3325 28.466 25.5718 28.466C25.811 28.466 26.0443 28.3715 26.2156 28.2002C26.3869 28.0289 26.4814 27.7986 26.4814 27.5594C26.4814 27.3201 26.6734 27.1341 26.9067 27.1341V27.137Z"
      fill="#0E0E1D" />
    <path
      d="M24.6503 23.1382C24.8836 23.1382 25.0756 23.3302 25.0756 23.5635C25.0756 24.0301 24.8895 24.4761 24.5588 24.8069C24.228 25.1376 23.782 25.3207 23.3154 25.3237C22.6893 25.3237 22.1045 24.99 21.7944 24.4436C21.4784 23.9002 21.4784 23.2298 21.7944 22.6834C22.1075 22.14 22.6893 21.8033 23.3154 21.8033C23.5487 21.8033 23.7407 21.9953 23.7407 22.2286C23.7407 22.4619 23.5487 22.6539 23.3154 22.6539C23.0821 22.6539 22.8429 22.7484 22.6716 22.9197C22.5032 23.091 22.4058 23.3213 22.4058 23.5635C22.4058 23.8057 22.5003 24.036 22.6716 24.2073C22.8429 24.3757 23.0762 24.4731 23.3154 24.4731C23.5546 24.4731 23.7879 24.3786 23.9592 24.2073C24.1276 24.036 24.225 23.8027 24.225 23.5635C24.225 23.3243 24.417 23.1382 24.6503 23.1382Z"
      fill="#0E0E1D" />
    <path
      d="M24.1069 15.3296L24.0803 15.7874V15.7933L23.4631 16.1536C22.5623 16.1536 21.6675 16.3249 20.8258 16.6556C20.7755 16.6763 20.7224 16.6852 20.6722 16.6852C20.5481 16.6852 20.43 16.632 20.3473 16.5375C19.8807 16 19.0921 14.9073 19.0656 13.6078C19.0656 13.5635 19.039 13.5281 18.9976 13.5133C17.6243 13.2357 17.3733 14.2369 17.2877 14.5676C17.2818 14.6001 17.2965 14.6326 17.3201 14.6533C17.9965 15.1849 19.1335 16.254 19.1128 17.3999C19.1128 17.5298 19.0538 17.648 18.9504 17.7277C18.3774 18.1796 17.8754 18.7141 17.4649 19.3136C17.332 19.5086 17.0662 19.5558 16.8712 19.4259C16.6763 19.293 16.6291 19.0242 16.762 18.8322C17.1813 18.2239 17.6805 17.6775 18.2475 17.205C18.153 16.6645 17.6243 15.9764 16.7915 15.3237C16.6497 15.2115 16.5434 15.0608 16.4873 14.8895C16.4519 14.7921 16.4341 14.6887 16.4341 14.5854C16.4341 14.5086 16.443 14.4347 16.4607 14.3609C16.7944 13.0348 17.8074 12.4087 19.166 12.6834C19.3757 12.7277 19.5617 12.8429 19.6976 13.0083C19.8334 13.1737 19.9073 13.3804 19.9102 13.596C19.9752 14.3934 20.2853 15.1494 20.7992 15.7608C21.7383 15.433 22.7307 15.2823 23.7259 15.3148H23.7614C23.8736 15.3207 23.9888 15.3237 24.104 15.3355L24.1069 15.3296Z"
      fill="#0E0E1D" />
    <path
      d="M23.0732 29.674C23.0732 29.7862 23.0289 29.8955 22.9462 29.9752C22.8163 30.117 22.7011 30.2705 22.5978 30.43V30.4241C22.5978 30.4241 22.3969 30.7017 22.2227 31.1979L22.1105 31.57V31.5789L22.0514 32.0337C22.0514 32.0337 22.0278 32.0337 22.0189 32.0278C22.0189 32.0366 22.0189 32.0425 22.0189 32.0484C21.9362 32.5594 21.9303 32.964 21.9333 33.1116C21.9244 33.5458 21.951 33.9829 22.013 34.4141C22.0396 34.5913 22.013 34.7685 21.9392 34.9309C21.8683 35.0933 21.7531 35.2321 21.6054 35.3325C20.8287 35.8553 20.0845 36.0295 19.3845 35.8612C18.4719 35.6397 17.8872 34.8836 17.5594 34.29C17.4649 34.1217 17.4206 33.9238 17.4412 33.7318C17.4737 33.4336 17.645 33.1707 17.9019 33.0201C18.6521 32.5771 19.0951 31.5346 19.3373 30.7372C19.5351 30.0579 19.671 29.3579 19.7389 28.6521C19.7448 28.5399 19.798 28.4335 19.8807 28.3597C19.9663 28.2829 20.0786 28.2475 20.1908 28.2564C20.4241 28.2741 20.6013 28.4779 20.5836 28.7112C20.5157 29.479 20.368 30.241 20.1494 30.9793C19.7389 32.3497 19.1276 33.2829 18.3331 33.7525C18.3125 33.7643 18.2977 33.785 18.2888 33.8086C18.2888 33.8175 18.2888 33.8234 18.2888 33.8322C18.2888 33.85 18.2947 33.8677 18.3006 33.8795C18.5044 34.2457 18.9386 34.8836 19.5824 35.0402C20.0372 35.1524 20.56 35.0136 21.1329 34.6297C21.1595 34.609 21.1772 34.5735 21.1713 34.5381C21.0207 33.5074 21.0532 32.4589 21.2747 31.44C21.4371 30.6722 21.8063 29.9634 22.3408 29.3875C22.4176 29.3018 22.5269 29.2546 22.6421 29.2516C22.7572 29.2487 22.8665 29.293 22.9492 29.3727C23.0289 29.4495 23.0791 29.5588 23.0791 29.674H23.0732Z"
      fill="#0E0E1D" />
    <path
      d="M22.5269 19.1424C22.7602 19.1424 22.9521 19.3314 22.9521 19.5647C22.9521 20.0313 22.7661 20.4802 22.4383 20.811C22.1075 21.1418 21.6586 21.3249 21.192 21.3249C20.7253 21.3249 20.2794 21.1418 19.9486 20.811C19.6178 20.4802 19.4347 20.0313 19.4347 19.5647C19.4347 19.0981 19.6178 18.6521 19.9486 18.3213C20.2794 17.9905 20.7253 17.8074 21.192 17.8074C21.4282 17.8074 21.6172 17.9965 21.6172 18.2327C21.6172 18.469 21.4282 18.655 21.192 18.655C20.9557 18.655 20.7194 18.7496 20.5511 18.9209C20.3798 19.0892 20.2853 19.3225 20.2853 19.5617C20.2853 19.8009 20.3798 20.0343 20.5511 20.2056C20.7194 20.3768 20.9527 20.4714 21.192 20.4714C21.4312 20.4714 21.6645 20.3768 21.8358 20.2056C22.0041 20.0343 22.1016 19.8039 22.1016 19.5617C22.1016 19.3196 22.2936 19.1394 22.5269 19.1394V19.1424Z"
      fill="#0E0E1D" />
    <path
      d="M21.3721 26.2304C21.3721 26.8565 21.0384 27.4383 20.492 27.7513C19.9486 28.0644 19.2782 28.0644 18.7318 27.7513C18.4601 27.5948 18.2416 27.3703 18.088 27.1075C17.9374 26.8447 17.8547 26.5434 17.8547 26.2304C17.8547 25.7637 18.0408 25.3148 18.3715 24.987C18.7023 24.6562 19.1483 24.4702 19.6149 24.4702C19.8482 24.4702 20.0402 24.6621 20.0402 24.8955C20.0402 25.1288 19.8482 25.3207 19.6149 25.3207C19.3816 25.3207 19.1423 25.4152 18.9711 25.5865C18.8027 25.7578 18.7053 25.9882 18.7053 26.2304C18.7053 26.4725 18.7998 26.7029 18.9711 26.8712C19.1423 27.0396 19.3727 27.137 19.6149 27.137C19.8571 27.137 20.0874 27.0425 20.2587 26.8712C20.43 26.6999 20.5245 26.4696 20.5245 26.2304C20.5245 25.9911 20.7165 25.8051 20.9498 25.8051C21.1831 25.8051 21.3751 25.997 21.3751 26.2304H21.3721Z"
      fill="#0E0E1D" />
    <path
      d="M18.7614 29.4643C18.9504 29.606 18.9917 29.8718 18.85 30.0608C18.7112 30.2469 18.4454 30.2882 18.2563 30.1494C17.6627 29.7094 17.1341 29.1926 16.6852 28.6107C16.4135 28.6491 16.1004 28.7909 15.7696 29.0301C15.4389 29.2693 15.0904 29.5942 14.7507 30.0018C14.6326 30.1376 14.479 30.238 14.3077 30.2912C14.2162 30.3178 14.1217 30.3355 14.0272 30.3355C13.9415 30.3355 13.8588 30.3237 13.7761 30.3001C12.4619 29.9191 11.8712 28.8854 12.1961 27.5357C12.2463 27.329 12.3674 27.1459 12.5387 27.0159C12.707 26.886 12.9167 26.8181 13.1323 26.821C13.9327 26.7856 14.6976 26.5021 15.3266 26.0089C15.0313 25.0579 14.9161 24.0597 14.984 23.0673V23.0319C14.9929 22.9167 15.0018 22.8015 15.0165 22.6834L15.4743 22.7336C15.4743 22.7336 15.4802 22.7336 15.4832 22.7336L15.8582 22.8311C15.8494 22.9138 15.8376 23.0024 15.8317 23.0851C15.8317 23.0969 15.8317 23.1116 15.8317 23.1205C15.7667 24.101 15.8996 25.0874 16.2274 26.0148C16.2451 26.0591 16.254 26.1093 16.254 26.1595C16.254 26.2835 16.1979 26.4076 16.0945 26.4903C15.5393 26.9362 14.42 27.6834 13.1205 27.6657C13.0762 27.6657 13.0378 27.6923 13.026 27.7307C12.7011 29.0951 13.6905 29.3816 14.0154 29.4731C14.0242 29.4731 14.0301 29.4731 14.036 29.4731C14.0626 29.4731 14.0892 29.4643 14.104 29.4406C14.6621 28.782 15.7667 27.6864 16.9126 27.7454C17.0396 27.7513 17.1607 27.8133 17.2315 27.9197C17.6627 28.5074 18.1796 29.0272 18.7643 29.4584L18.7614 29.4643Z"
      fill="#0E0E1D" />
    <path
      d="M18.6078 20.3887C18.6846 20.4714 18.7259 20.5806 18.72 20.6929C18.7112 20.9262 18.5133 21.1122 18.28 21.1004C17.5092 21.0591 16.7442 20.9409 16 20.749C14.6178 20.3857 13.6639 19.8069 13.1677 19.0272C13.1559 19.0065 13.1323 18.9917 13.1087 18.9858C13.0998 18.9858 13.0969 18.9858 13.091 18.9858C13.0703 18.9858 13.0526 18.9947 13.0378 19.0035C12.6804 19.2191 12.0602 19.674 11.9244 20.3237C11.8299 20.7844 11.9864 21.2983 12.3881 21.8594C12.4117 21.886 12.4471 21.9008 12.4826 21.8949C13.5044 21.7058 14.5558 21.7029 15.5836 21.886C16.3574 22.0248 17.078 22.3674 17.6716 22.8813C17.7572 22.9581 17.8104 23.0614 17.8163 23.1766C17.8222 23.2918 17.7838 23.404 17.707 23.4867C17.6302 23.5724 17.5239 23.6226 17.4058 23.6285C17.2936 23.6344 17.1813 23.5901 17.0986 23.5133C16.9539 23.3863 16.7974 23.28 16.632 23.1796H16.6409C16.6409 23.1796 16.3573 22.9876 15.8553 22.834L15.4802 22.7366C15.4802 22.7366 15.4743 22.7366 15.4713 22.7366L15.0136 22.6864C15.0136 22.6864 15.0136 22.6686 15.0136 22.6598C15.0047 22.6598 15.0018 22.6598 14.9929 22.6598C14.479 22.5948 14.0744 22.6037 13.9297 22.6125C13.4926 22.6214 13.0585 22.6598 12.6273 22.7395C12.453 22.769 12.2758 22.7513 12.1075 22.6834C11.9451 22.6184 11.8004 22.5062 11.697 22.3644C11.1506 21.6054 10.9468 20.8641 11.0886 20.1642C11.2806 19.2428 12.013 18.6314 12.5978 18.2829C12.7631 18.1796 12.9581 18.1323 13.153 18.1441C13.4513 18.1677 13.72 18.3272 13.8795 18.5812C14.352 19.3166 15.4064 19.7242 16.2097 19.9368C16.8978 20.111 17.6007 20.2203 18.3095 20.2617C18.4217 20.2617 18.5281 20.3119 18.6078 20.3946V20.3887Z"
      fill="#0E0E1D" />
    <path
      d="M40.557 23.9445H36.9421C36.697 23.9445 36.4991 23.7466 36.4991 23.5015C36.4991 23.2563 36.697 23.0585 36.9421 23.0585H40.557C40.8021 23.0585 41 23.2563 41 23.5015C41 23.7466 40.8021 23.9445 40.557 23.9445Z"
      fill="#0E0E1D" />
    <path
      d="M10.0579 23.9445H6.443C6.19787 23.9445 6 23.7466 6 23.5015C6 23.2563 6.19787 23.0585 6.443 23.0585H10.0579C10.303 23.0585 10.5009 23.2563 10.5009 23.5015C10.5009 23.7466 10.303 23.9445 10.0579 23.9445Z"
      fill="#0E0E1D" />
    <path
      d="M21.7177 39.2605C21.6999 39.2605 21.6852 39.2605 21.6675 39.2605C14.3786 38.4306 8.68754 32.7631 7.82812 25.4743C7.79859 25.2321 7.97284 25.0106 8.21501 24.9811C8.45718 24.9486 8.67868 25.1258 8.70822 25.368C9.52039 32.2434 14.8896 37.5919 21.7679 38.3774C22.01 38.404 22.1843 38.6255 22.1577 38.8677C22.1311 39.0951 21.9392 39.2605 21.7177 39.2605Z"
      fill="#0E0E1D" />
    <path
      d="M38.6314 21.9657C38.4129 21.9657 38.2239 21.8063 38.1943 21.5818C37.3024 15.0284 32.1016 9.80685 25.5511 8.88836C25.3089 8.85292 25.1406 8.63142 25.1731 8.38925C25.2056 8.14708 25.43 7.97874 25.6722 8.01122C32.6125 8.98582 38.1235 14.5174 39.0685 21.4637C39.101 21.7058 38.9327 21.9303 38.6905 21.9628C38.6698 21.9628 38.6492 21.9657 38.6314 21.9657Z"
      fill="#0E0E1D" />
    <path
      d="M8.30066 21.9657C8.27998 21.9657 8.25931 21.9657 8.24159 21.9628C7.99942 21.9303 7.82812 21.7058 7.86356 21.4637C8.83521 14.3284 14.5115 8.77318 21.6645 7.95806C21.9067 7.92853 22.1282 8.10573 22.1548 8.3479C22.1813 8.59008 22.0071 8.81158 21.7649 8.83816C15.0136 9.60898 9.65919 14.8482 8.7407 21.5818C8.71117 21.8033 8.5192 21.9657 8.30361 21.9657H8.30066Z"
      fill="#0E0E1D" />
    <path
      d="M25.6131 39.2103C25.3946 39.2103 25.2056 39.0508 25.176 38.8293C25.1406 38.5871 25.3119 38.3627 25.5541 38.3302C32.2286 37.394 37.4412 32.0632 38.2298 25.3709C38.2593 25.1288 38.4808 24.9516 38.723 24.9841C38.9652 25.0136 39.1394 25.2321 39.1099 25.4773C38.2741 32.5712 32.7484 38.218 25.6781 39.2103C25.6574 39.2103 25.6368 39.2132 25.6161 39.2132L25.6131 39.2103Z"
      fill="#0E0E1D" />
    <path
      d="M23.5015 10.5009C23.2563 10.5009 23.0585 10.303 23.0585 10.0579V6.443C23.0585 6.19787 23.2563 6 23.5015 6C23.7466 6 23.9445 6.19787 23.9445 6.443V10.0579C23.9445 10.303 23.7466 10.5009 23.5015 10.5009Z"
      fill="#0E0E1D" />
    <path
      d="M23.5015 41C23.2563 41 23.0585 40.8021 23.0585 40.557V36.9421C23.0585 36.697 23.2563 36.4991 23.5015 36.4991C23.7466 36.4991 23.9445 36.697 23.9445 36.9421V40.557C23.9445 40.8021 23.7466 41 23.5015 41Z"
      fill="#0E0E1D" />
  </g>
  <defs>
    <clipPath id="clip0_1_69">
      <rect width="35" height="35" fill="white" transform="translate(6 6)" />
    </clipPath>
  </defs>
</svg>
