<svg xmlns="http://www.w3.org/2000/svg" viewBox="0 0 279.15 140.77">
    <g id="Layer_2" data-name="Layer 2">
        <g id="Layer_5" data-name="Layer 5">
            <path
                d="M268.31,140.52H25.45a10.68,10.68,0,0,1-10.59-10.77v-51a5.06,5.06,0,0,0-2.4-4.32L1.65,67.81a3,3,0,0,1,0-5l10.92-6.95a5.06,5.06,0,0,0,2.33-4.27V11A10.68,10.68,0,0,1,25.45.25H268.31A10.68,10.68,0,0,1,278.9,11V129.75A10.68,10.68,0,0,1,268.31,140.52Z"
                fill="#fff" stroke="#0c0a10" stroke-width="0.5" />
            <path
                d="M48.62,45.48a9.59,9.59,0,0,1-3.88-.69A5.51,5.51,0,0,1,42.36,43a4.18,4.18,0,0,1-.86-2.33.52.52,0,0,1,.15-.38.5.5,0,0,1,.37-.15h2.23a.77.77,0,0,1,.49.14,1.38,1.38,0,0,1,.28.34,2.43,2.43,0,0,0,.58.93,3.14,3.14,0,0,0,1.16.77,5,5,0,0,0,1.86.3,4.85,4.85,0,0,0,2.69-.6,1.87,1.87,0,0,0,.89-1.63,1.49,1.49,0,0,0-.48-1.16,4.33,4.33,0,0,0-1.46-.8,24.78,24.78,0,0,0-2.61-.76,14.82,14.82,0,0,1-3.14-1.09A4.84,4.84,0,0,1,42.61,35,4.5,4.5,0,0,1,42,32.48a4.42,4.42,0,0,1,.79-2.57A5.4,5.4,0,0,1,45,28.13a9.64,9.64,0,0,1,6.36-.21,6.18,6.18,0,0,1,2.08,1.15,5.34,5.34,0,0,1,1.26,1.52,3.58,3.58,0,0,1,.46,1.59.52.52,0,0,1-.13.36.51.51,0,0,1-.39.17H52.32a1,1,0,0,1-.4-.1.73.73,0,0,1-.32-.38,2.08,2.08,0,0,0-1-1.32,3.73,3.73,0,0,0-2.12-.55,4.12,4.12,0,0,0-2.18.5,1.68,1.68,0,0,0-.82,1.55,1.71,1.71,0,0,0,.41,1.16,3.37,3.37,0,0,0,1.33.81,21,21,0,0,0,2.41.75,18.29,18.29,0,0,1,3.47,1.1,4.62,4.62,0,0,1,2,1.59,4.44,4.44,0,0,1,.62,2.44,4.51,4.51,0,0,1-.88,2.81,5.77,5.77,0,0,1-2.49,1.79A10.37,10.37,0,0,1,48.62,45.48Z"
                fill="#0c0a10" opacity="0.75" />
            <path
                d="M62.07,45.48A5.33,5.33,0,0,1,59.72,45a4.27,4.27,0,0,1-1.66-1.38,3.23,3.23,0,0,1-.61-1.93,3.28,3.28,0,0,1,1.41-2.79,8.44,8.44,0,0,1,3.74-1.39L66,37v-.52a2,2,0,0,0-2.32-2.2,2.65,2.65,0,0,0-1.46.36,2.17,2.17,0,0,0-.84,1,.65.65,0,0,1-.58.33h-2a.51.51,0,0,1-.41-.15.54.54,0,0,1-.14-.4,2.46,2.46,0,0,1,.32-1,3.81,3.81,0,0,1,1-1.11,5.66,5.66,0,0,1,1.68-.91A7.2,7.2,0,0,1,63.72,32a8,8,0,0,1,2.67.39,4.51,4.51,0,0,1,1.73,1,3.84,3.84,0,0,1,.95,1.52,5.69,5.69,0,0,1,.3,1.85v7.85a.58.58,0,0,1-.6.6h-2a.59.59,0,0,1-.44-.17.6.6,0,0,1-.16-.43v-1a3.86,3.86,0,0,1-.88.88,4.61,4.61,0,0,1-1.33.68A6.12,6.12,0,0,1,62.07,45.48Zm.85-2.37a3.34,3.34,0,0,0,1.59-.38,2.7,2.7,0,0,0,1.13-1.16,4.35,4.35,0,0,0,.41-2v-.52l-2.5.4a5.38,5.38,0,0,0-2.2.72,1.46,1.46,0,0,0-.73,1.23,1.38,1.38,0,0,0,.34.93,2.08,2.08,0,0,0,.86.58A3.39,3.39,0,0,0,62.92,43.11Z"
                fill="#0c0a10" opacity="0.75" />
            <path
                d="M73.17,45.23a.59.59,0,0,1-.42-.17.58.58,0,0,1-.18-.43V32.83a.62.62,0,0,1,.6-.6h2a.58.58,0,0,1,.43.18.59.59,0,0,1,.17.42v1A5.12,5.12,0,0,1,80,32a5,5,0,0,1,2.65.69,4.56,4.56,0,0,1,1.74,1.94,6.86,6.86,0,0,1,.61,3v7a.58.58,0,0,1-.18.43.59.59,0,0,1-.42.17H82.2a.58.58,0,0,1-.6-.6V37.76a3.4,3.4,0,0,0-.71-2.28,2.6,2.6,0,0,0-2.07-.82,2.7,2.7,0,0,0-2.07.82A3.19,3.19,0,0,0,76,37.76v6.87a.58.58,0,0,1-.6.6Z"
                fill="#0c0a10" opacity="0.75" />
            <path
                d="M94.82,45.23a.64.64,0,0,1-.45-.17.61.61,0,0,1-.17-.43V28.36a.6.6,0,0,1,.62-.63h2a.65.65,0,0,1,.52.19,1.4,1.4,0,0,1,.23.29l4.82,9,4.88-9a1.28,1.28,0,0,1,.22-.29.67.67,0,0,1,.53-.19h2a.6.6,0,0,1,.62.63V44.63a.61.61,0,0,1-.17.43.64.64,0,0,1-.45.17h-2.1a.59.59,0,0,1-.44-.17.6.6,0,0,1-.16-.43V33.81l-3.5,6.67a1.37,1.37,0,0,1-.33.39.79.79,0,0,1-.52.16h-1a.76.76,0,0,1-.53-.16,1.52,1.52,0,0,1-.32-.39l-3.5-6.67V44.63a.58.58,0,0,1-.6.6Z"
                fill="#0c0a10" opacity="0.75" />
            <path
                d="M114.67,30.08a.6.6,0,0,1-.44-.16.62.62,0,0,1-.16-.44v-1.8a.63.63,0,0,1,.16-.42.57.57,0,0,1,.44-.18H117a.61.61,0,0,1,.45.18.59.59,0,0,1,.17.42v1.8a.59.59,0,0,1-.17.44.64.64,0,0,1-.45.16Zm.1,15.15a.59.59,0,0,1-.42-.17.58.58,0,0,1-.18-.43V32.83a.62.62,0,0,1,.6-.6h2.08a.57.57,0,0,1,.44.18.63.63,0,0,1,.16.42v11.8a.65.65,0,0,1-.16.43.6.6,0,0,1-.44.17Z"
                fill="#0c0a10" opacity="0.75" />
            <path
                d="M126.65,50.73a8.21,8.21,0,0,1-3-.47,5.48,5.48,0,0,1-1.85-1.15,4.65,4.65,0,0,1-1-1.34,3.54,3.54,0,0,1-.31-1,.56.56,0,0,1,.16-.44.64.64,0,0,1,.44-.18h2.18a.63.63,0,0,1,.4.11.82.82,0,0,1,.25.41,4.71,4.71,0,0,0,.4.7,2,2,0,0,0,.76.64,3.19,3.19,0,0,0,1.41.26,4.14,4.14,0,0,0,1.6-.27,2,2,0,0,0,1-.93,4,4,0,0,0,.34-1.8v-1.7a4.46,4.46,0,0,1-1.54,1.18,5.35,5.35,0,0,1-2.31.45,5.7,5.7,0,0,1-2.33-.44,4.31,4.31,0,0,1-1.62-1.23,5.19,5.19,0,0,1-1-1.86,9.11,9.11,0,0,1-.39-2.37q0-.67,0-1.35a9.46,9.46,0,0,1,.38-2.33,5.49,5.49,0,0,1,1-1.89,4.63,4.63,0,0,1,1.64-1.26A5.53,5.53,0,0,1,125.6,32a4.89,4.89,0,0,1,2.4.54,5.13,5.13,0,0,1,1.6,1.34v-1a.61.61,0,0,1,.17-.45.58.58,0,0,1,.43-.18h2a.58.58,0,0,1,.43.18.61.61,0,0,1,.17.45l0,12a6.66,6.66,0,0,1-.68,3.1,4.72,4.72,0,0,1-2,2A7.53,7.53,0,0,1,126.65,50.73Zm-.13-8.22a2.74,2.74,0,0,0,1.65-.45,2.65,2.65,0,0,0,.93-1.18,4.78,4.78,0,0,0,.35-1.47c0-.22,0-.49,0-.83s0-.6,0-.8a4.83,4.83,0,0,0-.35-1.49,2.79,2.79,0,0,0-.93-1.17,2.67,2.67,0,0,0-1.65-.46,2.71,2.71,0,0,0-1.65.46,2.58,2.58,0,0,0-.89,1.21,6.45,6.45,0,0,0-.31,1.65,8.42,8.42,0,0,0,0,1.23,6.46,6.46,0,0,0,.31,1.63,2.51,2.51,0,0,0,.89,1.22A2.78,2.78,0,0,0,126.52,42.51Z"
                fill="#0c0a10" opacity="0.75" />
            <path
                d="M141,45.48a4.9,4.9,0,0,1-2.64-.69,4.41,4.41,0,0,1-1.71-1.95,6.86,6.86,0,0,1-.6-3v-7a.59.59,0,0,1,.17-.42.58.58,0,0,1,.43-.18h2.2a.54.54,0,0,1,.43.18.59.59,0,0,1,.17.42v6.88c0,2.06.91,3.1,2.72,3.1a2.65,2.65,0,0,0,2.06-.83,3.22,3.22,0,0,0,.77-2.27V32.83a.59.59,0,0,1,.17-.42.58.58,0,0,1,.43-.18h2.2a.62.62,0,0,1,.6.6v11.8a.58.58,0,0,1-.18.43.59.59,0,0,1-.42.17h-2a.6.6,0,0,1-.44-.17.65.65,0,0,1-.16-.43v-1A4.83,4.83,0,0,1,143.5,45,5.62,5.62,0,0,1,141,45.48Z"
                fill="#0c0a10" opacity="0.75" />
            <path
                d="M157.3,45.48a6,6,0,0,1-4.4-1.6,6.45,6.45,0,0,1-1.75-4.55,5.48,5.48,0,0,1,0-.64,4.93,4.93,0,0,1,0-.61,7.34,7.34,0,0,1,.86-3.25,5.29,5.29,0,0,1,2.11-2.11A6.55,6.55,0,0,1,157.3,32a6.42,6.42,0,0,1,3.4.84,5.3,5.3,0,0,1,2.07,2.32,8,8,0,0,1,.7,3.44v.53a.59.59,0,0,1-.17.42.61.61,0,0,1-.45.18h-8.3v.2a4.45,4.45,0,0,0,.33,1.61,2.82,2.82,0,0,0,.93,1.19,2.41,2.41,0,0,0,1.46.45,2.76,2.76,0,0,0,1.18-.22,3,3,0,0,0,.77-.48,5.19,5.19,0,0,0,.43-.45,1.39,1.39,0,0,1,.36-.37,1.07,1.07,0,0,1,.41-.06h2.15a.56.56,0,0,1,.41.15.42.42,0,0,1,.14.38,2,2,0,0,1-.41,1,4.9,4.9,0,0,1-1.11,1.13,6.45,6.45,0,0,1-1.82.91A7.85,7.85,0,0,1,157.3,45.48Zm-2.75-7.87h5.52v-.08a4.26,4.26,0,0,0-.32-1.7,2.82,2.82,0,0,0-.95-1.15,2.64,2.64,0,0,0-1.5-.42,2.6,2.6,0,0,0-1.5.42,2.65,2.65,0,0,0-.94,1.15,4.26,4.26,0,0,0-.31,1.7Z"
                fill="#0c0a10" opacity="0.75" />
            <path
                d="M166.75,45.23a.58.58,0,0,1-.6-.6V28.08a.59.59,0,0,1,.17-.42.58.58,0,0,1,.43-.18h2.07a.58.58,0,0,1,.43.18.59.59,0,0,1,.17.42V44.63a.58.58,0,0,1-.6.6Z"
                fill="#0c0a10" opacity="0.75" />
            <path
                d="M185.52,45.48a8.73,8.73,0,0,1-3.94-.81,5.71,5.71,0,0,1-2.46-2.33,8.08,8.08,0,0,1-1-3.63c0-.69,0-1.42,0-2.2s0-1.54,0-2.25a8.19,8.19,0,0,1,1-3.63,5.84,5.84,0,0,1,2.48-2.34,8.63,8.63,0,0,1,3.91-.81,9.63,9.63,0,0,1,3,.45,6.94,6.94,0,0,1,2.3,1.24A5.68,5.68,0,0,1,192.35,31a5.31,5.31,0,0,1,.55,2.27.45.45,0,0,1-.14.38.56.56,0,0,1-.39.15H190a.69.69,0,0,1-.45-.14.78.78,0,0,1-.25-.46A3.46,3.46,0,0,0,187.92,31a4.55,4.55,0,0,0-2.42-.6,3.78,3.78,0,0,0-2.68.93,4.3,4.3,0,0,0-1.07,3.09q-.08,2.05,0,4.2a4.28,4.28,0,0,0,1.07,3.09,3.79,3.79,0,0,0,2.68.94,4.46,4.46,0,0,0,2.42-.62,3.46,3.46,0,0,0,1.38-2.23.62.62,0,0,1,.7-.6h2.37a.56.56,0,0,1,.39.15.43.43,0,0,1,.14.37,5.32,5.32,0,0,1-.55,2.28,5.64,5.64,0,0,1-1.48,1.83,6.94,6.94,0,0,1-2.3,1.24A9.63,9.63,0,0,1,185.52,45.48Z"
                fill="#0c0a10" opacity="0.75" />
            <path
                d="M201.32,45.48a7.26,7.26,0,0,1-3.36-.7,4.83,4.83,0,0,1-2.08-2,7,7,0,0,1-.81-3c0-.3,0-.66,0-1.1s0-.8,0-1.1a6.7,6.7,0,0,1,.84-3,5,5,0,0,1,2.1-2,8.18,8.18,0,0,1,6.62,0,5,5,0,0,1,2.1,2,6.7,6.7,0,0,1,.84,3c0,.3,0,.67,0,1.1s0,.8,0,1.1a7,7,0,0,1-.81,3,4.83,4.83,0,0,1-2.08,2A7.26,7.26,0,0,1,201.32,45.48Zm0-2.47a2.56,2.56,0,0,0,2.05-.84,4,4,0,0,0,.8-2.46c0-.25,0-.58,0-1s0-.72,0-1a4,4,0,0,0-.8-2.45,2.9,2.9,0,0,0-4.1,0,4,4,0,0,0-.8,2.45c0,.25,0,.57,0,1s0,.73,0,1a4,4,0,0,0,.8,2.46A2.56,2.56,0,0,0,201.32,43Z"
                fill="#0c0a10" opacity="0.75" />
            <path
                d="M215.2,45.48a4.9,4.9,0,0,1-2.64-.69,4.41,4.41,0,0,1-1.71-1.95,6.86,6.86,0,0,1-.6-3v-7a.55.55,0,0,1,.17-.42.58.58,0,0,1,.43-.18h2.2a.54.54,0,0,1,.43.18.59.59,0,0,1,.17.42v6.88c0,2.06.9,3.1,2.72,3.1a2.65,2.65,0,0,0,2.06-.83,3.22,3.22,0,0,0,.77-2.27V32.83a.55.55,0,0,1,.17-.42.58.58,0,0,1,.43-.18H222a.58.58,0,0,1,.42.18.56.56,0,0,1,.18.42v11.8a.58.58,0,0,1-.18.43.61.61,0,0,1-.42.17h-2a.6.6,0,0,1-.44-.17.65.65,0,0,1-.16-.43v-1A4.83,4.83,0,0,1,217.7,45,5.62,5.62,0,0,1,215.2,45.48Z"
                fill="#0c0a10" opacity="0.75" />
            <path
                d="M226.5,45.23a.61.61,0,0,1-.43-.17.57.57,0,0,1-.17-.43V32.83a.55.55,0,0,1,.17-.42.58.58,0,0,1,.43-.18h2.05a.58.58,0,0,1,.42.18.56.56,0,0,1,.18.42v1a5.16,5.16,0,0,1,1.66-1.34,5.27,5.27,0,0,1,2.51-.54,5,5,0,0,1,2.65.69,4.56,4.56,0,0,1,1.74,1.94,6.72,6.72,0,0,1,.61,3v7a.58.58,0,0,1-.6.6h-2.2a.57.57,0,0,1-.42-.17.58.58,0,0,1-.18-.43V37.76a3.4,3.4,0,0,0-.71-2.28,2.58,2.58,0,0,0-2.06-.82,2.72,2.72,0,0,0-2.08.82,3.18,3.18,0,0,0-.77,2.28v6.87a.58.58,0,0,1-.18.43.61.61,0,0,1-.42.17Z"
                fill="#0c0a10" opacity="0.75" />
            <path
                d="M247.22,45.23a5.47,5.47,0,0,1-2.52-.52,3.28,3.28,0,0,1-1.53-1.57,6,6,0,0,1-.5-2.58V34.88h-2a.61.61,0,0,1-.43-.17.57.57,0,0,1-.17-.43V32.83a.55.55,0,0,1,.17-.42.58.58,0,0,1,.43-.18h2V28.08a.58.58,0,0,1,.16-.42.57.57,0,0,1,.44-.18h2a.58.58,0,0,1,.42.18.56.56,0,0,1,.18.42v4.15H249a.58.58,0,0,1,.43.18.59.59,0,0,1,.17.42v1.45a.58.58,0,0,1-.6.6H245.9v5.43a3,3,0,0,0,.36,1.6,1.37,1.37,0,0,0,1.26.57h1.73a.58.58,0,0,1,.42.18.56.56,0,0,1,.18.42v1.55a.58.58,0,0,1-.18.43.61.61,0,0,1-.42.17Z"
                fill="#0c0a10" opacity="0.75" />
            <path
                d="M254.42,50a.49.49,0,0,1-.35-.15.47.47,0,0,1-.15-.35,1.21,1.21,0,0,1,0-.19.81.81,0,0,1,.09-.21L256,44.46l-4.8-11.33a1,1,0,0,1-.1-.35.7.7,0,0,1,.18-.39.51.51,0,0,1,.37-.16h2a.61.61,0,0,1,.45.15,1,1,0,0,1,.22.33l3.33,8.17,3.42-8.17a.82.82,0,0,1,.23-.34.65.65,0,0,1,.45-.14h2a.53.53,0,0,1,.36.15.46.46,0,0,1,.16.35,1.05,1.05,0,0,1-.1.4L257.1,49.51a1.2,1.2,0,0,1-.25.33.61.61,0,0,1-.45.14Z"
                fill="#0c0a10" opacity="0.75" />
            <text transform="translate(40.87 78.86)" font-size="22" fill="#0c0a10"
                font-family="SofiaPro-Light, Sofia Pro" font-weight="300" opacity="0.75">Wild <tspan
                    x="49.06" y="0" letter-spacing="0em">B</tspan><tspan x="62.79" y="0">i</tspan><tspan
                    x="67.72" y="0" letter-spacing="-0.03em">r</tspan><tspan x="75.39" y="0">ds: </tspan><tspan
                    x="109.47" y="0" font-family="SofiaPro-Bold, Sofia Pro" font-weight="700"
                    letter-spacing="0em">4 </tspan><tspan x="127.86" y="0"
                    font-family="SofiaPro-Bold, Sofia Pro" font-weight="700"
                    letter-spacing="-0.01em">C</tspan><tspan x="143.11" y="0"
                    font-family="SofiaPro-Bold, Sofia Pro" font-weight="700">ases</tspan></text>
            <path
                d="M42.39,119.76a.33.33,0,0,1-.22-.08.29.29,0,0,1-.08-.21V111a.29.29,0,0,1,.08-.22.29.29,0,0,1,.22-.08h.32a.3.3,0,0,1,.2.06.48.48,0,0,1,.08.11l2.95,5.74,3-5.74.09-.11a.23.23,0,0,1,.18-.06h.32a.27.27,0,0,1,.22.08.29.29,0,0,1,.08.22v8.51a.29.29,0,0,1-.08.21.31.31,0,0,1-.22.08h-.24a.32.32,0,0,1-.21-.08.28.28,0,0,1-.07-.21v-7l-2.49,4.89a.36.36,0,0,1-.15.19.46.46,0,0,1-.25.07h-.29a.43.43,0,0,1-.24-.07.51.51,0,0,1-.16-.19l-2.48-4.89v7a.27.27,0,0,1-.29.29Z"
                fill="#0c0a10" opacity="0.75" />
            <path
                d="M53.88,119.89a2.59,2.59,0,0,1-1.15-.26,2.26,2.26,0,0,1-.85-.7,1.57,1.57,0,0,1-.33-1,1.66,1.66,0,0,1,.72-1.41,3.81,3.81,0,0,1,1.86-.69l2-.29v-.45a1.42,1.42,0,0,0-.42-1.09,1.94,1.94,0,0,0-1.35-.4,2,2,0,0,0-1.09.27,1.34,1.34,0,0,0-.57.7.24.24,0,0,1-.25.19h-.21a.29.29,0,0,1-.22-.08.37.37,0,0,1-.06-.21,1,1,0,0,1,.14-.45,2,2,0,0,1,.42-.54,2.21,2.21,0,0,1,.74-.45,3,3,0,0,1,1.1-.18,3.3,3.3,0,0,1,1.27.21,2.08,2.08,0,0,1,.78.54,1.94,1.94,0,0,1,.4.73,2.74,2.74,0,0,1,.11.79v4.33a.28.28,0,0,1-.07.21.32.32,0,0,1-.21.08h-.22a.27.27,0,0,1-.29-.29v-.61a2.1,2.1,0,0,1-.44.47,2.46,2.46,0,0,1-.74.4A3.24,3.24,0,0,1,53.88,119.89Zm.13-.75a2.34,2.34,0,0,0,1.09-.26,2,2,0,0,0,.79-.8,2.91,2.91,0,0,0,.29-1.36v-.44l-1.68.23a4,4,0,0,0-1.61.49,1,1,0,0,0-.54.89,1,1,0,0,0,.24.7,1.6,1.6,0,0,0,.63.41A2.39,2.39,0,0,0,54,119.14Z"
                fill="#0c0a10" opacity="0.75" />
            <path
                d="M60.06,122.23a.29.29,0,0,1-.19-.08.24.24,0,0,1-.07-.18.41.41,0,0,1,0-.11,1.16,1.16,0,0,0,.06-.15l1-2.34-2.48-5.85a1.07,1.07,0,0,1-.08-.26.27.27,0,0,1,.26-.26h.28a.32.32,0,0,1,.2.06.31.31,0,0,1,.1.13l2.18,5.15,2.24-5.15a.41.41,0,0,1,.1-.13.27.27,0,0,1,.19-.06h.26a.29.29,0,0,1,.19.08.24.24,0,0,1,.07.18.9.9,0,0,1-.07.26L60.61,122a.36.36,0,0,1-.1.14.27.27,0,0,1-.19.06Z"
                fill="#0c0a10" opacity="0.75" />
            <path
                d="M71.37,119.76a.27.27,0,0,1-.29-.29v-7.75l-2.33,1.8a.29.29,0,0,1-.21.06.23.23,0,0,1-.19-.11l-.14-.18a.28.28,0,0,1-.07-.22.28.28,0,0,1,.12-.19L71,110.75a.44.44,0,0,1,.17-.08h.41a.25.25,0,0,1,.21.08.29.29,0,0,1,.08.21v8.52a.27.27,0,0,1-.29.29Z"
                fill="#0c0a10" opacity="0.75" />
            <path
                d="M77,119.89a3.39,3.39,0,0,1-1.48-.29,2.51,2.51,0,0,1-1-.78,3.24,3.24,0,0,1-.51-1.15,6.12,6.12,0,0,1-.18-1.37c0-.23,0-.47,0-.71s0-.49,0-.74,0-.49,0-.73a5.59,5.59,0,0,1,.17-1.37,3.44,3.44,0,0,1,.52-1.15,2.51,2.51,0,0,1,1-.78,3.9,3.9,0,0,1,3,0,2.51,2.51,0,0,1,.95.78,3.44,3.44,0,0,1,.52,1.15,6.12,6.12,0,0,1,.18,1.37c0,.24,0,.48,0,.73v.74c0,.24,0,.48,0,.71a6.12,6.12,0,0,1-.18,1.37,3.44,3.44,0,0,1-.52,1.15,2.51,2.51,0,0,1-.95.78A3.38,3.38,0,0,1,77,119.89Zm0-.78a2,2,0,0,0,1.71-.77,3.66,3.66,0,0,0,.59-2.1c0-.26,0-.49,0-.71v-.67c0-.22,0-.44,0-.68a3.7,3.7,0,0,0-.59-2.09,2.26,2.26,0,0,0-3.42,0,3.62,3.62,0,0,0-.6,2.09v.68c0,.23,0,.45,0,.67v.71a3.59,3.59,0,0,0,.6,2.1A2,2,0,0,0,77,119.11Z"
                fill="#0c0a10" opacity="0.75" />
            <path
                d="M81.66,120.73a.16.16,0,0,1-.15-.07.33.33,0,0,1,0-.2l.25-1.56a.57.57,0,0,1,.09-.25.26.26,0,0,1,.23-.1h.59a.16.16,0,0,1,.14.07.24.24,0,0,1,0,.14.64.64,0,0,1,0,.23l-.56,1.47a.53.53,0,0,1-.12.2.29.29,0,0,1-.22.07Z"
                fill="#0c0a10" opacity="0.75" />
            <path
                d="M88.11,119.76a.27.27,0,0,1-.29-.29v-.19a.63.63,0,0,1,.07-.26,2,2,0,0,1,.26-.29l3.37-3.36a7.25,7.25,0,0,0,.75-.8,2.2,2.2,0,0,0,.36-.67,2.75,2.75,0,0,0,.09-.73,1.82,1.82,0,0,0-.5-1.37,1.91,1.91,0,0,0-1.42-.49,2.12,2.12,0,0,0-1,.23,1.73,1.73,0,0,0-.68.66,2.69,2.69,0,0,0-.32,1,.29.29,0,0,1-.12.23.32.32,0,0,1-.18.07h-.26a.28.28,0,0,1-.21-.07.29.29,0,0,1-.07-.18,3.06,3.06,0,0,1,.18-.91,2.92,2.92,0,0,1,.52-.88,2.58,2.58,0,0,1,.88-.66,3.44,3.44,0,0,1,2.86.13,2.16,2.16,0,0,1,.88,1,3.24,3.24,0,0,1,.12,2.27,3.36,3.36,0,0,1-.47.87,6.76,6.76,0,0,1-.79.87l-3,3.09h4.36a.31.31,0,0,1,.22.08.29.29,0,0,1,.08.22v.19a.29.29,0,0,1-.08.21.31.31,0,0,1-.22.08Z"
                fill="#0c0a10" opacity="0.75" />
            <path
                d="M98.43,119.89A3.35,3.35,0,0,1,97,119.6a2.44,2.44,0,0,1-.95-.78,3.44,3.44,0,0,1-.52-1.15,7.54,7.54,0,0,1-.18-1.37c0-.23,0-.47,0-.71v-.74c0-.25,0-.49,0-.73a6.12,6.12,0,0,1,.18-1.37A3.44,3.44,0,0,1,96,111.6a2.44,2.44,0,0,1,.95-.78,3.21,3.21,0,0,1,1.47-.29,3.28,3.28,0,0,1,1.48.29,2.51,2.51,0,0,1,1,.78,3.65,3.65,0,0,1,.52,1.15,6.76,6.76,0,0,1,.17,1.37c0,.24,0,.48,0,.73v.74c0,.24,0,.48,0,.71a6.76,6.76,0,0,1-.17,1.37,3.65,3.65,0,0,1-.52,1.15,2.51,2.51,0,0,1-1,.78A3.42,3.42,0,0,1,98.43,119.89Zm0-.78a2,2,0,0,0,1.72-.77,3.66,3.66,0,0,0,.58-2.1c0-.26,0-.49,0-.71v-.67c0-.22,0-.44,0-.68a3.7,3.7,0,0,0-.58-2.09,2.28,2.28,0,0,0-3.43,0,3.62,3.62,0,0,0-.59,2.09c0,.24,0,.46,0,.68v.67c0,.22,0,.45,0,.71a3.59,3.59,0,0,0,.59,2.1A2,2,0,0,0,98.43,119.11Z"
                fill="#0c0a10" opacity="0.75" />
            <path
                d="M103.4,119.76a.27.27,0,0,1-.29-.29v-.19a.51.51,0,0,1,.07-.26,1.51,1.51,0,0,1,.26-.29l3.36-3.36a7.48,7.48,0,0,0,.76-.8,2,2,0,0,0,.35-.67,2.39,2.39,0,0,0,.1-.73,1.82,1.82,0,0,0-.5-1.37,1.93,1.93,0,0,0-1.42-.49,2.19,2.19,0,0,0-1,.23,1.77,1.77,0,0,0-.67.66,2.7,2.7,0,0,0-.33,1,.28.28,0,0,1-.11.23.32.32,0,0,1-.19.07h-.26a.27.27,0,0,1-.2-.07.24.24,0,0,1-.07-.18,3.06,3.06,0,0,1,.18-.91,2.92,2.92,0,0,1,.52-.88,2.64,2.64,0,0,1,.87-.66,3,3,0,0,1,1.28-.25,2.88,2.88,0,0,1,1.59.38,2.22,2.22,0,0,1,.88,1,3.24,3.24,0,0,1,.12,2.27,3.36,3.36,0,0,1-.47.87,6.9,6.9,0,0,1-.8.87l-3,3.09h4.36a.31.31,0,0,1,.22.08.29.29,0,0,1,.08.22v.19a.29.29,0,0,1-.08.21.31.31,0,0,1-.22.08Z"
                fill="#0c0a10" opacity="0.75" />
            <path
                d="M114.84,119.76a.27.27,0,0,1-.29-.29v-2h-4.29a.3.3,0,0,1-.21-.08.28.28,0,0,1-.07-.21v-.2a.58.58,0,0,1,0-.15.68.68,0,0,1,.12-.24l3.95-5.66a.53.53,0,0,1,.48-.22h.53a.25.25,0,0,1,.21.08.29.29,0,0,1,.08.21v5.69h1.18a.27.27,0,0,1,.29.29v.2a.27.27,0,0,1-.29.29h-1.18v2a.27.27,0,0,1-.29.29ZM111,116.64h3.55v-5.06Z"
                fill="#0c0a10" opacity="0.75" />
            <path
                d="M121.9,116.24a.27.27,0,0,1-.29-.29v-.18a.27.27,0,0,1,.29-.29h3.83a.27.27,0,0,1,.29.29V116a.27.27,0,0,1-.29.29Z"
                fill="#0c0a10" opacity="0.75" />
            <path
                d="M134.08,119.89a4.2,4.2,0,0,1-1.2-.16,2.85,2.85,0,0,1-1-.48,2.3,2.3,0,0,1-.69-.82,2.9,2.9,0,0,1-.28-1.19.27.27,0,0,1,.07-.2.24.24,0,0,1,.2-.09h.26a.25.25,0,0,1,.2.08.34.34,0,0,1,.09.19,1.93,1.93,0,0,0,.38,1.1,1.86,1.86,0,0,0,.85.6,3.08,3.08,0,0,0,1.11.19,2.06,2.06,0,0,0,1.73-.75,3,3,0,0,0,.59-1.93v-5h-4.79a.27.27,0,0,1-.29-.29V111a.29.29,0,0,1,.08-.21.25.25,0,0,1,.21-.08h5.31a.3.3,0,0,1,.23.08.29.29,0,0,1,.07.22v5.48a4.25,4.25,0,0,1-.36,1.8,2.78,2.78,0,0,1-1.06,1.21A3.18,3.18,0,0,1,134.08,119.89Z"
                fill="#0c0a10" opacity="0.75" />
            <path
                d="M141.89,119.89a2.62,2.62,0,0,1-1.46-.38,2.33,2.33,0,0,1-.86-1.05,3.72,3.72,0,0,1-.28-1.48v-3.69a.27.27,0,0,1,.29-.29h.22a.28.28,0,0,1,.2.08.25.25,0,0,1,.08.21v3.62c0,1.48.65,2.23,1.94,2.23a1.91,1.91,0,0,0,1.48-.6,2.27,2.27,0,0,0,.56-1.63v-3.62a.27.27,0,0,1,.29-.29h.22a.32.32,0,0,1,.21.08.28.28,0,0,1,.07.21v6.18a.28.28,0,0,1-.07.21.32.32,0,0,1-.21.08h-.22a.27.27,0,0,1-.29-.29v-.61a2.7,2.7,0,0,1-.84.74A2.62,2.62,0,0,1,141.89,119.89Z"
                fill="#0c0a10" opacity="0.75" />
            <path
                d="M147.25,119.76a.27.27,0,0,1-.29-.29v-6.18a.27.27,0,0,1,.29-.29h.22a.28.28,0,0,1,.2.08.25.25,0,0,1,.08.21v.61a2.86,2.86,0,0,1,.85-.74,2.72,2.72,0,0,1,1.34-.29,2.67,2.67,0,0,1,1.47.38,2.43,2.43,0,0,1,.89,1,3.74,3.74,0,0,1,.29,1.49v3.69a.27.27,0,0,1-.29.29h-.22a.32.32,0,0,1-.21-.08.28.28,0,0,1-.07-.21v-3.62a2.39,2.39,0,0,0-.51-1.63,1.83,1.83,0,0,0-1.48-.6,2,2,0,0,0-1.49.6,2.23,2.23,0,0,0-.57,1.63v3.62a.25.25,0,0,1-.08.21.28.28,0,0,1-.2.08Z"
                fill="#0c0a10" opacity="0.75" />
            <path
                d="M157.14,119.89a2.55,2.55,0,0,1-2-.83,3.51,3.51,0,0,1-.85-2.16c0-.13,0-.3,0-.52s0-.39,0-.52a4,4,0,0,1,.42-1.56,2.53,2.53,0,0,1,1-1,2.76,2.76,0,0,1,1.46-.38,2.84,2.84,0,0,1,1.55.4,2.67,2.67,0,0,1,1,1.16,4.27,4.27,0,0,1,.34,1.79v.2a.3.3,0,0,1-.08.21.32.32,0,0,1-.22.07h-4.63v.13a2.89,2.89,0,0,0,.28,1.12,2.15,2.15,0,0,0,.7.85,1.78,1.78,0,0,0,1.08.34,2.31,2.31,0,0,0,.93-.17,2.87,2.87,0,0,0,.59-.37,2.28,2.28,0,0,0,.29-.31.35.35,0,0,1,.39-.23h.2a.31.31,0,0,1,.21.07.22.22,0,0,1,.07.19,1,1,0,0,1-.2.44,2.48,2.48,0,0,1-.54.53,2.77,2.77,0,0,1-.84.43A3.43,3.43,0,0,1,157.14,119.89ZM155.08,116h4.14v-.06a2.64,2.64,0,0,0-.25-1.17,2,2,0,0,0-.71-.82,2,2,0,0,0-1.12-.31,1.91,1.91,0,0,0-1.11.31,1.93,1.93,0,0,0-.7.82,2.64,2.64,0,0,0-.25,1.17Z"
                fill="#0c0a10" opacity="0.75" />
            <path
                d="M165,119.76a.3.3,0,0,1-.21-.08.29.29,0,0,1-.08-.21v-.19a.52.52,0,0,1,.08-.26,1.39,1.39,0,0,1,.25-.29l3.37-3.36a6.39,6.39,0,0,0,.75-.8,2.2,2.2,0,0,0,.36-.67,2.74,2.74,0,0,0,.1-.73,1.86,1.86,0,0,0-.5-1.37,2,2,0,0,0-1.43-.49,2.12,2.12,0,0,0-1,.23,1.8,1.8,0,0,0-.68.66,2.69,2.69,0,0,0-.32,1,.29.29,0,0,1-.12.23.32.32,0,0,1-.18.07h-.26a.24.24,0,0,1-.2-.07.24.24,0,0,1-.07-.18,2.54,2.54,0,0,1,.18-.91,2.7,2.7,0,0,1,.51-.88,2.58,2.58,0,0,1,.88-.66,3.44,3.44,0,0,1,2.86.13,2.16,2.16,0,0,1,.88,1,3,3,0,0,1-.35,3.14,6.76,6.76,0,0,1-.79.87L166,119h4.35a.28.28,0,0,1,.3.3v.19a.29.29,0,0,1-.08.21.29.29,0,0,1-.22.08Z"
                fill="#0c0a10" opacity="0.75" />
            <path
                d="M175,119.89a3.45,3.45,0,0,1-1.61-.35,2.74,2.74,0,0,1-1-.9,2.31,2.31,0,0,1-.38-1.16.2.2,0,0,1,.06-.18.34.34,0,0,1,.2-.06h.25a.37.37,0,0,1,.18.05.37.37,0,0,1,.14.25,2,2,0,0,0,.48.91,1.87,1.87,0,0,0,.77.5,2.57,2.57,0,0,0,.91.16,2.63,2.63,0,0,0,1.16-.26,2,2,0,0,0,.84-.77,2.29,2.29,0,0,0,.31-1.23,2,2,0,0,0-.31-1.15,2.05,2.05,0,0,0-.84-.73,2.63,2.63,0,0,0-1.16-.25,2.21,2.21,0,0,0-.79.11,1.81,1.81,0,0,0-.52.28l-.38.27a.64.64,0,0,1-.38.12h-.23a.29.29,0,0,1-.21-.09.23.23,0,0,1-.08-.2l.39-4.25a.34.34,0,0,1,.09-.22.22.22,0,0,1,.2-.08h4.24a.24.24,0,0,1,.2.08.25.25,0,0,1,.08.21v.2a.25.25,0,0,1-.08.21.28.28,0,0,1-.2.08h-3.74l-.27,2.94a5.66,5.66,0,0,1,.55-.27,2.83,2.83,0,0,1,1.13-.18,3.93,3.93,0,0,1,1.21.19,3.32,3.32,0,0,1,1,.56,2.54,2.54,0,0,1,.67.91,3.08,3.08,0,0,1,.24,1.26,3.16,3.16,0,0,1-.42,1.69,2.62,2.62,0,0,1-1.13,1A3.55,3.55,0,0,1,175,119.89Z"
                fill="#0c0a10" opacity="0.75" />
            <path
                d="M179.55,120.73a.16.16,0,0,1-.15-.07.33.33,0,0,1,0-.2l.25-1.56a.57.57,0,0,1,.09-.25.26.26,0,0,1,.23-.1h.59a.16.16,0,0,1,.14.07.24.24,0,0,1,.05.14.64.64,0,0,1-.05.23l-.56,1.47a.7.7,0,0,1-.12.2.29.29,0,0,1-.22.07Z"
                fill="#0c0a10" opacity="0.75" />
            <path
                d="M186,119.76a.27.27,0,0,1-.29-.29v-.19a.63.63,0,0,1,.07-.26,2,2,0,0,1,.26-.29l3.36-3.36a6.59,6.59,0,0,0,.76-.8,2.2,2.2,0,0,0,.36-.67,2.75,2.75,0,0,0,.09-.73,1.82,1.82,0,0,0-.5-1.37,1.93,1.93,0,0,0-1.42-.49,2.12,2.12,0,0,0-1,.23,1.73,1.73,0,0,0-.68.66,2.91,2.91,0,0,0-.33,1,.26.26,0,0,1-.11.23.32.32,0,0,1-.18.07h-.26a.28.28,0,0,1-.21-.07.29.29,0,0,1-.07-.18,3.06,3.06,0,0,1,.18-.91,2.92,2.92,0,0,1,.52-.88,2.58,2.58,0,0,1,.88-.66,3.44,3.44,0,0,1,2.86.13,2.16,2.16,0,0,1,.88,1,3.24,3.24,0,0,1,.12,2.27,3.36,3.36,0,0,1-.47.87,6.76,6.76,0,0,1-.79.87L187,119h4.36a.31.31,0,0,1,.22.08.29.29,0,0,1,.08.22v.19a.29.29,0,0,1-.08.21.31.31,0,0,1-.22.08Z"
                fill="#0c0a10" opacity="0.75" />
            <path
                d="M196.32,119.89a3.42,3.42,0,0,1-1.48-.29,2.41,2.41,0,0,1-.94-.78,3.44,3.44,0,0,1-.52-1.15,7.54,7.54,0,0,1-.18-1.37c0-.23,0-.47,0-.71v-.74c0-.25,0-.49,0-.73a6.12,6.12,0,0,1,.18-1.37,3.26,3.26,0,0,1,.52-1.15,2.41,2.41,0,0,1,.94-.78,3.92,3.92,0,0,1,3,0,2.51,2.51,0,0,1,.95.78,3.65,3.65,0,0,1,.52,1.15,6.76,6.76,0,0,1,.17,1.37c0,.24,0,.48,0,.73v.74c0,.24,0,.48,0,.71a6.76,6.76,0,0,1-.17,1.37,3.65,3.65,0,0,1-.52,1.15,2.51,2.51,0,0,1-.95.78A3.42,3.42,0,0,1,196.32,119.89Zm0-.78a2,2,0,0,0,1.72-.77,3.66,3.66,0,0,0,.58-2.1c0-.26,0-.49,0-.71v-.67c0-.22,0-.44,0-.68a3.7,3.7,0,0,0-.58-2.09,2.28,2.28,0,0,0-3.43,0,3.62,3.62,0,0,0-.59,2.09c0,.24,0,.46,0,.68v.67c0,.22,0,.45,0,.71a3.59,3.59,0,0,0,.59,2.1A2,2,0,0,0,196.32,119.11Z"
                fill="#0c0a10" opacity="0.75" />
            <path
                d="M201.29,119.76a.27.27,0,0,1-.29-.29v-.19a.51.51,0,0,1,.07-.26,1.51,1.51,0,0,1,.26-.29l3.36-3.36a7.48,7.48,0,0,0,.76-.8,2,2,0,0,0,.35-.67,2.39,2.39,0,0,0,.1-.73,1.86,1.86,0,0,0-.5-1.37,1.93,1.93,0,0,0-1.42-.49,2.19,2.19,0,0,0-1,.23,1.77,1.77,0,0,0-.67.66,2.53,2.53,0,0,0-.33,1,.28.28,0,0,1-.11.23.32.32,0,0,1-.19.07h-.26a.27.27,0,0,1-.2-.07.24.24,0,0,1-.07-.18,3.06,3.06,0,0,1,.18-.91,2.92,2.92,0,0,1,.52-.88,2.64,2.64,0,0,1,.87-.66,3,3,0,0,1,1.28-.25,2.88,2.88,0,0,1,1.59.38,2.22,2.22,0,0,1,.88,1,3.11,3.11,0,0,1,.27,1.29,2.84,2.84,0,0,1-.16,1,3.32,3.32,0,0,1-.46.87,6.9,6.9,0,0,1-.8.87l-3,3.09h4.36a.31.31,0,0,1,.22.08.29.29,0,0,1,.08.22v.19a.29.29,0,0,1-.08.21.31.31,0,0,1-.22.08Z"
                fill="#0c0a10" opacity="0.75" />
            <path
                d="M212.73,119.76a.27.27,0,0,1-.29-.29v-2h-4.29a.27.27,0,0,1-.29-.29v-.2a.9.9,0,0,1,0-.15.68.68,0,0,1,.12-.24l4-5.66a.53.53,0,0,1,.48-.22H213a.25.25,0,0,1,.21.08.29.29,0,0,1,.08.21v5.69h1.18a.27.27,0,0,1,.29.29v.2a.27.27,0,0,1-.29.29h-1.18v2a.27.27,0,0,1-.29.29Zm-3.84-3.12h3.55v-5.06Z"
                fill="#0c0a10" opacity="0.75" />
        </g>
    </g>
</svg>