<svg xmlns="http://www.w3.org/2000/svg" viewBox="0 0 352.59 399.32"><g id="Layer_2" data-name="Layer 2"><g id="Layer_5" data-name="Layer 5"><path d="M3.49,26.83A.66.66,0,0,1,3,26.65a.63.63,0,0,1-.21-.48.79.79,0,0,1,.06-.28L10.5,5.52A1.25,1.25,0,0,1,10.87,5a1,1,0,0,1,.74-.23h3.44a1,1,0,0,1,.73.23,1.57,1.57,0,0,1,.37.55l7.61,20.37a1.49,1.49,0,0,1,0,.28.65.65,0,0,1-.19.48.6.6,0,0,1-.44.18H20.42a.87.87,0,0,1-.65-.2,1.06,1.06,0,0,1-.27-.39L18,22.38H8.64L7.16,26.24a1.38,1.38,0,0,1-.27.39.87.87,0,0,1-.65.2Zm6.26-8.08h7.16L13.31,9Z" transform="translate(0 -3.47)" fill="#0c0a10"/><path d="M31.69,26.83a1,1,0,0,1-.75-.23,2.47,2.47,0,0,1-.39-.55L24.65,11.4a.68.68,0,0,1-.07-.29.67.67,0,0,1,.21-.49.7.7,0,0,1,.49-.2h2.56a.73.73,0,0,1,.56.2,1.23,1.23,0,0,1,.26.4L32.85,22.1,37.05,11a1.23,1.23,0,0,1,.26-.4.73.73,0,0,1,.56-.2h2.59a.7.7,0,0,1,.67.69,1.06,1.06,0,0,1,0,.29L35.16,26.05a1.47,1.47,0,0,1-.38.55,1.06,1.06,0,0,1-.76.23Z" transform="translate(0 -3.47)" fill="#0c0a10"/><path d="M45.26,7.7a.77.77,0,0,1-.55-.2A.74.74,0,0,1,44.5,7V4.67a.72.72,0,0,1,.21-.53.71.71,0,0,1,.55-.22h2.87a.74.74,0,0,1,.57.22.69.69,0,0,1,.22.53V7a.71.71,0,0,1-.22.55.81.81,0,0,1-.57.2Zm.13,19.13a.73.73,0,0,1-.54-.22.69.69,0,0,1-.22-.53V11.18a.75.75,0,0,1,.76-.76H48a.71.71,0,0,1,.55.22.76.76,0,0,1,.21.54v14.9a.72.72,0,0,1-.21.53.71.71,0,0,1-.55.22Z" transform="translate(0 -3.47)" fill="#0c0a10"/><path d="M58.36,27.15a6.67,6.67,0,0,1-3-.65,5.38,5.38,0,0,1-2.1-1.73,4.11,4.11,0,0,1-.78-2.45,4.15,4.15,0,0,1,1.79-3.52A10.5,10.5,0,0,1,59,17.05l4.32-.63v-.67a3,3,0,0,0-.66-2.05A3,3,0,0,0,60.42,13a3.4,3.4,0,0,0-1.85.45,2.85,2.85,0,0,0-1.06,1.22.81.81,0,0,1-.72.41h-2.5a.67.67,0,0,1-.52-.19.7.7,0,0,1-.17-.51A3.14,3.14,0,0,1,54,13.13a4.61,4.61,0,0,1,1.2-1.4,7,7,0,0,1,2.11-1.15,9,9,0,0,1,3.13-.48,10.28,10.28,0,0,1,3.36.49A5.78,5.78,0,0,1,66,11.9a4.91,4.91,0,0,1,1.2,1.93,6.9,6.9,0,0,1,.38,2.33v9.92a.69.69,0,0,1-.22.53.73.73,0,0,1-.54.22H64.27a.73.73,0,0,1-.56-.22.76.76,0,0,1-.2-.53V24.85A4.7,4.7,0,0,1,62.4,26a6,6,0,0,1-1.68.85A7.55,7.55,0,0,1,58.36,27.15Zm1.08-3a4.3,4.3,0,0,0,2-.47,3.37,3.37,0,0,0,1.42-1.47,5.34,5.34,0,0,0,.52-2.51V19l-3.15.5a6.77,6.77,0,0,0-2.78.92A1.84,1.84,0,0,0,56.53,22,1.73,1.73,0,0,0,57,23.19a2.51,2.51,0,0,0,1.09.72A4,4,0,0,0,59.44,24.15Z" transform="translate(0 -3.47)" fill="#0c0a10"/><path d="M73,26.83a.69.69,0,0,1-.53-.22.7.7,0,0,1-.23-.53V11.18a.74.74,0,0,1,.23-.54.69.69,0,0,1,.53-.22H75.6a.73.73,0,0,1,.54.22.77.77,0,0,1,.22.54v1.29a6.8,6.8,0,0,1,2.1-1.69,6.73,6.73,0,0,1,3.17-.68A6.31,6.31,0,0,1,85,11a5.8,5.8,0,0,1,2.19,2.45,8.46,8.46,0,0,1,.77,3.79v8.87a.75.75,0,0,1-.75.75H84.41a.73.73,0,0,1-.54-.22.69.69,0,0,1-.22-.53V17.4a4.26,4.26,0,0,0-.9-2.88,3.27,3.27,0,0,0-2.6-1,3.43,3.43,0,0,0-2.62,1,4,4,0,0,0-1,2.88v8.68a.75.75,0,0,1-.76.75Z" transform="translate(0 -3.47)" fill="#0c0a10"/><path d="M101.58,26.83a.75.75,0,0,1-.75-.75V5.49a.75.75,0,0,1,.75-.75h3a.69.69,0,0,1,.55.22.72.72,0,0,1,.21.53V26.08a.72.72,0,0,1-.21.53.69.69,0,0,1-.55.22Z" transform="translate(0 -3.47)" fill="#0c0a10"/><path d="M111.27,26.83a.71.71,0,0,1-.53-.22.69.69,0,0,1-.22-.53V11.18a.73.73,0,0,1,.22-.54.71.71,0,0,1,.53-.22h2.59a.75.75,0,0,1,.76.76v1.29a6.8,6.8,0,0,1,2.1-1.69,6.73,6.73,0,0,1,3.17-.68,6.29,6.29,0,0,1,3.35.87,5.73,5.73,0,0,1,2.19,2.45,8.45,8.45,0,0,1,.78,3.79v8.87a.75.75,0,0,1-.76.75h-2.78a.75.75,0,0,1-.76-.75V17.4a4.26,4.26,0,0,0-.9-2.88,3.25,3.25,0,0,0-2.6-1,3.43,3.43,0,0,0-2.62,1,4.05,4.05,0,0,0-1,2.88v8.68a.69.69,0,0,1-.22.53.73.73,0,0,1-.54.22Z" transform="translate(0 -3.47)" fill="#0c0a10"/><path d="M133.15,26.83a.75.75,0,0,1-.75-.75V13.76h-2.56a.73.73,0,0,1-.54-.22.69.69,0,0,1-.22-.53V11.18a.75.75,0,0,1,.76-.76h2.56V9.12A6.43,6.43,0,0,1,133.09,6a4.47,4.47,0,0,1,2-1.88,8.2,8.2,0,0,1,3.44-.63h1.9a.75.75,0,0,1,.55.22.76.76,0,0,1,.21.54V6.06a.76.76,0,0,1-.21.54.71.71,0,0,1-.55.22h-1.77a2.07,2.07,0,0,0-1.74.63,3,3,0,0,0-.47,1.83v1.14H143V4.23a.73.73,0,0,1,.22-.54.77.77,0,0,1,.54-.22h2.56a.75.75,0,0,1,.55.22.76.76,0,0,1,.2.54V26.08a.72.72,0,0,1-.75.75h-2.56a.73.73,0,0,1-.54-.22.69.69,0,0,1-.22-.53V13.76H136.5V26.08a.69.69,0,0,1-.22.53.73.73,0,0,1-.54.22Z" transform="translate(0 -3.47)" fill="#0c0a10"/><path d="M158,27.15a6.17,6.17,0,0,1-3.33-.87,5.72,5.72,0,0,1-2.17-2.46,8.77,8.77,0,0,1-.75-3.77V11.18a.73.73,0,0,1,.22-.54.69.69,0,0,1,.53-.22h2.78a.73.73,0,0,1,.56.22.8.8,0,0,1,.2.54v8.68q0,3.91,3.44,3.91a3.4,3.4,0,0,0,2.61-1,4.06,4.06,0,0,0,1-2.87V11.18a.75.75,0,0,1,.76-.76h2.77a.75.75,0,0,1,.76.76v14.9a.69.69,0,0,1-.22.53.73.73,0,0,1-.54.22H164a.69.69,0,0,1-.55-.22.72.72,0,0,1-.21-.53v-1.3a6,6,0,0,1-2.12,1.74A7,7,0,0,1,158,27.15Z" transform="translate(0 -3.47)" fill="#0c0a10"/><path d="M179.18,27.15a7.54,7.54,0,0,1-5.55-2,8.19,8.19,0,0,1-2.21-5.75,5.88,5.88,0,0,1,0-.8,5.23,5.23,0,0,1,0-.77,9.26,9.26,0,0,1,1.09-4.11A6.64,6.64,0,0,1,175.17,11a8.28,8.28,0,0,1,4-.93,8.18,8.18,0,0,1,4.3,1.06,6.74,6.74,0,0,1,2.62,2.94,10,10,0,0,1,.88,4.34v.66a.73.73,0,0,1-.22.54.81.81,0,0,1-.57.22H175.71v.25a5.43,5.43,0,0,0,.43,2,3.54,3.54,0,0,0,1.16,1.5,3,3,0,0,0,1.85.56,3.6,3.6,0,0,0,1.48-.26,3.67,3.67,0,0,0,1-.62,3.73,3.73,0,0,0,.54-.57,1.61,1.61,0,0,1,.46-.46,1.38,1.38,0,0,1,.52-.07h2.71a.71.71,0,0,1,.52.19.52.52,0,0,1,.18.47,2.67,2.67,0,0,1-.52,1.23,6.28,6.28,0,0,1-1.41,1.42,7.78,7.78,0,0,1-2.29,1.15A9.74,9.74,0,0,1,179.18,27.15Zm-3.47-9.94h7v-.1a5.32,5.32,0,0,0-.41-2.15,3.49,3.49,0,0,0-1.2-1.45,3.65,3.65,0,0,0-3.79,0A3.33,3.33,0,0,0,176.1,15a5.5,5.5,0,0,0-.39,2.15Z" transform="translate(0 -3.47)" fill="#0c0a10"/><path d="M191.72,26.83a.73.73,0,0,1-.54-.22.69.69,0,0,1-.22-.53V11.18a.75.75,0,0,1,.76-.76h2.58a.75.75,0,0,1,.76.76v1.29a6.8,6.8,0,0,1,2.1-1.69,6.73,6.73,0,0,1,3.17-.68,6.29,6.29,0,0,1,3.35.87,5.73,5.73,0,0,1,2.19,2.45,8.45,8.45,0,0,1,.78,3.79v8.87a.75.75,0,0,1-.76.75h-2.78a.69.69,0,0,1-.53-.22.7.7,0,0,1-.23-.53V17.4a4.21,4.21,0,0,0-.9-2.88,3.24,3.24,0,0,0-2.6-1,3.44,3.44,0,0,0-2.62,1,4.05,4.05,0,0,0-1,2.88v8.68a.69.69,0,0,1-.22.53.73.73,0,0,1-.54.22Z" transform="translate(0 -3.47)" fill="#0c0a10"/><path d="M211.23,26.83a.72.72,0,0,1-.56-.22.76.76,0,0,1-.2-.53v-1.8a1.25,1.25,0,0,1,.14-.56,2.2,2.2,0,0,1,.3-.45L219,13.7h-7.51a.8.8,0,0,1-.54-.2.72.72,0,0,1-.22-.56V11.18a.75.75,0,0,1,.76-.76h12a.72.72,0,0,1,.56.22.8.8,0,0,1,.2.54V13.1a1.07,1.07,0,0,1-.12.51c-.09.14-.19.3-.32.47l-7.89,9.47h8.24a.72.72,0,0,1,.53.21.69.69,0,0,1,.22.55v1.77a.75.75,0,0,1-.75.75Z" transform="translate(0 -3.47)" fill="#0c0a10"/><path d="M233.45,27.15a6.74,6.74,0,0,1-3-.65,5.53,5.53,0,0,1-2.1-1.73,4.34,4.34,0,0,1,1-6,10.55,10.55,0,0,1,4.72-1.75l4.33-.63v-.67a3,3,0,0,0-.66-2.05A3,3,0,0,0,235.5,13a3.39,3.39,0,0,0-1.84.45,2.78,2.78,0,0,0-1.06,1.22.81.81,0,0,1-.73.41h-2.49a.65.65,0,0,1-.52-.19.71.71,0,0,1-.18-.51,3.32,3.32,0,0,1,.41-1.23,4.91,4.91,0,0,1,1.2-1.4,7.18,7.18,0,0,1,2.12-1.15,9,9,0,0,1,3.13-.48,10.28,10.28,0,0,1,3.36.49,5.86,5.86,0,0,1,2.19,1.31,4.91,4.91,0,0,1,1.2,1.93,7.16,7.16,0,0,1,.38,2.33v9.92a.69.69,0,0,1-.22.53.73.73,0,0,1-.54.22h-2.56a.71.71,0,0,1-.55-.22.76.76,0,0,1-.2-.53V24.85A5.1,5.1,0,0,1,237.49,26a5.94,5.94,0,0,1-1.69.85A7.44,7.44,0,0,1,233.45,27.15Zm1.07-3a4.32,4.32,0,0,0,2-.47A3.42,3.42,0,0,0,238,22.21a5.34,5.34,0,0,0,.52-2.51V19l-3.16.5a6.77,6.77,0,0,0-2.77.92,1.84,1.84,0,0,0-.92,1.54,1.73,1.73,0,0,0,.43,1.19,2.46,2.46,0,0,0,1.09.72A4,4,0,0,0,234.52,24.15Z" transform="translate(0 -3.47)" fill="#0c0a10"/><path d="M256.34,26.83a.76.76,0,0,1-.54-.2.75.75,0,0,1-.22-.55V5.52A.77.77,0,0,1,255.8,5a.73.73,0,0,1,.54-.22h2.87a.73.73,0,0,1,.56.22.8.8,0,0,1,.2.56v8.15h9.31V5.52A.77.77,0,0,1,269.5,5a.73.73,0,0,1,.54-.22h2.84a.77.77,0,0,1,.57.22.73.73,0,0,1,.22.56V26.08a.69.69,0,0,1-.22.53.77.77,0,0,1-.57.22H270a.75.75,0,0,1-.76-.75V17.62H260v8.46a.76.76,0,0,1-.2.53.73.73,0,0,1-.56.22Z" transform="translate(0 -3.47)" fill="#0c0a10"/><path d="M286.43,27.18a10.47,10.47,0,0,1-4.58-.9A6.86,6.86,0,0,1,279,23.93a5.92,5.92,0,0,1-1-3.09.48.48,0,0,1,.17-.46.72.72,0,0,1,.49-.17h2.94a1.06,1.06,0,0,1,.58.14.83.83,0,0,1,.36.49,4,4,0,0,0,.9,1.54,3.61,3.61,0,0,0,1.36.89,4.69,4.69,0,0,0,1.63.28,4.55,4.55,0,0,0,2.06-.46,3.59,3.59,0,0,0,1.5-1.37,4.17,4.17,0,0,0,.57-2.24,3.69,3.69,0,0,0-.54-2,3.64,3.64,0,0,0-1.46-1.34,4.46,4.46,0,0,0-2.13-.49,4,4,0,0,0-1.46.22,4.3,4.3,0,0,0-1,.5l-.69.51a1.11,1.11,0,0,1-.68.22h-2.91a.67.67,0,0,1-.49-.21.68.68,0,0,1-.2-.49l1.1-10.79a.86.86,0,0,1,.29-.63.87.87,0,0,1,.6-.22H292.9a.69.69,0,0,1,.53.22.7.7,0,0,1,.23.53V7.61a.79.79,0,0,1-.76.76h-9.13l-.5,5.14a7.38,7.38,0,0,1,1.51-.72,7.7,7.7,0,0,1,2.62-.35,8.44,8.44,0,0,1,2.89.49,7.5,7.5,0,0,1,2.45,1.42,6.8,6.8,0,0,1,1.69,2.24,6.93,6.93,0,0,1,.61,3,7.31,7.31,0,0,1-1.07,4,7.2,7.2,0,0,1-3,2.66A10.2,10.2,0,0,1,286.43,27.18Z" transform="translate(0 -3.47)" fill="#0c0a10"/><path d="M300.19,26.83a.75.75,0,0,1-.76-.75V5.52a.77.77,0,0,1,.22-.56.73.73,0,0,1,.54-.22h2.43a.87.87,0,0,1,.65.2,3.86,3.86,0,0,1,.27.3l9.09,14.14V5.52a.8.8,0,0,1,.2-.56.73.73,0,0,1,.56-.22H316a.75.75,0,0,1,.79.78V26.05a.77.77,0,0,1-.22.56.73.73,0,0,1-.54.22h-2.46a.76.76,0,0,1-.63-.22,1.72,1.72,0,0,0-.29-.28L303.63,12.5V26.08a.69.69,0,0,1-.22.53.77.77,0,0,1-.57.22Z" transform="translate(0 -3.47)" fill="#0c0a10"/><path d="M328.67,26.83a.72.72,0,0,1-.56-.22.76.76,0,0,1-.2-.53V9.72l-4.8,3.7a.81.81,0,0,1-.57.14.77.77,0,0,1-.5-.33l-1.33-1.71a.82.82,0,0,1-.14-.6.69.69,0,0,1,.33-.5L328,5a.76.76,0,0,1,.38-.19,2.63,2.63,0,0,1,.41,0h2.78a.75.75,0,0,1,.76.75V26.08a.75.75,0,0,1-.76.75Z" transform="translate(0 -3.47)" fill="#0c0a10"/><path d="M5.61,65.51a.75.75,0,0,1-.76-.76V44.2a.81.81,0,0,1,.22-.57.73.73,0,0,1,.54-.22h7.7a12.2,12.2,0,0,1,5.26,1,6.72,6.72,0,0,1,3.12,2.9A9.84,9.84,0,0,1,22.78,52c0,.92.07,1.74.07,2.46s0,1.52-.07,2.43a10.87,10.87,0,0,1-1.07,4.85,6.3,6.3,0,0,1-3.05,2.84,12.49,12.49,0,0,1-5.19.93Zm3.63-3.63h4.07a6.94,6.94,0,0,0,2.88-.51,3.24,3.24,0,0,0,1.62-1.62,7.37,7.37,0,0,0,.55-3c0-.63,0-1.18.05-1.65s0-1,0-1.42,0-1-.05-1.63a5.39,5.39,0,0,0-1.29-3.82A5.37,5.37,0,0,0,13.15,47H9.24Z" transform="translate(0 -3.47)" fill="#0c0a10"/><path d="M34.37,65.82a7.57,7.57,0,0,1-5.56-2,8.25,8.25,0,0,1-2.21-5.74q0-.31,0-.81c0-.32,0-.58,0-.77a9.53,9.53,0,0,1,1.09-4.11,6.64,6.64,0,0,1,2.67-2.66,8.25,8.25,0,0,1,4-.93,8.14,8.14,0,0,1,4.29,1,6.73,6.73,0,0,1,2.62,2.94,10.07,10.07,0,0,1,.89,4.34v.66a.75.75,0,0,1-.79.76H30.9v.25a5.62,5.62,0,0,0,.42,2,3.64,3.64,0,0,0,1.17,1.5,3,3,0,0,0,1.85.57,3.59,3.59,0,0,0,1.48-.27,3.44,3.44,0,0,0,1-.62,4.32,4.32,0,0,0,.54-.57A1.42,1.42,0,0,1,37.8,61a1.15,1.15,0,0,1,.52-.08H41a.73.73,0,0,1,.52.19.52.52,0,0,1,.18.47,2.71,2.71,0,0,1-.53,1.23,5.84,5.84,0,0,1-1.4,1.42,7.79,7.79,0,0,1-2.29,1.16A10,10,0,0,1,34.37,65.82ZM30.9,55.88h7v-.1a5.08,5.08,0,0,0-.41-2.14,3.38,3.38,0,0,0-1.2-1.46,3.34,3.34,0,0,0-5,1.46,5.41,5.41,0,0,0-.39,2.14Z" transform="translate(0 -3.47)" fill="#0c0a10"/><path d="M53.5,65.51a6.87,6.87,0,0,1-3.19-.67,4.17,4.17,0,0,1-1.92-2,7.51,7.51,0,0,1-.63-3.27V52.44h-2.5a.73.73,0,0,1-.53-.22.74.74,0,0,1-.23-.54V49.85a.74.74,0,0,1,.23-.54.73.73,0,0,1,.53-.22h2.5V43.85a.76.76,0,0,1,.2-.54.75.75,0,0,1,.55-.22h2.56a.75.75,0,0,1,.76.76v5.24h3.94a.77.77,0,0,1,.54.22.73.73,0,0,1,.22.54v1.83a.73.73,0,0,1-.22.54.77.77,0,0,1-.54.22H51.83v6.85a3.73,3.73,0,0,0,.46,2,1.73,1.73,0,0,0,1.59.73h2.18a.75.75,0,0,1,.76.75v2a.75.75,0,0,1-.76.76Z" transform="translate(0 -3.47)" fill="#0c0a10"/><path d="M67.33,65.82a7.57,7.57,0,0,1-5.56-2,8.21,8.21,0,0,1-2.21-5.74q0-.31,0-.81c0-.32,0-.58,0-.77a9.53,9.53,0,0,1,1.09-4.11,6.64,6.64,0,0,1,2.67-2.66,9.2,9.2,0,0,1,8.3.12,6.73,6.73,0,0,1,2.62,2.94,10.07,10.07,0,0,1,.89,4.34v.66a.75.75,0,0,1-.79.76H63.86v.25a5.62,5.62,0,0,0,.42,2,3.56,3.56,0,0,0,1.17,1.5,3,3,0,0,0,1.85.57,3.59,3.59,0,0,0,1.48-.27,3.44,3.44,0,0,0,1-.62,4.32,4.32,0,0,0,.54-.57,1.52,1.52,0,0,1,.45-.45,1.23,1.23,0,0,1,.53-.08H74a.73.73,0,0,1,.52.19.49.49,0,0,1,.17.47,2.57,2.57,0,0,1-.52,1.23,5.84,5.84,0,0,1-1.4,1.42,7.79,7.79,0,0,1-2.29,1.16A10.08,10.08,0,0,1,67.33,65.82Zm-3.47-9.94h7v-.1a5.08,5.08,0,0,0-.41-2.14,3.38,3.38,0,0,0-1.2-1.46,3.31,3.31,0,0,0-1.89-.53,3.16,3.16,0,0,0-3.08,2,5.41,5.41,0,0,0-.39,2.14Z" transform="translate(0 -3.47)" fill="#0c0a10"/><path d="M86.21,65.82a8.89,8.89,0,0,1-4-.85,6.3,6.3,0,0,1-2.68-2.48,8.34,8.34,0,0,1-1.06-3.93c0-.31,0-.73,0-1.24s0-1,0-1.28a8.34,8.34,0,0,1,1.06-3.93,6.3,6.3,0,0,1,2.68-2.48,8.89,8.89,0,0,1,4-.85,9.29,9.29,0,0,1,3.44.56A7.72,7.72,0,0,1,92,50.76a6.34,6.34,0,0,1,1.37,1.79,4.35,4.35,0,0,1,.49,1.69.61.61,0,0,1-.21.55.8.8,0,0,1-.55.2H90.31a.74.74,0,0,1-.49-.15,2,2,0,0,1-.33-.48,3.53,3.53,0,0,0-1.25-1.78,3.42,3.42,0,0,0-2-.52,3.28,3.28,0,0,0-2.51,1,4.7,4.7,0,0,0-1,3.14,16.27,16.27,0,0,0,0,2.21,4.66,4.66,0,0,0,1,3.16,3.31,3.31,0,0,0,2.51,1,3.44,3.44,0,0,0,2-.52,3.57,3.57,0,0,0,1.23-1.78,2,2,0,0,1,.33-.48.74.74,0,0,1,.49-.16h2.78a.81.81,0,0,1,.55.21.61.61,0,0,1,.21.55,4.26,4.26,0,0,1-.3,1.28,5.81,5.81,0,0,1-.85,1.45,6.65,6.65,0,0,1-1.47,1.36,7.5,7.5,0,0,1-2.13,1A9.78,9.78,0,0,1,86.21,65.82Z" transform="translate(0 -3.47)" fill="#0c0a10"/><path d="M105.18,65.51a6.87,6.87,0,0,1-3.19-.67,4.17,4.17,0,0,1-1.92-2,7.51,7.51,0,0,1-.63-3.27V52.44h-2.5a.73.73,0,0,1-.53-.22.74.74,0,0,1-.23-.54V49.85a.74.74,0,0,1,.23-.54.73.73,0,0,1,.53-.22h2.5V43.85a.76.76,0,0,1,.2-.54.75.75,0,0,1,.55-.22h2.56a.75.75,0,0,1,.76.76v5.24h3.94a.77.77,0,0,1,.54.22.73.73,0,0,1,.22.54v1.83a.73.73,0,0,1-.22.54.77.77,0,0,1-.54.22h-3.94v6.85a3.73,3.73,0,0,0,.46,2,1.73,1.73,0,0,0,1.59.73h2.18a.75.75,0,0,1,.76.75v2a.75.75,0,0,1-.76.76Z" transform="translate(0 -3.47)" fill="#0c0a10"/><path d="M112.57,46.38a.72.72,0,0,1-.55-.21.74.74,0,0,1-.21-.55V43.34a.74.74,0,0,1,.21-.53.69.69,0,0,1,.55-.22h2.87a.77.77,0,0,1,.57.22.71.71,0,0,1,.22.53v2.28a.71.71,0,0,1-.22.55.8.8,0,0,1-.57.21Zm.13,19.13a.76.76,0,0,1-.54-.22.73.73,0,0,1-.22-.54V49.85a.73.73,0,0,1,.22-.54.76.76,0,0,1,.54-.22h2.62a.75.75,0,0,1,.55.22.8.8,0,0,1,.2.54v14.9a.8.8,0,0,1-.2.54.75.75,0,0,1-.55.22Z" transform="translate(0 -3.47)" fill="#0c0a10"/><path d="M128.26,65.82a9.22,9.22,0,0,1-4.25-.88,6.18,6.18,0,0,1-2.62-2.49,8.62,8.62,0,0,1-1-3.76c0-.38,0-.84,0-1.39s0-1,0-1.39a8.27,8.27,0,0,1,1-3.77,6.38,6.38,0,0,1,2.66-2.48,10.37,10.37,0,0,1,8.36,0,6.36,6.36,0,0,1,2.65,2.48,8.28,8.28,0,0,1,1.06,3.77c0,.38,0,.84,0,1.39s0,1,0,1.39a8.49,8.49,0,0,1-1,3.76,6.07,6.07,0,0,1-2.62,2.49A9.18,9.18,0,0,1,128.26,65.82Zm0-3.12a3.24,3.24,0,0,0,2.59-1.06,5,5,0,0,0,1-3.11q0-.48,0-1.23t0-1.23a5.09,5.09,0,0,0-1-3.1,3.67,3.67,0,0,0-5.18,0,5,5,0,0,0-1,3.1q0,.47,0,1.23t0,1.23a5,5,0,0,0,1,3.11A3.22,3.22,0,0,0,128.26,62.7Z" transform="translate(0 -3.47)" fill="#0c0a10"/><path d="M141.08,65.51a.77.77,0,0,1-.54-.22.73.73,0,0,1-.22-.54V49.85a.73.73,0,0,1,.22-.54.77.77,0,0,1,.54-.22h2.58a.77.77,0,0,1,.54.22.73.73,0,0,1,.22.54v1.29a7,7,0,0,1,2.1-1.69,6.73,6.73,0,0,1,3.17-.67,6.28,6.28,0,0,1,3.35.86,5.82,5.82,0,0,1,2.2,2.45,8.62,8.62,0,0,1,.77,3.79v8.87a.75.75,0,0,1-.76.76h-2.78a.75.75,0,0,1-.75-.76V56.07a4.24,4.24,0,0,0-.9-2.87,3.25,3.25,0,0,0-2.61-1.05,3.41,3.41,0,0,0-2.62,1.05,4,4,0,0,0-1,2.87v8.68a.73.73,0,0,1-.22.54.77.77,0,0,1-.54.22Z" transform="translate(0 -3.47)" fill="#0c0a10"/><path d="M169.14,46.38a.72.72,0,0,1-.76-.76V43.34a.74.74,0,0,1,.21-.53.71.71,0,0,1,.55-.22H172a.74.74,0,0,1,.57.22.71.71,0,0,1,.22.53v2.28a.71.71,0,0,1-.22.55.77.77,0,0,1-.57.21Zm.13,19.13a.77.77,0,0,1-.54-.22.73.73,0,0,1-.22-.54V49.85a.73.73,0,0,1,.22-.54.77.77,0,0,1,.54-.22h2.62a.75.75,0,0,1,.55.22.76.76,0,0,1,.21.54v14.9a.76.76,0,0,1-.21.54.75.75,0,0,1-.55.22Z" transform="translate(0 -3.47)" fill="#0c0a10"/><path d="M178.86,65.51a.75.75,0,0,1-.53-.22.73.73,0,0,1-.22-.54V49.85a.73.73,0,0,1,.22-.54.75.75,0,0,1,.53-.22h2.59a.77.77,0,0,1,.54.22.73.73,0,0,1,.22.54v1.29a7,7,0,0,1,2.1-1.69,6.73,6.73,0,0,1,3.17-.67,6.28,6.28,0,0,1,3.35.86A5.73,5.73,0,0,1,193,52.09a8.48,8.48,0,0,1,.78,3.79v8.87a.75.75,0,0,1-.76.76h-2.78a.73.73,0,0,1-.53-.22.74.74,0,0,1-.23-.54V56.07a4.24,4.24,0,0,0-.9-2.87,3.23,3.23,0,0,0-2.6-1.05,3.41,3.41,0,0,0-2.62,1.05,4,4,0,0,0-1,2.87v8.68a.73.73,0,0,1-.22.54.77.77,0,0,1-.54.22Z" transform="translate(0 -3.47)" fill="#0c0a10"/><path d="M207.47,65.51a.81.81,0,0,1-.57-.22.73.73,0,0,1-.22-.54V44.2a.75.75,0,0,1,.79-.79H210a.87.87,0,0,1,.66.23,1.64,1.64,0,0,1,.29.37L217,55.37,223.16,44a1.53,1.53,0,0,1,.28-.37.9.9,0,0,1,.66-.23h2.47a.77.77,0,0,1,.57.22.81.81,0,0,1,.22.57V64.75a.77.77,0,0,1-.22.54.81.81,0,0,1-.57.22h-2.66a.75.75,0,0,1-.55-.22.8.8,0,0,1-.2-.54V51.08l-4.42,8.43a1.76,1.76,0,0,1-.41.49,1,1,0,0,1-.67.2h-1.29a1,1,0,0,1-.68-.2,1.69,1.69,0,0,1-.39-.49l-4.42-8.43V64.75a.75.75,0,0,1-.76.76Z" transform="translate(0 -3.47)" fill="#0c0a10"/><path d="M237.3,65.82a6.74,6.74,0,0,1-3-.64,5.46,5.46,0,0,1-2.1-1.74,4.34,4.34,0,0,1,1-6A10.67,10.67,0,0,1,238,55.72l4.33-.63v-.66a3,3,0,0,0-.66-2.06,3,3,0,0,0-2.28-.72,3.3,3.3,0,0,0-1.84.46,2.76,2.76,0,0,0-1.06,1.21.81.81,0,0,1-.73.41h-2.49a.65.65,0,0,1-.52-.19.68.68,0,0,1-.18-.5,3.21,3.21,0,0,1,.41-1.23,4.81,4.81,0,0,1,1.2-1.41,7.18,7.18,0,0,1,2.12-1.15,9,9,0,0,1,3.12-.47,10.32,10.32,0,0,1,3.37.48,5.88,5.88,0,0,1,2.19,1.32,4.81,4.81,0,0,1,1.2,1.92,7.26,7.26,0,0,1,.38,2.34v9.91a.73.73,0,0,1-.22.54.77.77,0,0,1-.54.22H243.2a.75.75,0,0,1-.55-.22.76.76,0,0,1-.2-.54V63.52a5.1,5.1,0,0,1-1.11,1.12,5.69,5.69,0,0,1-1.69.85A7.44,7.44,0,0,1,237.3,65.82Zm1.07-3a4.2,4.2,0,0,0,2-.47,3.32,3.32,0,0,0,1.42-1.47,5.34,5.34,0,0,0,.52-2.51v-.66l-3.16.5a6.77,6.77,0,0,0-2.77.92,1.83,1.83,0,0,0-.92,1.55,1.7,1.7,0,0,0,.43,1.18,2.5,2.5,0,0,0,1.08.73A4.1,4.1,0,0,0,238.37,62.82Z" transform="translate(0 -3.47)" fill="#0c0a10"/><path d="M252,65.51a.75.75,0,0,1-.76-.76V49.85a.75.75,0,0,1,.76-.76h2.46a.77.77,0,0,1,.54.22.73.73,0,0,1,.22.54v1.07a5.51,5.51,0,0,1,1.78-1.5,5.72,5.72,0,0,1,2.67-.64,5,5,0,0,1,5,2.8,5.34,5.34,0,0,1,2.1-2,6.07,6.07,0,0,1,3.05-.77,6,6,0,0,1,3,.75,5.36,5.36,0,0,1,2.12,2.29,8.63,8.63,0,0,1,.77,3.87v9.06a.75.75,0,0,1-.76.76h-2.59a.73.73,0,0,1-.53-.22.74.74,0,0,1-.23-.54V55.94a5.1,5.1,0,0,0-.41-2.26A2.49,2.49,0,0,0,270,52.5a3.43,3.43,0,0,0-1.55-.35,3.14,3.14,0,0,0-1.39.35A2.64,2.64,0,0,0,266,53.68a4.8,4.8,0,0,0-.45,2.26v8.81a.75.75,0,0,1-.75.76h-2.59a.73.73,0,0,1-.55-.22.76.76,0,0,1-.21-.54V55.94a4.93,4.93,0,0,0-.44-2.26,2.72,2.72,0,0,0-1.14-1.18,3.29,3.29,0,0,0-1.48-.35,2.92,2.92,0,0,0-1.42.37,2.72,2.72,0,0,0-1.14,1.18,4.81,4.81,0,0,0-.44,2.24v8.81a.73.73,0,0,1-.22.54.77.77,0,0,1-.54.22Z" transform="translate(0 -3.47)" fill="#0c0a10"/><path d="M281.06,65.51a.77.77,0,0,1-.54-.22.73.73,0,0,1-.22-.54V49.85a.73.73,0,0,1,.22-.54.77.77,0,0,1,.54-.22h2.46a.75.75,0,0,1,.76.76v1.07a5.41,5.41,0,0,1,1.78-1.5,5.72,5.72,0,0,1,2.67-.64,5,5,0,0,1,5,2.8,5.34,5.34,0,0,1,2.1-2,6.36,6.36,0,0,1,6,0A5.28,5.28,0,0,1,304,51.82a8.49,8.49,0,0,1,.78,3.87v9.06a.75.75,0,0,1-.76.76h-2.59a.75.75,0,0,1-.76-.76V55.94a5.1,5.1,0,0,0-.41-2.26,2.49,2.49,0,0,0-1.1-1.18,3.46,3.46,0,0,0-1.55-.35,3.11,3.11,0,0,0-1.39.35,2.72,2.72,0,0,0-1.14,1.18,4.93,4.93,0,0,0-.44,2.26v8.81a.73.73,0,0,1-.22.54.77.77,0,0,1-.54.22h-2.58a.75.75,0,0,1-.56-.22.8.8,0,0,1-.2-.54V55.94a4.93,4.93,0,0,0-.44-2.26A2.72,2.72,0,0,0,289,52.5a3.29,3.29,0,0,0-1.48-.35,2.92,2.92,0,0,0-1.42.37,2.66,2.66,0,0,0-1.14,1.18,4.69,4.69,0,0,0-.44,2.24v8.81a.75.75,0,0,1-.76.76Z" transform="translate(0 -3.47)" fill="#0c0a10"/><path d="M314.17,65.82a6.66,6.66,0,0,1-3-.64,5.32,5.32,0,0,1-2.1-1.74,4.11,4.11,0,0,1-.78-2.45,4.16,4.16,0,0,1,1.79-3.52,10.62,10.62,0,0,1,4.72-1.75l4.32-.63v-.66a2.48,2.48,0,0,0-2.93-2.78,3.32,3.32,0,0,0-1.85.46,2.82,2.82,0,0,0-1.06,1.21.81.81,0,0,1-.72.41h-2.5a.67.67,0,0,1-.52-.19.68.68,0,0,1-.17-.5,3,3,0,0,1,.41-1.23A4.52,4.52,0,0,1,311,50.4a7,7,0,0,1,2.11-1.15,9.09,9.09,0,0,1,3.13-.47,10.29,10.29,0,0,1,3.36.48,5.72,5.72,0,0,1,2.19,1.32A4.81,4.81,0,0,1,323,52.5a7,7,0,0,1,.38,2.34v9.91a.73.73,0,0,1-.22.54.75.75,0,0,1-.53.22h-2.56a.73.73,0,0,1-.55-.22.76.76,0,0,1-.21-.54V63.52a4.84,4.84,0,0,1-1.1,1.12,6,6,0,0,1-1.69.85A7.55,7.55,0,0,1,314.17,65.82Zm1.08-3a4.19,4.19,0,0,0,2-.47,3.26,3.26,0,0,0,1.42-1.47,5.34,5.34,0,0,0,.52-2.51v-.66l-3.15.5a6.77,6.77,0,0,0-2.78.92,1.85,1.85,0,0,0-.92,1.55,1.75,1.75,0,0,0,.43,1.18,2.53,2.53,0,0,0,1.09.73A4,4,0,0,0,315.25,62.82Z" transform="translate(0 -3.47)" fill="#0c0a10"/><path d="M328.85,65.51a.75.75,0,0,1-.75-.76V43.85a.75.75,0,0,1,.75-.76h2.63a.77.77,0,0,1,.53.22.73.73,0,0,1,.22.54v20.9a.73.73,0,0,1-.22.54.77.77,0,0,1-.53.22Z" transform="translate(0 -3.47)" fill="#0c0a10"/><path d="M343.28,65.82a10.21,10.21,0,0,1-3.23-.44,7.18,7.18,0,0,1-2.2-1.1A5.3,5.3,0,0,1,336.59,63a2.63,2.63,0,0,1-.44-1.1.62.62,0,0,1,.2-.56.81.81,0,0,1,.52-.2h2.5a.73.73,0,0,1,.22,0,.67.67,0,0,1,.25.19l.87.73a4.41,4.41,0,0,0,1.09.64,4,4,0,0,0,1.58.27,4,4,0,0,0,2.06-.49,1.54,1.54,0,0,0,.84-1.4,1.58,1.58,0,0,0-.36-1.08,3.19,3.19,0,0,0-1.34-.74,25.76,25.76,0,0,0-2.78-.71,11.78,11.78,0,0,1-2.94-1,4.31,4.31,0,0,1-1.73-1.58,4.2,4.2,0,0,1-.57-2.21,4.15,4.15,0,0,1,.74-2.35,5.47,5.47,0,0,1,2.21-1.85,8.24,8.24,0,0,1,3.65-.72,9.39,9.39,0,0,1,3,.42,7.49,7.49,0,0,1,2.1,1.06,5.52,5.52,0,0,1,1.28,1.28,2.42,2.42,0,0,1,.48,1.12.66.66,0,0,1-.19.55.73.73,0,0,1-.51.21h-2.34a.53.53,0,0,1-.28-.07,1.65,1.65,0,0,1-.25-.15l-.76-.67a4.51,4.51,0,0,0-1-.61,3.7,3.7,0,0,0-1.54-.27,2.79,2.79,0,0,0-1.83.52,1.63,1.63,0,0,0-.63,1.31,1.48,1.48,0,0,0,.3.93,2.81,2.81,0,0,0,1.22.74,18.75,18.75,0,0,0,2.78.73A9.92,9.92,0,0,1,348.32,57a4.61,4.61,0,0,1,1.77,1.7,4.53,4.53,0,0,1,.52,2.13,4.2,4.2,0,0,1-.84,2.56,5.48,5.48,0,0,1-2.46,1.79A11,11,0,0,1,343.28,65.82Z" transform="translate(0 -3.47)" fill="#0c0a10"/><rect x="0.25" y="100.07" width="352.09" height="51.32" rx="10.77" fill="#fff" stroke="#0c0a10" stroke-width="0.5"/><path d="M29.86,135.69a.4.4,0,0,1-.31-.13.43.43,0,0,1-.14-.31,2.32,2.32,0,0,1,0-.24l5.5-14.33a1,1,0,0,1,.24-.36.69.69,0,0,1,.47-.13h1.5a.72.72,0,0,1,.46.13.86.86,0,0,1,.25.36L43.32,135a.79.79,0,0,1,0,.24.43.43,0,0,1-.14.31.4.4,0,0,1-.31.13H41.79a.49.49,0,0,1-.38-.13,1,1,0,0,1-.17-.24L40,132.17H32.76l-1.22,3.15a.59.59,0,0,1-.16.24.51.51,0,0,1-.39.13Zm3.54-5.42h6l-3-7.87Z" transform="translate(0 -3.47)" fill="#0c0a10"/><path d="M46,135.69a.45.45,0,0,1-.36-.14.5.5,0,0,1-.15-.37v-14.7a.5.5,0,0,1,.15-.37A.45.45,0,0,1,46,120h1a.48.48,0,0,1,.38.14.52.52,0,0,1,.13.37v14.7a.52.52,0,0,1-.13.37.48.48,0,0,1-.38.14Z" transform="translate(0 -3.47)" fill="#0c0a10"/><path d="M51.36,135.69a.47.47,0,0,1-.36-.14.5.5,0,0,1-.15-.37v-14.7a.5.5,0,0,1,.15-.37.47.47,0,0,1,.36-.14h1a.46.46,0,0,1,.37.14.52.52,0,0,1,.13.37v14.7a.52.52,0,0,1-.13.37.46.46,0,0,1-.37.14Z" transform="translate(0 -3.47)" fill="#0c0a10"/><path d="M67.51,135.92a6.76,6.76,0,0,1-3.38-.76,4.87,4.87,0,0,1-2-2.1,7.54,7.54,0,0,1-.76-3.15c0-.6,0-1.25,0-2s0-1.36,0-2a7.58,7.58,0,0,1,.76-3.15,4.87,4.87,0,0,1,2-2.1,6.87,6.87,0,0,1,3.38-.75,7.81,7.81,0,0,1,2.68.42,5.49,5.49,0,0,1,1.92,1.13,4.87,4.87,0,0,1,1.6,3.39.35.35,0,0,1-.12.33.47.47,0,0,1-.34.13H72a.55.55,0,0,1-.34-.11.64.64,0,0,1-.21-.4,3.5,3.5,0,0,0-1.41-2.37,4.79,4.79,0,0,0-2.58-.64,3.87,3.87,0,0,0-2.81,1,4.55,4.55,0,0,0-1.13,3.22q-.07,1.82,0,3.72A4.6,4.6,0,0,0,64.68,133a3.86,3.86,0,0,0,2.81,1,4.79,4.79,0,0,0,2.58-.64A3.5,3.5,0,0,0,71.48,131a.66.66,0,0,1,.21-.4.55.55,0,0,1,.34-.11h1.22a.47.47,0,0,1,.34.13.36.36,0,0,1,.12.34,4.76,4.76,0,0,1-.44,1.8,4.89,4.89,0,0,1-1.16,1.59,5.81,5.81,0,0,1-1.92,1.13A7.81,7.81,0,0,1,67.51,135.92Z" transform="translate(0 -3.47)" fill="#0c0a10"/><path d="M79.61,135.92a4.5,4.5,0,0,1-2-.45,3.82,3.82,0,0,1-1.46-1.19,2.83,2.83,0,0,1-.56-1.71,2.9,2.9,0,0,1,1.24-2.44,7.2,7.2,0,0,1,3.24-1.19l3.3-.47v-.64a2.2,2.2,0,0,0-.61-1.66,2.76,2.76,0,0,0-2-.6,2.87,2.87,0,0,0-1.61.4,2.19,2.19,0,0,0-.85,1,.47.47,0,0,1-.47.33h-1a.47.47,0,0,1-.37-.14.53.53,0,0,1-.12-.35,1.87,1.87,0,0,1,.25-.82,3.53,3.53,0,0,1,.79-1,4.54,4.54,0,0,1,1.36-.78,5.53,5.53,0,0,1,2-.33,6.35,6.35,0,0,1,2.24.35,3.61,3.61,0,0,1,1.43.92,3.69,3.69,0,0,1,.75,1.3,5.09,5.09,0,0,1,.23,1.49v7.17a.53.53,0,0,1-.14.37.49.49,0,0,1-.37.14h-1a.46.46,0,0,1-.37-.14.53.53,0,0,1-.14-.37v-1a4.06,4.06,0,0,1-.77.79,4.12,4.12,0,0,1-1.22.64A5.5,5.5,0,0,1,79.61,135.92Zm.46-1.67a3.53,3.53,0,0,0,1.66-.38,2.78,2.78,0,0,0,1.19-1.21,4.37,4.37,0,0,0,.43-2.06V130l-2.57.38a5.75,5.75,0,0,0-2.37.74,1.54,1.54,0,0,0-.8,1.32,1.48,1.48,0,0,0,.37,1,2.14,2.14,0,0,0,.93.6A3.26,3.26,0,0,0,80.07,134.25Z" transform="translate(0 -3.47)" fill="#0c0a10"/><path d="M92.61,135.92a6.65,6.65,0,0,1-2.13-.31,4.86,4.86,0,0,1-1.44-.76,3.73,3.73,0,0,1-.83-.88,2,2,0,0,1-.3-.71.4.4,0,0,1,.16-.38.56.56,0,0,1,.35-.13h1a.66.66,0,0,1,.21,0,.79.79,0,0,1,.21.19,7.61,7.61,0,0,0,.64.62,2.85,2.85,0,0,0,.87.51,4.27,4.27,0,0,0,3.16-.23,1.4,1.4,0,0,0,.73-1.28,1.25,1.25,0,0,0-.3-.88,2.61,2.61,0,0,0-1.06-.6,20.11,20.11,0,0,0-2.09-.56,7.6,7.6,0,0,1-2.11-.76,2.82,2.82,0,0,1-1.11-1.08,3.07,3.07,0,0,1-.33-1.43,2.88,2.88,0,0,1,.49-1.59,3.6,3.6,0,0,1,1.43-1.25A5.16,5.16,0,0,1,92.5,124a6,6,0,0,1,2,.29,4.3,4.3,0,0,1,1.35.72,3.88,3.88,0,0,1,.8.85,1.92,1.92,0,0,1,.29.71.43.43,0,0,1-.14.37.47.47,0,0,1-.35.14h-.93a.5.5,0,0,1-.26-.06l-.19-.16a4.48,4.48,0,0,0-.52-.57,2,2,0,0,0-.77-.48,3.39,3.39,0,0,0-1.25-.19,2.51,2.51,0,0,0-1.66.47,1.47,1.47,0,0,0-.56,1.17,1.19,1.19,0,0,0,.25.75,2.07,2.07,0,0,0,.93.6,15.31,15.31,0,0,0,2,.58,7.67,7.67,0,0,1,2.31.77,2.8,2.8,0,0,1,1.55,2.62,2.89,2.89,0,0,1-.54,1.7,3.68,3.68,0,0,1-1.6,1.23A6.61,6.61,0,0,1,92.61,135.92Z" transform="translate(0 -3.47)" fill="#0c0a10"/><path d="M104.5,135.92a4.79,4.79,0,0,1-3.63-1.41,5.81,5.81,0,0,1-1.48-3.84c0-.2,0-.44,0-.75a7.39,7.39,0,0,1,0-.74,6.47,6.47,0,0,1,.73-2.76,4.54,4.54,0,0,1,1.76-1.82,5.14,5.14,0,0,1,2.62-.65,5.28,5.28,0,0,1,2.83.71,4.59,4.59,0,0,1,1.74,2,7.42,7.42,0,0,1,.59,3.06v.37a.48.48,0,0,1-.14.38.52.52,0,0,1-.37.13h-7.66v.2a4.61,4.61,0,0,0,.4,1.7,3.27,3.27,0,0,0,1,1.27,2.64,2.64,0,0,0,1.59.49,3.07,3.07,0,0,0,1.33-.25,3.41,3.41,0,0,0,.87-.54,4.2,4.2,0,0,0,.44-.45,1,1,0,0,1,.31-.35,1,1,0,0,1,.35-.05h1.07a.54.54,0,0,1,.36.12.35.35,0,0,1,.12.34,1.69,1.69,0,0,1-.35.81,4.23,4.23,0,0,1-1,.94,5.49,5.49,0,0,1-1.51.77A6.35,6.35,0,0,1,104.5,135.92Zm-3-6.83h6.07V129a4,4,0,0,0-.37-1.78,2.9,2.9,0,0,0-1-1.22,2.91,2.91,0,0,0-4.29,1.22,4.19,4.19,0,0,0-.36,1.78Z" transform="translate(0 -3.47)" fill="#0c0a10"/><path d="M116.31,135.92a6.65,6.65,0,0,1-2.13-.31,4.86,4.86,0,0,1-1.44-.76,3.73,3.73,0,0,1-.83-.88,2,2,0,0,1-.3-.71.4.4,0,0,1,.16-.38.56.56,0,0,1,.35-.13h1a.58.58,0,0,1,.21,0,.79.79,0,0,1,.21.19,7.61,7.61,0,0,0,.64.62,2.79,2.79,0,0,0,.88.51,3.64,3.64,0,0,0,1.29.2,3.71,3.71,0,0,0,1.86-.43,1.4,1.4,0,0,0,.73-1.28,1.25,1.25,0,0,0-.3-.88,2.61,2.61,0,0,0-1.06-.6,20.11,20.11,0,0,0-2.09-.56,7.6,7.6,0,0,1-2.11-.76,2.79,2.79,0,0,1-1.1-1.08,3,3,0,0,1,.15-3,3.67,3.67,0,0,1,1.43-1.25,5.16,5.16,0,0,1,2.36-.49,6,6,0,0,1,2,.29,4.3,4.3,0,0,1,1.35.72,3.65,3.65,0,0,1,.8.85,1.76,1.76,0,0,1,.29.71.43.43,0,0,1-.14.37.47.47,0,0,1-.35.14h-.93a.53.53,0,0,1-.26-.06,1.37,1.37,0,0,1-.18-.16,6.72,6.72,0,0,0-.52-.57,2.15,2.15,0,0,0-.78-.48,3.35,3.35,0,0,0-1.25-.19,2.53,2.53,0,0,0-1.66.47,1.47,1.47,0,0,0-.56,1.17,1.19,1.19,0,0,0,.25.75,2.07,2.07,0,0,0,.93.6,15.55,15.55,0,0,0,2,.58,7.7,7.7,0,0,1,2.3.77,2.76,2.76,0,0,1,1.55,2.62,2.89,2.89,0,0,1-.54,1.7,3.68,3.68,0,0,1-1.6,1.23A6.61,6.61,0,0,1,116.31,135.92Z" transform="translate(0 -3.47)" fill="#0c0a10"/><rect x="0.25" y="161.99" width="352.09" height="51.32" rx="10.77" fill="#fff" stroke="#0c0a10" stroke-width="0.5"/><path d="M31.41,197.61a.47.47,0,0,1-.38-.14.52.52,0,0,1-.13-.37V182.64a.56.56,0,0,1,.13-.39.51.51,0,0,1,.38-.14h5a8.48,8.48,0,0,1,3.68.68,4.32,4.32,0,0,1,2,2,7.68,7.68,0,0,1,.66,3.29c0,.66,0,1.25,0,1.75s0,1.08,0,1.73a8.42,8.42,0,0,1-.67,3.38,4.12,4.12,0,0,1-2,2,8.26,8.26,0,0,1-3.59.65Zm1.66-1.88h3.36a5.88,5.88,0,0,0,2.44-.42A2.56,2.56,0,0,0,40.19,194a6.39,6.39,0,0,0,.43-2.46c0-.44.05-.83.05-1.16v-1c0-.33,0-.71-.05-1.14a4.65,4.65,0,0,0-1-3.18,4.36,4.36,0,0,0-3.28-1H33.07Z" transform="translate(0 -3.47)" fill="#0c0a10"/><path d="M49.08,197.83a4.43,4.43,0,0,1-2-.44,3.85,3.85,0,0,1-1.47-1.19,3,3,0,0,1,.69-4.15,7.2,7.2,0,0,1,3.24-1.19l3.3-.47v-.64a2.24,2.24,0,0,0-.61-1.66,2.77,2.77,0,0,0-2-.6,2.83,2.83,0,0,0-1.6.4,2,2,0,0,0-.85,1,.48.48,0,0,1-.47.33h-1a.46.46,0,0,1-.36-.14.53.53,0,0,1-.12-.35,1.87,1.87,0,0,1,.25-.82,3.35,3.35,0,0,1,.79-1,4.64,4.64,0,0,1,1.36-.79,5.73,5.73,0,0,1,2-.32,6.29,6.29,0,0,1,2.23.35,3.47,3.47,0,0,1,1.43.92,3.56,3.56,0,0,1,.76,1.3,5,5,0,0,1,.23,1.49v7.17a.5.5,0,0,1-.15.37.45.45,0,0,1-.36.14h-1a.48.48,0,0,1-.38-.14.52.52,0,0,1-.13-.37v-.95a4.06,4.06,0,0,1-.77.79,4.25,4.25,0,0,1-1.22.64A5.54,5.54,0,0,1,49.08,197.83Zm.47-1.66a3.68,3.68,0,0,0,1.66-.38,2.71,2.71,0,0,0,1.18-1.21,4.36,4.36,0,0,0,.44-2.06v-.62l-2.57.37a5.89,5.89,0,0,0-2.37.75,1.5,1.5,0,0,0-.8,1.31,1.49,1.49,0,0,0,.36,1,2.19,2.19,0,0,0,.93.61A3.35,3.35,0,0,0,49.55,196.17Z" transform="translate(0 -3.47)" fill="#0c0a10"/><path d="M58.43,184a.5.5,0,0,1-.37-.15.51.51,0,0,1-.14-.36v-1.2a.49.49,0,0,1,.14-.36.5.5,0,0,1,.37-.15h1.4a.49.49,0,0,1,.36.15.45.45,0,0,1,.14.36v1.2a.47.47,0,0,1-.14.36.49.49,0,0,1-.36.15Zm.18,13.66a.49.49,0,0,1-.37-.14.53.53,0,0,1-.14-.37V186.6a.51.51,0,0,1,.14-.36.5.5,0,0,1,.37-.15h1.06a.43.43,0,0,1,.35.15.51.51,0,0,1,.14.36v10.5a.53.53,0,0,1-.14.37.42.42,0,0,1-.35.14Z" transform="translate(0 -3.47)" fill="#0c0a10"/><path d="M64.17,197.61a.48.48,0,0,1-.51-.51V186.63a.51.51,0,0,1,.14-.38.51.51,0,0,1,.37-.16h1a.52.52,0,0,1,.37.16.49.49,0,0,1,.16.38v1a2.78,2.78,0,0,1,1.22-1.13,4.19,4.19,0,0,1,1.86-.38h.88a.46.46,0,0,1,.36.15.5.5,0,0,1,.13.36v.91a.45.45,0,0,1-.49.49H68.35a2.51,2.51,0,0,0-1.88.7,2.55,2.55,0,0,0-.69,1.89v6.51a.5.5,0,0,1-.15.37.51.51,0,0,1-.38.14Z" transform="translate(0 -3.47)" fill="#0c0a10"/><path d="M74.09,201.82a.44.44,0,0,1-.44-.44.55.55,0,0,1,0-.18.73.73,0,0,1,.09-.22l1.7-4-4.23-10a1.35,1.35,0,0,1-.11-.38.49.49,0,0,1,.13-.33.46.46,0,0,1,.34-.14h1.08a.52.52,0,0,1,.36.12.5.5,0,0,1,.17.26l3.37,8.06L80,186.47a.68.68,0,0,1,.18-.26.53.53,0,0,1,.37-.12h1a.45.45,0,0,1,.33.14.43.43,0,0,1,.14.31,1.63,1.63,0,0,1-.11.4l-6.3,14.51a.68.68,0,0,1-.18.26.53.53,0,0,1-.37.11Z" transform="translate(0 -3.47)" fill="#0c0a10"/><path d="M89.93,197.61a.48.48,0,0,1-.38-.14.52.52,0,0,1-.13-.37V182.64a.56.56,0,0,1,.13-.39.52.52,0,0,1,.38-.14h9a.5.5,0,0,1,.37.14.56.56,0,0,1,.13.39v.89a.45.45,0,0,1-.5.5h-7.4v5.17h7a.48.48,0,0,1,.38.14.56.56,0,0,1,.13.39v.88a.52.52,0,0,1-.13.37.48.48,0,0,1-.38.14h-7v6a.5.5,0,0,1-.15.37.48.48,0,0,1-.38.14Z" transform="translate(0 -3.47)" fill="#0c0a10"/><path d="M104.64,197.83a4.5,4.5,0,0,1-2-.44,3.82,3.82,0,0,1-1.46-1.19,2.83,2.83,0,0,1-.56-1.71,2.88,2.88,0,0,1,1.25-2.44,7.11,7.11,0,0,1,3.23-1.19l3.3-.47v-.64a2.2,2.2,0,0,0-.61-1.66,2.76,2.76,0,0,0-2-.6,2.87,2.87,0,0,0-1.61.4,2.1,2.1,0,0,0-.85,1,.47.47,0,0,1-.47.33h-1a.47.47,0,0,1-.37-.14.53.53,0,0,1-.12-.35,1.87,1.87,0,0,1,.25-.82,3.53,3.53,0,0,1,.79-1,4.78,4.78,0,0,1,1.36-.79,5.76,5.76,0,0,1,2-.32,6.35,6.35,0,0,1,2.24.35,3.61,3.61,0,0,1,1.43.92,3.69,3.69,0,0,1,.75,1.3,5,5,0,0,1,.23,1.49v7.17a.53.53,0,0,1-.14.37.49.49,0,0,1-.37.14h-1a.46.46,0,0,1-.37-.14.53.53,0,0,1-.14-.37v-.95a4.06,4.06,0,0,1-.77.79,4.12,4.12,0,0,1-1.22.64A5.48,5.48,0,0,1,104.64,197.83Zm.46-1.66a3.65,3.65,0,0,0,1.66-.38,2.78,2.78,0,0,0,1.19-1.21,4.37,4.37,0,0,0,.43-2.06v-.62l-2.57.37a5.89,5.89,0,0,0-2.37.75,1.52,1.52,0,0,0-.8,1.31,1.45,1.45,0,0,0,.37,1,2.08,2.08,0,0,0,.93.61A3.26,3.26,0,0,0,105.1,196.17Z" transform="translate(0 -3.47)" fill="#0c0a10"/><path d="M114.16,197.61a.45.45,0,0,1-.36-.14.5.5,0,0,1-.15-.37V186.63a.52.52,0,0,1,.15-.38.47.47,0,0,1,.36-.16h1a.55.55,0,0,1,.38.16.52.52,0,0,1,.15.38v1a2.83,2.83,0,0,1,1.22-1.13,4.26,4.26,0,0,1,1.86-.38h.89a.45.45,0,0,1,.35.15.5.5,0,0,1,.13.36v.91a.48.48,0,0,1-.13.36.48.48,0,0,1-.35.13h-1.33a2.52,2.52,0,0,0-1.89.7,2.59,2.59,0,0,0-.68,1.89v6.51a.47.47,0,0,1-.16.37.5.5,0,0,1-.37.14Z" transform="translate(0 -3.47)" fill="#0c0a10"/><path d="M122.58,197.61a.49.49,0,0,1-.37-.14.53.53,0,0,1-.14-.37V186.6a.51.51,0,0,1,.14-.36.5.5,0,0,1,.37-.15h1a.5.5,0,0,1,.37.15.47.47,0,0,1,.14.36v.78a3.82,3.82,0,0,1,1.29-1.1,4,4,0,0,1,1.86-.41,3.62,3.62,0,0,1,3.54,2,3.79,3.79,0,0,1,1.49-1.48,4.4,4.4,0,0,1,2.21-.56,4.25,4.25,0,0,1,2.1.53,3.74,3.74,0,0,1,1.48,1.61,6,6,0,0,1,.54,2.69v6.4a.53.53,0,0,1-.14.37.49.49,0,0,1-.37.14h-1a.45.45,0,0,1-.36-.14.5.5,0,0,1-.15-.37v-6.2a4.5,4.5,0,0,0-.35-2,2.13,2.13,0,0,0-1-1,2.89,2.89,0,0,0-1.31-.29,2.56,2.56,0,0,0-1.17.29,2.25,2.25,0,0,0-1,1,4.06,4.06,0,0,0-.39,2v6.2a.53.53,0,0,1-.14.37.49.49,0,0,1-.37.14h-1a.45.45,0,0,1-.36-.14.5.5,0,0,1-.15-.37v-6.2a4.07,4.07,0,0,0-.38-2,2.16,2.16,0,0,0-1-1,2.77,2.77,0,0,0-1.26-.29,2.6,2.6,0,0,0-1.18.29,2.23,2.23,0,0,0-1,1,4,4,0,0,0-.39,1.93v6.22a.53.53,0,0,1-.14.37.49.49,0,0,1-.37.14Z" transform="translate(0 -3.47)" fill="#0c0a10"/><path d="M145.75,197.83a6.38,6.38,0,0,1-2.13-.31,4.63,4.63,0,0,1-1.44-.75,3.73,3.73,0,0,1-.83-.88,2,2,0,0,1-.3-.71.4.4,0,0,1,.16-.38.54.54,0,0,1,.35-.13h1a.66.66,0,0,1,.21,0,.79.79,0,0,1,.21.19,7.61,7.61,0,0,0,.64.62,2.74,2.74,0,0,0,.87.51,4.27,4.27,0,0,0,3.16-.23,1.4,1.4,0,0,0,.73-1.28,1.25,1.25,0,0,0-.3-.88A2.5,2.5,0,0,0,147,193a20.11,20.11,0,0,0-2.09-.56,7.6,7.6,0,0,1-2.11-.76,2.84,2.84,0,0,1-1.11-1.09,3,3,0,0,1-.33-1.42,2.88,2.88,0,0,1,.49-1.59,3.6,3.6,0,0,1,1.43-1.25,5.16,5.16,0,0,1,2.36-.49,6.06,6.06,0,0,1,2,.29,4.53,4.53,0,0,1,1.35.72,3.88,3.88,0,0,1,.8.85,1.67,1.67,0,0,1,.28.71.39.39,0,0,1-.13.37.52.52,0,0,1-.35.14h-.93a.5.5,0,0,1-.26-.06l-.19-.16a5.32,5.32,0,0,0-.52-.58,2.23,2.23,0,0,0-.77-.47,3.39,3.39,0,0,0-1.25-.19A2.51,2.51,0,0,0,144,188a1.47,1.47,0,0,0-.56,1.17,1.24,1.24,0,0,0,.24.75,2.17,2.17,0,0,0,.94.6,15.31,15.31,0,0,0,2,.58,7.67,7.67,0,0,1,2.31.77,3,3,0,0,1,1.19,1.13,3,3,0,0,1,.36,1.49,2.85,2.85,0,0,1-.55,1.7,3.59,3.59,0,0,1-1.59,1.23A6.62,6.62,0,0,1,145.75,197.83Z" transform="translate(0 -3.47)" fill="#0c0a10"/><rect x="0.25" y="347.75" width="352.09" height="51.32" rx="10.77" fill="#fff" stroke="#0c0a10" stroke-width="0.5"/><path d="M33.51,383.37a.64.64,0,0,1-.45-.15.92.92,0,0,1-.24-.45L30,368.55a.49.49,0,0,1,0-.15v-.09a.43.43,0,0,1,.14-.31.42.42,0,0,1,.31-.13h1.15c.31,0,.49.12.53.37l2.26,11.43,2.39-7.84a1.13,1.13,0,0,1,.23-.37.66.66,0,0,1,.48-.16h.82a.66.66,0,0,1,.49.16.9.9,0,0,1,.2.37l2.41,7.84,2.24-11.43c0-.25.23-.37.55-.37h1.15a.4.4,0,0,1,.31.13.43.43,0,0,1,.14.31.55.55,0,0,0,0,.09.66.66,0,0,0,0,.15l-2.86,14.22a.91.91,0,0,1-.23.45.67.67,0,0,1-.46.15h-.86a.74.74,0,0,1-.49-.15.79.79,0,0,1-.24-.4l-2.75-8.44-2.72,8.44a1.11,1.11,0,0,1-.26.4.69.69,0,0,1-.48.15Z" transform="translate(0 -3.47)" fill="#0c0a10"/><path d="M48.68,369.7a.47.47,0,0,1-.36-.14.5.5,0,0,1-.15-.37V368a.5.5,0,0,1,.15-.37.51.51,0,0,1,.36-.14h1.4a.49.49,0,0,1,.36.14.5.5,0,0,1,.15.37v1.19a.5.5,0,0,1-.15.37.45.45,0,0,1-.36.14Zm.18,13.67a.49.49,0,0,1-.36-.14.5.5,0,0,1-.15-.37v-10.5a.51.51,0,0,1,.51-.51h1.06a.46.46,0,0,1,.36.15.48.48,0,0,1,.13.36v10.5a.52.52,0,0,1-.13.37.49.49,0,0,1-.36.14Z" transform="translate(0 -3.47)" fill="#0c0a10"/><path d="M54.24,383.37a.51.51,0,0,1-.36-.14.5.5,0,0,1-.15-.37V368.15a.51.51,0,0,1,.51-.51h1a.48.48,0,0,1,.38.15.5.5,0,0,1,.13.36v14.71a.52.52,0,0,1-.13.37.51.51,0,0,1-.38.14Z" transform="translate(0 -3.47)" fill="#0c0a10"/><path d="M63.3,383.59a4.71,4.71,0,0,1-2.1-.43A4,4,0,0,1,59.75,382a5,5,0,0,1-.84-1.7,7.68,7.68,0,0,1-.32-2c0-.24,0-.46,0-.67s0-.43,0-.66a7.74,7.74,0,0,1,.32-2,5.1,5.1,0,0,1,.84-1.7,3.94,3.94,0,0,1,1.45-1.19,4.85,4.85,0,0,1,2.1-.43,4.37,4.37,0,0,1,3.59,1.62v-5.1a.48.48,0,0,1,.15-.36.46.46,0,0,1,.36-.15h1.06a.5.5,0,0,1,.37.15.47.47,0,0,1,.14.36v14.71a.49.49,0,0,1-.14.37.53.53,0,0,1-.37.14h-1a.47.47,0,0,1-.51-.51v-.93a4.59,4.59,0,0,1-1.44,1.19A4.74,4.74,0,0,1,63.3,383.59Zm.47-1.79a2.82,2.82,0,0,0,1.77-.51,3.14,3.14,0,0,0,1-1.3,4.31,4.31,0,0,0,.35-1.6c0-.24,0-.52,0-.86s0-.61,0-.85a3.88,3.88,0,0,0-.36-1.53,3.14,3.14,0,0,0-1-1.24,2.93,2.93,0,0,0-1.74-.48,3,3,0,0,0-1.8.49,2.79,2.79,0,0,0-.95,1.31,6.1,6.1,0,0,0-.33,1.74c0,.43,0,.86,0,1.28A6,6,0,0,0,61,380,2.74,2.74,0,0,0,62,381.3,3,3,0,0,0,63.77,381.8Z" transform="translate(0 -3.47)" fill="#0c0a10"/><path d="M72.81,383.37a.53.53,0,0,1-.37-.14.49.49,0,0,1-.14-.37V368.15a.47.47,0,0,1,.14-.36.5.5,0,0,1,.37-.15h1a.47.47,0,0,1,.37.15.51.51,0,0,1,.14.36v14.71a.53.53,0,0,1-.14.37.5.5,0,0,1-.37.14Z" transform="translate(0 -3.47)" fill="#0c0a10"/><path d="M78.21,369.7a.49.49,0,0,1-.37-.14.53.53,0,0,1-.14-.37V368a.48.48,0,0,1,.51-.51h1.4a.52.52,0,0,1,.36.14.5.5,0,0,1,.15.37v1.19a.5.5,0,0,1-.15.37.48.48,0,0,1-.36.14Zm.18,13.67a.48.48,0,0,1-.51-.51v-10.5A.49.49,0,0,1,78,372a.5.5,0,0,1,.37-.15h1.06a.46.46,0,0,1,.36.15.53.53,0,0,1,.13.36v10.5a.57.57,0,0,1-.13.37.49.49,0,0,1-.36.14Z" transform="translate(0 -3.47)" fill="#0c0a10"/><path d="M84.9,383.37a.48.48,0,0,1-.51-.51v-9.23H82.51a.5.5,0,0,1-.37-.15.52.52,0,0,1-.14-.36v-.76a.49.49,0,0,1,.14-.36.5.5,0,0,1,.37-.15h1.88v-1.1a4.91,4.91,0,0,1,.38-2,2.68,2.68,0,0,1,1.2-1.31A4.48,4.48,0,0,1,88.2,367h1.33a.47.47,0,0,1,.35.14.53.53,0,0,1,.14.37v.75a.53.53,0,0,1-.14.37.47.47,0,0,1-.35.14H88.24a1.61,1.61,0,0,0-1.41.54,2.78,2.78,0,0,0-.38,1.57v1h2.86a.45.45,0,0,1,.35.15.48.48,0,0,1,.13.36v.76a.52.52,0,0,1-.13.36.45.45,0,0,1-.35.15H86.45v9.23a.48.48,0,0,1-.51.51Z" transform="translate(0 -3.47)" fill="#0c0a10"/><path d="M96.13,383.59a4.82,4.82,0,0,1-3.63-1.4A5.82,5.82,0,0,1,91,378.34c0-.19,0-.44,0-.74s0-.55,0-.74a6.62,6.62,0,0,1,.73-2.76,4.59,4.59,0,0,1,1.77-1.83,5.82,5.82,0,0,1,5.44.07,4.48,4.48,0,0,1,1.74,2,7.25,7.25,0,0,1,.6,3.05v.38a.52.52,0,0,1-.14.38.57.57,0,0,1-.37.13H93.12v.2a4.55,4.55,0,0,0,.4,1.69,3.07,3.07,0,0,0,1,1.28,2.63,2.63,0,0,0,1.59.48,3.26,3.26,0,0,0,1.33-.24,3.34,3.34,0,0,0,.86-.54,3.59,3.59,0,0,0,.45-.46,1.05,1.05,0,0,1,.31-.34.76.76,0,0,1,.35-.06h1.06a.57.57,0,0,1,.37.13.36.36,0,0,1,.12.34,1.69,1.69,0,0,1-.35.81,4.1,4.1,0,0,1-1,.94,5.27,5.27,0,0,1-1.5.76A6.35,6.35,0,0,1,96.13,383.59Zm-3-6.82h6.07v-.07a4.18,4.18,0,0,0-.37-1.77,2.82,2.82,0,0,0-2.69-1.68,2.89,2.89,0,0,0-1.63.45,3,3,0,0,0-1,1.23,4.33,4.33,0,0,0-.35,1.77Z" transform="translate(0 -3.47)" fill="#0c0a10"/><rect x="0.25" y="285.83" width="352.09" height="51.32" rx="10.77" fill="#fff" stroke="#0c0a10" stroke-width="0.5"/><path d="M33.51,321.45a.64.64,0,0,1-.45-.15.92.92,0,0,1-.24-.45L30,306.63a.49.49,0,0,1,0-.15v-.09a.43.43,0,0,1,.14-.31.42.42,0,0,1,.31-.13h1.15c.31,0,.49.12.53.37l2.26,11.43,2.39-7.84a1,1,0,0,1,.23-.36.63.63,0,0,1,.48-.17h.82a.62.62,0,0,1,.49.17.81.81,0,0,1,.2.36l2.41,7.84,2.24-11.43c0-.25.23-.37.55-.37h1.15a.4.4,0,0,1,.31.13.43.43,0,0,1,.14.31.55.55,0,0,0,0,.09.66.66,0,0,0,0,.15l-2.86,14.22a.91.91,0,0,1-.23.45.67.67,0,0,1-.46.15h-.86a.74.74,0,0,1-.49-.15.79.79,0,0,1-.24-.4l-2.75-8.44-2.72,8.44a1.11,1.11,0,0,1-.26.4.69.69,0,0,1-.48.15Z" transform="translate(0 -3.47)" fill="#0c0a10"/><path d="M48.68,307.79a.48.48,0,0,1-.36-.15.49.49,0,0,1-.15-.36v-1.2a.5.5,0,0,1,.15-.37.51.51,0,0,1,.36-.14h1.4a.49.49,0,0,1,.36.14.5.5,0,0,1,.15.37v1.2a.49.49,0,0,1-.15.36.46.46,0,0,1-.36.15Zm.18,13.66a.49.49,0,0,1-.36-.14.5.5,0,0,1-.15-.37v-10.5a.48.48,0,0,1,.15-.36.46.46,0,0,1,.36-.15h1.06a.46.46,0,0,1,.36.15.5.5,0,0,1,.13.36v10.5a.52.52,0,0,1-.13.37.49.49,0,0,1-.36.14Z" transform="translate(0 -3.47)" fill="#0c0a10"/><path d="M54.24,321.45a.51.51,0,0,1-.36-.14.5.5,0,0,1-.15-.37V306.23a.51.51,0,0,1,.51-.51h1a.48.48,0,0,1,.38.15.5.5,0,0,1,.13.36v14.71a.52.52,0,0,1-.13.37.51.51,0,0,1-.38.14Z" transform="translate(0 -3.47)" fill="#0c0a10"/><path d="M63.3,321.67a4.71,4.71,0,0,1-2.1-.43,4,4,0,0,1-1.45-1.17,5,5,0,0,1-.84-1.7,7.68,7.68,0,0,1-.32-2c0-.24,0-.46,0-.67s0-.43,0-.66a7.74,7.74,0,0,1,.32-2,5.1,5.1,0,0,1,.84-1.7,3.94,3.94,0,0,1,1.45-1.19,4.85,4.85,0,0,1,2.1-.43,4.37,4.37,0,0,1,3.59,1.62v-5.1a.48.48,0,0,1,.15-.36.46.46,0,0,1,.36-.15h1.06a.5.5,0,0,1,.37.15.47.47,0,0,1,.14.36v14.71a.49.49,0,0,1-.14.37.53.53,0,0,1-.37.14h-1a.47.47,0,0,1-.51-.51V320a4.46,4.46,0,0,1-1.44,1.19A4.74,4.74,0,0,1,63.3,321.67Zm.47-1.79a2.82,2.82,0,0,0,1.77-.51,3.14,3.14,0,0,0,1-1.3,4.31,4.31,0,0,0,.35-1.6c0-.24,0-.52,0-.85s0-.62,0-.86a3.88,3.88,0,0,0-.36-1.53,3.14,3.14,0,0,0-1-1.24,2.93,2.93,0,0,0-1.74-.48A3,3,0,0,0,62,312a2.79,2.79,0,0,0-.95,1.31,6.1,6.1,0,0,0-.33,1.74c0,.43,0,.86,0,1.28a6,6,0,0,0,.33,1.74,2.74,2.74,0,0,0,.95,1.31A3,3,0,0,0,63.77,319.88Z" transform="translate(0 -3.47)" fill="#0c0a10"/><path d="M78.5,321.45a.47.47,0,0,1-.51-.51V306.48a.56.56,0,0,1,.13-.39.48.48,0,0,1,.38-.14h6.07a5.94,5.94,0,0,1,2.71.54A3.51,3.51,0,0,1,88.83,308a4.38,4.38,0,0,1,.5,2.08,3.76,3.76,0,0,1-.3,1.57,3.39,3.39,0,0,1-.74,1.06,4.5,4.5,0,0,1-.87.63A4.13,4.13,0,0,1,89,314.67a3.92,3.92,0,0,1,.68,2.31,4.66,4.66,0,0,1-.55,2.23,4,4,0,0,1-1.65,1.63,5.53,5.53,0,0,1-2.72.61Zm1.66-8.95h4.08a3.08,3.08,0,0,0,2.14-.65,2.26,2.26,0,0,0,.73-1.78,2.09,2.09,0,0,0-.73-1.73,3.29,3.29,0,0,0-2.14-.6H80.16Zm0,7.16h4.27a3,3,0,0,0,2.22-.78,2.56,2.56,0,0,0,.77-1.9,2.6,2.6,0,0,0-.77-1.94,3,3,0,0,0-2.22-.76H80.16Z" transform="translate(0 -3.47)" fill="#0c0a10"/><path d="M92.87,307.79a.48.48,0,0,1-.36-.15.49.49,0,0,1-.15-.36v-1.2a.5.5,0,0,1,.15-.37.51.51,0,0,1,.36-.14h1.4a.48.48,0,0,1,.51.51v1.2a.52.52,0,0,1-.14.36.5.5,0,0,1-.37.15Zm.18,13.66a.49.49,0,0,1-.36-.14.5.5,0,0,1-.15-.37v-10.5a.48.48,0,0,1,.15-.36.46.46,0,0,1,.36-.15h1.06a.46.46,0,0,1,.36.15.5.5,0,0,1,.13.36v10.5a.52.52,0,0,1-.13.37.49.49,0,0,1-.36.14Z" transform="translate(0 -3.47)" fill="#0c0a10"/><path d="M98.61,321.45a.49.49,0,0,1-.36-.14.5.5,0,0,1-.15-.37V310.46a.51.51,0,0,1,.15-.37.47.47,0,0,1,.36-.16h1a.55.55,0,0,1,.38.16.51.51,0,0,1,.15.37v1a2.83,2.83,0,0,1,1.22-1.13,4.26,4.26,0,0,1,1.86-.38h.89a.45.45,0,0,1,.35.15.5.5,0,0,1,.13.36v.91a.48.48,0,0,1-.13.36.52.52,0,0,1-.35.13H102.8a2.52,2.52,0,0,0-1.89.7,2.59,2.59,0,0,0-.68,1.89v6.51a.47.47,0,0,1-.16.37.55.55,0,0,1-.37.14Z" transform="translate(0 -3.47)" fill="#0c0a10"/><path d="M110.48,321.67a4.71,4.71,0,0,1-2.1-.43,4,4,0,0,1-1.45-1.17,5,5,0,0,1-.84-1.7,7.68,7.68,0,0,1-.32-2c0-.24,0-.46,0-.67s0-.43,0-.66a7.74,7.74,0,0,1,.32-2,5.1,5.1,0,0,1,.84-1.7,3.94,3.94,0,0,1,1.45-1.19,4.85,4.85,0,0,1,2.1-.43,4.37,4.37,0,0,1,3.59,1.62v-5.1a.48.48,0,0,1,.15-.36.46.46,0,0,1,.36-.15h1.06a.5.5,0,0,1,.37.15.47.47,0,0,1,.14.36v14.71a.49.49,0,0,1-.14.37.53.53,0,0,1-.37.14h-1a.47.47,0,0,1-.51-.51V320a4.46,4.46,0,0,1-1.44,1.19A4.74,4.74,0,0,1,110.48,321.67Zm.47-1.79a2.82,2.82,0,0,0,1.77-.51,3.14,3.14,0,0,0,1-1.3,4.31,4.31,0,0,0,.35-1.6c0-.24,0-.52,0-.85s0-.62,0-.86a3.88,3.88,0,0,0-.36-1.53,3.14,3.14,0,0,0-1-1.24,2.93,2.93,0,0,0-1.74-.48,3,3,0,0,0-1.8.49,2.79,2.79,0,0,0-1,1.31,6.1,6.1,0,0,0-.33,1.74c0,.43,0,.86,0,1.28a6,6,0,0,0,.33,1.74,2.74,2.74,0,0,0,1,1.31A3,3,0,0,0,111,319.88Z" transform="translate(0 -3.47)" fill="#0c0a10"/><path d="M123.44,321.67a6.32,6.32,0,0,1-2.12-.31,4.42,4.42,0,0,1-1.44-.75,3.82,3.82,0,0,1-.84-.89,1.69,1.69,0,0,1-.29-.7.38.38,0,0,1,.15-.38.59.59,0,0,1,.36-.13h1a.58.58,0,0,1,.21,0,.64.64,0,0,1,.21.19c.19.2.41.41.64.62a3.23,3.23,0,0,0,.88.51,3.68,3.68,0,0,0,1.29.2,3.56,3.56,0,0,0,1.86-.44,1.38,1.38,0,0,0,.74-1.27,1.3,1.3,0,0,0-.3-.89,2.55,2.55,0,0,0-1.07-.59,17.32,17.32,0,0,0-2.09-.56,7.4,7.4,0,0,1-2.1-.76,2.77,2.77,0,0,1-1.11-1.09,3,3,0,0,1-.33-1.43,2.94,2.94,0,0,1,.48-1.58A3.59,3.59,0,0,1,121,310.2a5.19,5.19,0,0,1,2.36-.49,6,6,0,0,1,2,.29,4.3,4.3,0,0,1,1.35.72,3.65,3.65,0,0,1,.8.85,1.71,1.71,0,0,1,.29.71.45.45,0,0,1-.13.37.56.56,0,0,1-.36.14h-.93a.39.39,0,0,1-.25-.07.9.9,0,0,1-.19-.15,6.62,6.62,0,0,0-.52-.58,2.28,2.28,0,0,0-.78-.47,3.35,3.35,0,0,0-1.25-.19,2.53,2.53,0,0,0-1.66.46,1.48,1.48,0,0,0-.55,1.18,1.24,1.24,0,0,0,.24.75,2.07,2.07,0,0,0,.93.6,16,16,0,0,0,2,.58,7.7,7.7,0,0,1,2.3.77,3.14,3.14,0,0,1,1.2,1.13,3.08,3.08,0,0,1,.35,1.48,2.94,2.94,0,0,1-.54,1.71,3.56,3.56,0,0,1-1.6,1.23A6.59,6.59,0,0,1,123.44,321.67Z" transform="translate(0 -3.47)" fill="#0c0a10"/><rect x="0.25" y="223.91" width="352.09" height="51.32" rx="10.77" fill="#0c0a10" stroke="#0c0a10" stroke-width="0.5"/><path d="M31.41,259.53a.51.51,0,0,1-.38-.14.52.52,0,0,1-.13-.37V244.56a.56.56,0,0,1,.13-.39.51.51,0,0,1,.38-.14H37a6.94,6.94,0,0,1,2.85.53,4.09,4.09,0,0,1,1.87,1.58,4.87,4.87,0,0,1,.67,2.63,4.77,4.77,0,0,1-.67,2.61A4.07,4.07,0,0,1,39.88,253a6.93,6.93,0,0,1-2.85.54H33.11V259a.53.53,0,0,1-.14.37.56.56,0,0,1-.39.14Zm1.68-7.9h3.83a3.6,3.6,0,0,0,2.46-.74,2.66,2.66,0,0,0,.82-2.12,2.79,2.79,0,0,0-.8-2.13,3.52,3.52,0,0,0-2.48-.75H33.09Z" transform="translate(0 -3.47)" fill="#b496c8"/><path d="M49.39,259.75a5.59,5.59,0,0,1-2.81-.64,4.36,4.36,0,0,1-1.73-1.78,6.06,6.06,0,0,1-.66-2.6c0-.26,0-.58,0-1s0-.7,0-.94a6,6,0,0,1,.67-2.61,4.45,4.45,0,0,1,1.74-1.78,6.4,6.4,0,0,1,5.58,0,4.32,4.32,0,0,1,1.74,1.78,6,6,0,0,1,.68,2.61c0,.24,0,.55,0,.94s0,.71,0,1a6.21,6.21,0,0,1-.67,2.6,4.27,4.27,0,0,1-1.72,1.78A5.63,5.63,0,0,1,49.39,259.75Zm0-1.7a2.86,2.86,0,0,0,2.2-.88,3.83,3.83,0,0,0,.88-2.55c0-.23,0-.51,0-.85s0-.62,0-.84a3.88,3.88,0,0,0-.88-2.56,3.22,3.22,0,0,0-4.4,0,3.77,3.77,0,0,0-.88,2.56c0,.22,0,.5,0,.84s0,.62,0,.85a3.73,3.73,0,0,0,.88,2.55A2.87,2.87,0,0,0,49.39,258.05Z" transform="translate(0 -3.47)" fill="#b496c8"/><path d="M61.69,259.75a4.39,4.39,0,0,1-2.41-.63,4,4,0,0,1-1.49-1.76,6.2,6.2,0,0,1-.51-2.59v-6.25a.51.51,0,0,1,.14-.36.5.5,0,0,1,.37-.15H58.9a.49.49,0,0,1,.36.15.47.47,0,0,1,.14.36v6.14q0,3.3,2.88,3.3a2.89,2.89,0,0,0,2.21-.88,3.38,3.38,0,0,0,.83-2.42v-6.14a.51.51,0,0,1,.14-.36.5.5,0,0,1,.37-.15h1.08a.48.48,0,0,1,.38.15.5.5,0,0,1,.13.36V259a.52.52,0,0,1-.13.37.51.51,0,0,1-.38.14h-1a.52.52,0,0,1-.36-.14.49.49,0,0,1-.14-.37v-1a4.58,4.58,0,0,1-1.46,1.24A4.64,4.64,0,0,1,61.69,259.75Z" transform="translate(0 -3.47)" fill="#b496c8"/><path d="M71.26,259.53a.53.53,0,0,1-.37-.14.49.49,0,0,1-.14-.37V244.31a.48.48,0,0,1,.14-.36.49.49,0,0,1,.37-.14h1a.46.46,0,0,1,.37.14.52.52,0,0,1,.14.36V259a.53.53,0,0,1-.14.37.5.5,0,0,1-.37.14Z" transform="translate(0 -3.47)" fill="#b496c8"/><path d="M80.6,259.53a3.86,3.86,0,0,1-2-.47,2.73,2.73,0,0,1-1.13-1.35,5.49,5.49,0,0,1-.36-2.08v-5.84H75.38a.5.5,0,0,1-.37-.15.47.47,0,0,1-.14-.36v-.76a.47.47,0,0,1,.14-.36.5.5,0,0,1,.37-.15H77.1v-3.7a.49.49,0,0,1,.15-.36.45.45,0,0,1,.36-.14h1A.49.49,0,0,1,79,244a.48.48,0,0,1,.14.36V248h2.75a.5.5,0,0,1,.37.15.51.51,0,0,1,.14.36v.76a.51.51,0,0,1-.14.36.5.5,0,0,1-.37.15H79.16v5.69a3.19,3.19,0,0,0,.36,1.64,1.33,1.33,0,0,0,1.26.6h1.35a.49.49,0,0,1,.37.14.53.53,0,0,1,.14.37V259a.48.48,0,0,1-.51.51Z" transform="translate(0 -3.47)" fill="#b496c8"/><path d="M85.28,259.53a.53.53,0,0,1-.37-.14.49.49,0,0,1-.14-.37V248.55a.51.51,0,0,1,.14-.38.51.51,0,0,1,.37-.16h1a.52.52,0,0,1,.37.16.49.49,0,0,1,.16.38v1a2.78,2.78,0,0,1,1.22-1.13,4.19,4.19,0,0,1,1.86-.38h.88a.46.46,0,0,1,.36.15.5.5,0,0,1,.13.36v.91a.45.45,0,0,1-.49.49H89.46a2.51,2.51,0,0,0-1.88.7,2.55,2.55,0,0,0-.69,1.89V259a.5.5,0,0,1-.15.37.56.56,0,0,1-.38.14Z" transform="translate(0 -3.47)" fill="#b496c8"/><path d="M95.2,263.74a.44.44,0,0,1-.44-.44.55.55,0,0,1,0-.18.73.73,0,0,1,.09-.22l1.7-4-4.23-10a1.35,1.35,0,0,1-.11-.38.45.45,0,0,1,.14-.33.42.42,0,0,1,.33-.14h1.08a.52.52,0,0,1,.36.12.5.5,0,0,1,.17.26l3.37,8.06,3.46-8.06a.61.61,0,0,1,.19-.26.49.49,0,0,1,.36-.12h1a.44.44,0,0,1,.33.14.43.43,0,0,1,.14.31,1.63,1.63,0,0,1-.11.4l-6.29,14.5a.77.77,0,0,1-.19.27.56.56,0,0,1-.37.11Z" transform="translate(0 -3.47)" fill="#b496c8"/><path d="M111,259.53a.47.47,0,0,1-.51-.51V244.56a.56.56,0,0,1,.13-.39A.52.52,0,0,1,111,244h9a.5.5,0,0,1,.37.14.56.56,0,0,1,.13.39v.88a.5.5,0,0,1-.13.38.49.49,0,0,1-.37.13h-7.4v5.17h6.95a.48.48,0,0,1,.38.14.54.54,0,0,1,.13.39v.88a.47.47,0,0,1-.51.51h-6.95v6a.5.5,0,0,1-.15.37.52.52,0,0,1-.38.14Z" transform="translate(0 -3.47)" fill="#b496c8"/><path d="M125.75,259.75a4.5,4.5,0,0,1-2-.44,3.82,3.82,0,0,1-1.46-1.19,2.84,2.84,0,0,1-.55-1.71A2.87,2.87,0,0,1,123,254a7.11,7.11,0,0,1,3.23-1.19l3.3-.47v-.64a2.2,2.2,0,0,0-.61-1.66,2.76,2.76,0,0,0-2-.6,2.87,2.87,0,0,0-1.61.4,2.1,2.1,0,0,0-.85,1,.47.47,0,0,1-.47.33h-1a.47.47,0,0,1-.37-.14.55.55,0,0,1-.12-.35,1.9,1.9,0,0,1,.26-.82,3.3,3.3,0,0,1,.78-.95,4.78,4.78,0,0,1,1.36-.79,5.76,5.76,0,0,1,2-.32,6.35,6.35,0,0,1,2.24.35,3.71,3.71,0,0,1,1.43.91,3.82,3.82,0,0,1,.75,1.31,5,5,0,0,1,.23,1.49V259a.48.48,0,0,1-.51.51h-1a.5.5,0,0,1-.37-.14.53.53,0,0,1-.14-.37v-.95a4.06,4.06,0,0,1-.77.79,4.12,4.12,0,0,1-1.22.64A5.48,5.48,0,0,1,125.75,259.75Zm.46-1.66a3.65,3.65,0,0,0,1.66-.38,2.84,2.84,0,0,0,1.19-1.21,4.39,4.39,0,0,0,.43-2.06v-.62l-2.57.37a5.89,5.89,0,0,0-2.37.75,1.52,1.52,0,0,0-.8,1.31,1.45,1.45,0,0,0,.37,1,2.08,2.08,0,0,0,.93.61A3.29,3.29,0,0,0,126.21,258.09Z" transform="translate(0 -3.47)" fill="#b496c8"/><path d="M135.27,259.53a.49.49,0,0,1-.36-.14.5.5,0,0,1-.15-.37V248.55a.52.52,0,0,1,.15-.38.47.47,0,0,1,.36-.16h1a.55.55,0,0,1,.38.16.52.52,0,0,1,.15.38v1a2.83,2.83,0,0,1,1.22-1.13,4.26,4.26,0,0,1,1.86-.38h.89a.45.45,0,0,1,.35.15.5.5,0,0,1,.13.36v.91a.48.48,0,0,1-.13.36.48.48,0,0,1-.35.13h-1.33a2.52,2.52,0,0,0-1.89.7,2.59,2.59,0,0,0-.68,1.89V259a.47.47,0,0,1-.16.37.55.55,0,0,1-.37.14Z" transform="translate(0 -3.47)" fill="#b496c8"/><path d="M143.69,259.53a.48.48,0,0,1-.51-.51v-10.5a.51.51,0,0,1,.14-.36.5.5,0,0,1,.37-.15h1a.5.5,0,0,1,.37.15.47.47,0,0,1,.14.36v.78a3.82,3.82,0,0,1,1.29-1.1,4,4,0,0,1,1.86-.41,3.62,3.62,0,0,1,3.54,2,3.79,3.79,0,0,1,1.49-1.48,4.4,4.4,0,0,1,2.21-.56,4.25,4.25,0,0,1,2.1.53,3.74,3.74,0,0,1,1.48,1.61,6,6,0,0,1,.54,2.69V259a.49.49,0,0,1-.14.37.53.53,0,0,1-.37.14h-1a.49.49,0,0,1-.36-.14.5.5,0,0,1-.15-.37v-6.2a4.5,4.5,0,0,0-.35-1.95,2.13,2.13,0,0,0-.95-1,2.89,2.89,0,0,0-1.31-.29,2.56,2.56,0,0,0-1.17.29,2.25,2.25,0,0,0-1,1,4.06,4.06,0,0,0-.39,1.95V259a.48.48,0,0,1-.51.51h-1a.49.49,0,0,1-.36-.14.5.5,0,0,1-.15-.37v-6.2a4.2,4.2,0,0,0-.37-1.95,2.23,2.23,0,0,0-1-1,2.77,2.77,0,0,0-1.26-.29,2.6,2.6,0,0,0-1.18.29,2.28,2.28,0,0,0-1,1,4,4,0,0,0-.39,1.93V259a.48.48,0,0,1-.51.51Z" transform="translate(0 -3.47)" fill="#b496c8"/><path d="M166.86,259.75a6.38,6.38,0,0,1-2.13-.31,4.63,4.63,0,0,1-1.44-.75,3.57,3.57,0,0,1-.83-.89,1.9,1.9,0,0,1-.3-.7.4.4,0,0,1,.16-.38.54.54,0,0,1,.35-.13h1a.66.66,0,0,1,.21,0,.79.79,0,0,1,.21.19c.19.2.4.41.64.62a3.33,3.33,0,0,0,.87.51,4.27,4.27,0,0,0,3.16-.23,1.4,1.4,0,0,0,.73-1.28,1.3,1.3,0,0,0-.3-.89,2.5,2.5,0,0,0-1.06-.59,20.11,20.11,0,0,0-2.09-.56,7.6,7.6,0,0,1-2.11-.76,2.84,2.84,0,0,1-1.11-1.09,3,3,0,0,1-.33-1.42,2.88,2.88,0,0,1,.49-1.59,3.52,3.52,0,0,1,1.43-1.25,5.16,5.16,0,0,1,2.36-.49,6.06,6.06,0,0,1,2,.29,4.41,4.41,0,0,1,1.35.72,3.88,3.88,0,0,1,.8.85,1.86,1.86,0,0,1,.29.71.43.43,0,0,1-.14.37.52.52,0,0,1-.35.14h-.93a.42.42,0,0,1-.26-.07,1.25,1.25,0,0,1-.19-.15,5.32,5.32,0,0,0-.52-.58,2.23,2.23,0,0,0-.77-.47,3.39,3.39,0,0,0-1.25-.19,2.46,2.46,0,0,0-1.66.47,1.45,1.45,0,0,0-.56,1.17,1.19,1.19,0,0,0,.25.75,2.07,2.07,0,0,0,.93.6,15.31,15.31,0,0,0,2,.58,7.67,7.67,0,0,1,2.31.77,3,3,0,0,1,1.19,1.13,3,3,0,0,1,.36,1.49,2.91,2.91,0,0,1-.54,1.7,3.68,3.68,0,0,1-1.6,1.23A6.62,6.62,0,0,1,166.86,259.75Z" transform="translate(0 -3.47)" fill="#b496c8"/></g></g></svg>