<svg xmlns="http://www.w3.org/2000/svg" xmlns:xlink="http://www.w3.org/1999/xlink"
    viewBox="0 0 352.59 542.72">
    <defs>
        <linearGradient id="linear-gradient" x1="5156.53" y1="-4089.63" x2="5245.37" y2="-4089.63"
            gradientTransform="translate(-5033.24 4581.7)" gradientUnits="userSpaceOnUse">
            <stop offset="0" stop-color="#fff" />
            <stop offset="1" stop-color="#fff" stop-opacity="0" />
        </linearGradient>
    </defs>
    <g id="Layer_2" data-name="Layer 2">
        <g id="Layer_5" data-name="Layer 5">
            <rect x="0.25" y="63.34" width="352.09" height="479.13" rx="10.77" fill="#fff"
                stroke="#0c0a10" stroke-width="0.5" />
            <text transform="translate(25.37 98.46)" font-size="24.02" fill="#0c0a10"
                font-family="SofiaPro-Bold, Sofia Pro" font-weight="700">All <tspan x="34.04" y="0"
                    letter-spacing="-0.01em">S</tspan><tspan x="47.86" y="0">pecies</tspan><tspan
                    font-family="SofiaPro-Light, Sofia Pro" font-weight="300" opacity="0.75">
                    <tspan x="0" y="33" letter-spacing="0em">B</tspan>
                    <tspan x="14.99" y="33">ig </tspan>
                    <tspan x="41.44" y="33" letter-spacing="-0.01em">c</tspan>
                    <tspan x="53.14" y="33" letter-spacing="0em">a</tspan>
                    <tspan x="67.92" y="33" letter-spacing="-0.01em">t</tspan>
                    <tspan x="74.93" y="33" letter-spacing="0em"> </tspan>
                    <tspan x="81.23" y="33" letter-spacing="-0.04em">(</tspan>
                    <tspan x="88.41" y="33" letter-spacing="0em">C</tspan>
                    <tspan x="104.6" y="33">a</tspan>
                    <tspan x="119.38" y="33" letter-spacing="-0.01em">p</tspan>
                    <tspan x="133.94" y="33" letter-spacing="0em">ti</tspan>
                    <tspan x="146.55" y="33" letter-spacing="-0.01em">v</tspan>
                    <tspan x="158.25" y="33" letter-spacing="-0.02em">e</tspan>
                    <tspan x="171.15" y="33">)</tspan>
                    <tspan x="0" y="66">Domestic </tspan>
                    <tspan x="107.8" y="66" letter-spacing="0em">C</tspan>
                    <tspan x="123.99" y="66">at*</tspan>
                    <tspan x="0" y="99">Bob</tspan>
                    <tspan x="43.87" y="99" letter-spacing="-0.01em">c</tspan>
                    <tspan x="55.57" y="99">a</tspan>
                    <tspan x="70.34" y="99" letter-spacing="-0.01em">t</tspan>
                    <tspan x="0" y="132" letter-spacing="0em">M</tspan>
                    <tspan x="22.68" y="132">ou</tspan>
                    <tspan x="50.38" y="132" letter-spacing="-0.01em">n</tspan>
                    <tspan x="63.88" y="132" letter-spacing="-0.01em">t</tspan>
                    <tspan x="70.85" y="132">ain lion</tspan>
                    <tspan x="0" y="165" letter-spacing="0em">B</tspan>
                    <tspan x="14.99" y="165">lac</tspan>
                    <tspan x="47.16" y="165" letter-spacing="-0.02em">k</tspan>
                    <tspan x="57.73" y="165" xml:space="preserve"> bea</tspan>
                    <tspan x="107.08" y="165" letter-spacing="-0.03em">r</tspan>
                </tspan><tspan
                    font-family="SofiaPro-Light, Sofia Pro" font-weight="300" letter-spacing="0em"
                    opacity="0.75">
                    <tspan x="0" y="198">B</tspan>
                    <tspan x="14.99" y="198" letter-spacing="-0.02em">r</tspan>
                    <tspan x="23.38" y="198" letter-spacing="-0.01em">o</tspan>
                    <tspan x="37.19" y="198" letter-spacing="0em">wn bea</tspan>
                    <tspan x="119.16" y="198" letter-spacing="-0.03em">r</tspan>
                </tspan><tspan
                    font-family="SofiaPro-Light, Sofia Pro" font-weight="300" opacity="0.75">
                    <tspan x="0" y="231" letter-spacing="-0.02em">P</tspan>
                    <tspan x="14.15" y="231">ola</tspan>
                    <tspan x="48.34" y="231" letter-spacing="-0.03em">r</tspan>
                    <tspan x="56.65" y="231" xml:space="preserve"> bea</tspan>
                    <tspan x="105.99" y="231" letter-spacing="-0.03em">r</tspan>
                    <tspan x="0" y="264">B</tspan>
                    <tspan x="15.06" y="264" letter-spacing="-0.01em">o</tspan>
                    <tspan x="28.88" y="264" letter-spacing="0em">ttlenose dolphin</tspan>
                    <tspan x="0" y="297">G</tspan>
                    <tspan x="18.26" y="297" letter-spacing="-0.03em">r</tspan>
                    <tspan x="26.64" y="297" letter-spacing="-0.01em">e</tspan>
                    <tspan x="39.86" y="297">y seal</tspan>
                    <tspan x="0" y="330" letter-spacing="-0.01em">H</tspan>
                    <tspan x="16.94" y="330">arbo</tspan>
                    <tspan x="69.5" y="330" letter-spacing="-0.03em">r</tspan>
                    <tspan x="77.81" y="330" xml:space="preserve"> seal</tspan>
                    <tspan x="0" y="363" letter-spacing="0em">C</tspan>
                    <tspan x="16.19" y="363" letter-spacing="-0.01em">oy</tspan>
                    <tspan x="41.56" y="363" letter-spacing="-0.01em">o</tspan>
                    <tspan x="55.38" y="363" letter-spacing="-0.01em">t</tspan>
                    <tspan x="62.34" y="363">e</tspan>
                    <tspan x="0" y="396" letter-spacing="-0.02em">R</tspan>
                    <tspan x="14.34" y="396" letter-spacing="0em">ed </tspan>
                    <tspan x="48.91" y="396" letter-spacing="-0.01em">f</tspan>
                    <tspan x="56.17" y="396" letter-spacing="-0.02em">o</tspan>
                    <tspan x="69.74" y="396">x</tspan>
                    <tspan x="0" y="429">Ameri</tspan>
                    <tspan x="64.1" y="429" letter-spacing="-0.01em">c</tspan>
                    <tspan x="75.8" y="429" letter-spacing="0em">an mar</tspan>
                    <tspan x="155.89" y="429" letter-spacing="-0.01em">t</tspan>
                    <tspan x="162.86" y="429" letter-spacing="0em">en</tspan>
                </tspan></text>
            <rect x="123.29" y="337.64" width="88.84" height="308.85"
                transform="translate(-324.35 659.78) rotate(-90)" fill="url(#linear-gradient)" />
            <rect x="0.25" y="0.25" width="352.09" height="51.32" rx="10.77" fill="#0c0a10"
                stroke="#0c0a10" stroke-width="0.5" />
            <path
                d="M33.51,32.4a.64.64,0,0,1-.45-.15,1,1,0,0,1-.24-.45L30,17.58a.49.49,0,0,1,0-.15v-.09a.48.48,0,0,1,.45-.45h1.15c.31,0,.49.13.53.38L34.33,28.7l2.39-7.84a1,1,0,0,1,.23-.37.66.66,0,0,1,.48-.16h.82a.66.66,0,0,1,.49.16.84.84,0,0,1,.2.37l2.41,7.84,2.24-11.43c0-.25.23-.38.55-.38h1.15a.45.45,0,0,1,.32.14.46.46,0,0,1,.13.31.55.55,0,0,0,0,.09.66.66,0,0,0,0,.15L42.86,31.8a1,1,0,0,1-.23.45.67.67,0,0,1-.46.15h-.86a.74.74,0,0,1-.49-.15.79.79,0,0,1-.24-.4l-2.75-8.44-2.72,8.44a1.11,1.11,0,0,1-.26.4.69.69,0,0,1-.48.15Z"
                fill="#cbe83c" />
            <path
                d="M48.68,18.73a.47.47,0,0,1-.36-.14.5.5,0,0,1-.15-.37V17a.5.5,0,0,1,.15-.37.51.51,0,0,1,.36-.14h1.4a.48.48,0,0,1,.51.51v1.19a.53.53,0,0,1-.14.37.49.49,0,0,1-.37.14Zm.18,13.67a.49.49,0,0,1-.36-.14.5.5,0,0,1-.15-.37V21.39a.51.51,0,0,1,.51-.51h1.06a.46.46,0,0,1,.36.15.48.48,0,0,1,.13.36v10.5a.52.52,0,0,1-.13.37.49.49,0,0,1-.36.14Z"
                fill="#cbe83c" />
            <path
                d="M54.24,32.4a.51.51,0,0,1-.36-.14.5.5,0,0,1-.15-.37V17.18a.51.51,0,0,1,.51-.51h1a.48.48,0,0,1,.38.15.5.5,0,0,1,.13.36V31.89a.52.52,0,0,1-.13.37.51.51,0,0,1-.38.14Z"
                fill="#cbe83c" />
            <path
                d="M63.3,32.62a4.71,4.71,0,0,1-2.1-.43A4,4,0,0,1,59.75,31a5,5,0,0,1-.84-1.7,8.2,8.2,0,0,1-.32-2c0-.24,0-.46,0-.67s0-.43,0-.66a8.2,8.2,0,0,1,.32-2,5.1,5.1,0,0,1,.84-1.7,3.94,3.94,0,0,1,1.45-1.19,4.71,4.71,0,0,1,2.1-.43,4.3,4.3,0,0,1,3.59,1.62v-5.1a.48.48,0,0,1,.15-.36.46.46,0,0,1,.36-.15h1.06a.5.5,0,0,1,.37.15.47.47,0,0,1,.14.36V31.89a.49.49,0,0,1-.14.37.53.53,0,0,1-.37.14h-1a.47.47,0,0,1-.51-.51V31a4.59,4.59,0,0,1-1.44,1.19A4.74,4.74,0,0,1,63.3,32.62Zm.47-1.79a2.82,2.82,0,0,0,1.77-.51,3.14,3.14,0,0,0,1-1.3,4.31,4.31,0,0,0,.35-1.6c0-.24,0-.52,0-.86s0-.61,0-.85a3.81,3.81,0,0,0-.36-1.53,3.14,3.14,0,0,0-1-1.24,2.94,2.94,0,0,0-1.74-.49A3,3,0,0,0,62,23,2.79,2.79,0,0,0,61,24.26,6.1,6.1,0,0,0,60.69,26c0,.43,0,.86,0,1.28A6.1,6.1,0,0,0,61,29,2.74,2.74,0,0,0,62,30.33,3,3,0,0,0,63.77,30.83Z"
                fill="#cbe83c" />
            <path
                d="M72.81,32.4a.53.53,0,0,1-.37-.14.49.49,0,0,1-.14-.37V17.18a.47.47,0,0,1,.14-.36.5.5,0,0,1,.37-.15h1a.47.47,0,0,1,.37.15.51.51,0,0,1,.14.36V31.89a.53.53,0,0,1-.14.37.5.5,0,0,1-.37.14Z"
                fill="#cbe83c" />
            <path
                d="M78.21,18.73a.49.49,0,0,1-.37-.14.53.53,0,0,1-.14-.37V17a.48.48,0,0,1,.51-.51h1.4a.52.52,0,0,1,.36.14.5.5,0,0,1,.15.37v1.19a.5.5,0,0,1-.15.37.48.48,0,0,1-.36.14Zm.18,13.67a.48.48,0,0,1-.51-.51V21.39A.49.49,0,0,1,78,21a.5.5,0,0,1,.37-.15h1.06a.46.46,0,0,1,.36.15.53.53,0,0,1,.13.36v10.5a.57.57,0,0,1-.13.37.49.49,0,0,1-.36.14Z"
                fill="#cbe83c" />
            <path
                d="M84.9,32.4a.48.48,0,0,1-.51-.51V22.65H82.51a.49.49,0,0,1-.37-.14.53.53,0,0,1-.14-.37v-.75a.49.49,0,0,1,.14-.36.5.5,0,0,1,.37-.15h1.88V19.77a4.89,4.89,0,0,1,.38-2A2.75,2.75,0,0,1,86,16.47,4.6,4.6,0,0,1,88.2,16h1.33a.47.47,0,0,1,.35.14.53.53,0,0,1,.14.37v.75a.53.53,0,0,1-.14.37.47.47,0,0,1-.35.14H88.24a1.61,1.61,0,0,0-1.41.54,2.77,2.77,0,0,0-.38,1.56v1h2.86a.45.45,0,0,1,.35.15.48.48,0,0,1,.13.36v.75a.52.52,0,0,1-.13.37.45.45,0,0,1-.35.14H86.45v9.24a.48.48,0,0,1-.51.51Z"
                fill="#cbe83c" />
            <path
                d="M96.13,32.62a4.79,4.79,0,0,1-3.63-1.41A5.77,5.77,0,0,1,91,27.37c0-.19,0-.44,0-.74s0-.55,0-.74a6.62,6.62,0,0,1,.73-2.76,4.59,4.59,0,0,1,1.77-1.83,5.14,5.14,0,0,1,2.62-.64,5.27,5.27,0,0,1,2.82.71,4.51,4.51,0,0,1,1.74,2,7.33,7.33,0,0,1,.6,3.06v.38a.48.48,0,0,1-.14.37.53.53,0,0,1-.37.14H93.12v.2a4.55,4.55,0,0,0,.4,1.69,3.12,3.12,0,0,0,1,1.28,2.68,2.68,0,0,0,1.6.48,3.23,3.23,0,0,0,1.33-.24,3.34,3.34,0,0,0,.86-.54,3.59,3.59,0,0,0,.45-.46,1.05,1.05,0,0,1,.31-.34.76.76,0,0,1,.35-.06h1.06a.57.57,0,0,1,.37.12.39.39,0,0,1,.12.35,1.69,1.69,0,0,1-.35.81,4.3,4.3,0,0,1-1,.94,5.27,5.27,0,0,1-1.5.76A6.35,6.35,0,0,1,96.13,32.62Zm-3-6.82h6.07v-.07A4,4,0,0,0,98.82,24a2.87,2.87,0,0,0-1-1.23,2.92,2.92,0,0,0-1.64-.45,2.86,2.86,0,0,0-1.63.45,2.89,2.89,0,0,0-1,1.23,4.33,4.33,0,0,0-.35,1.77Z"
                fill="#cbe83c" />
        </g>
    </g>
</svg>